<?xml version="1.0" encoding="UTF-8" standalone="no"?>
<!DOCTYPE svg PUBLIC "-//W3C//DTD SVG 1.1//EN"
 "http://www.w3.org/Graphics/SVG/1.1/DTD/svg11.dtd">
<!-- Generated by graphviz version 2.44.0 ()
 -->
<!-- Title: G Pages: 1 -->
<svg width="519pt" height="2174pt"
 viewBox="0.00 0.00 519.15 2174.00" xmlns="http://www.w3.org/2000/svg" xmlns:xlink="http://www.w3.org/1999/xlink">
<g id="graph0" class="graph" transform="scale(1 1) rotate(0) translate(4 2170)">
<title>G</title>
<polygon fill="white" stroke="transparent" points="-4,4 -4,-2170 515.15,-2170 515.15,4 -4,4"/>
<!-- v0 -->
<g id="node1" class="node">
<title>v0</title>
<ellipse fill="none" stroke="black" cx="435.09" cy="-2148" rx="27" ry="18"/>
</g>
<!-- v1 -->
<g id="node2" class="node">
<title>v1</title>
<ellipse fill="none" stroke="black" cx="231.09" cy="-2061" rx="27" ry="18"/>
<text text-anchor="middle" x="231.09" y="-2057.3" font-family="Times,serif" font-size="14.00">وفى</text>
</g>
<!-- v0&#45;&gt;v1 -->
<g id="edge1" class="edge">
<title>v0&#45;&gt;v1</title>
<path fill="none" stroke="black" d="M408.21,-2145.11C362.85,-2141.41 273.71,-2131.78 250.09,-2112 243.13,-2106.17 238.72,-2097.5 235.92,-2089.02"/>
<polygon fill="black" stroke="black" points="239.29,-2088.07 233.32,-2079.31 232.53,-2089.88 239.29,-2088.07"/>
<text text-anchor="middle" x="340.59" y="-2100.8" font-family="Times,serif" font-size="14.00">Vat_sir_199, Vat_sir_424</text>
</g>
<!-- v2 -->
<g id="node3" class="node">
<title>v2</title>
<ellipse fill="none" stroke="black" cx="435.09" cy="-2061" rx="27" ry="18"/>
<text text-anchor="middle" x="435.09" y="-2057.3" font-family="Times,serif" font-size="14.00">وفي</text>
</g>
<!-- v0&#45;&gt;v2 -->
<g id="edge2" class="edge">
<title>v0&#45;&gt;v2</title>
<path fill="none" stroke="black" d="M435.09,-2129.8C435.09,-2118.16 435.09,-2102.55 435.09,-2089.24"/>
<polygon fill="black" stroke="black" points="438.59,-2089.18 435.09,-2079.18 431.59,-2089.18 438.59,-2089.18"/>
<text text-anchor="middle" x="465.59" y="-2100.8" font-family="Times,serif" font-size="14.00">Sbath_25</text>
</g>
<!-- v35 -->
<g id="node36" class="node">
<title>v35</title>
<ellipse fill="none" stroke="black" cx="372.09" cy="-18" rx="27" ry="18"/>
</g>
<!-- v0&#45;&gt;v35 -->
<g id="edge50" class="edge">
<title>v0&#45;&gt;v35</title>
<path fill="none" stroke="white" d="M458.46,-2138.97C471.59,-2133.34 487.25,-2124.55 497.09,-2112 511.33,-2093.84 511.09,-2085.08 511.09,-2062 511.09,-2062 511.09,-2062 511.09,-104 511.09,-55.76 449.4,-34.07 408.21,-24.96"/>
<polygon fill="white" stroke="white" points="408.73,-21.5 398.23,-22.91 407.32,-28.35 408.73,-21.5"/>
</g>
<!-- v3 -->
<g id="node4" class="node">
<title>v3</title>
<ellipse fill="none" stroke="black" cx="285.09" cy="-1974" rx="128.08" ry="18"/>
<text text-anchor="middle" x="285.09" y="-1970.3" font-family="Times,serif" font-size="14.00">الوقتوالحالعندماسمعنادان</text>
</g>
<!-- v1&#45;&gt;v3 -->
<g id="edge3" class="edge">
<title>v1&#45;&gt;v3</title>
<path fill="none" stroke="black" d="M227.62,-2042.77C226.47,-2032.63 226.64,-2019.89 232.09,-2010 234.62,-2005.41 238.04,-2001.32 241.92,-1997.7"/>
<polygon fill="black" stroke="black" points="244.27,-2000.3 249.87,-1991.31 239.89,-1994.84 244.27,-2000.3"/>
<text text-anchor="middle" x="322.59" y="-2013.8" font-family="Times,serif" font-size="14.00">Vat_sir_199, Vat_sir_424</text>
</g>
<!-- v2&#45;&gt;v3 -->
<g id="edge4" class="edge">
<title>v2&#45;&gt;v3</title>
<path fill="none" stroke="black" d="M431.56,-2042.89C428.46,-2032.01 422.86,-2018.42 413.09,-2010 403.73,-2001.93 392.67,-1995.7 381.03,-1990.9"/>
<polygon fill="black" stroke="black" points="382.19,-1987.6 371.6,-1987.35 379.72,-1994.15 382.19,-1987.6"/>
<text text-anchor="middle" x="454.59" y="-2013.8" font-family="Times,serif" font-size="14.00">Sbath_25</text>
</g>
<!-- v4 -->
<g id="node5" class="node">
<title>v4</title>
<ellipse fill="none" stroke="black" cx="232.09" cy="-1887" rx="30.59" ry="18"/>
<text text-anchor="middle" x="232.09" y="-1883.3" font-family="Times,serif" font-size="14.00">لهذا</text>
</g>
<!-- v3&#45;&gt;v4 -->
<g id="edge5" class="edge">
<title>v3&#45;&gt;v4</title>
<path fill="none" stroke="black" d="M250.52,-1956.58C243.57,-1951.61 237.15,-1945.45 233.09,-1938 229.38,-1931.19 228.13,-1923.04 228.09,-1915.31"/>
<polygon fill="black" stroke="black" points="231.59,-1915.39 228.65,-1905.21 224.6,-1915 231.59,-1915.39"/>
<text text-anchor="middle" x="274.59" y="-1926.8" font-family="Times,serif" font-size="14.00">Vat_sir_199</text>
</g>
<!-- v5 -->
<g id="node6" class="node">
<title>v5</title>
<ellipse fill="none" stroke="black" cx="338.09" cy="-1887" rx="27" ry="18"/>
<text text-anchor="middle" x="338.09" y="-1883.3" font-family="Times,serif" font-size="14.00">هذا</text>
</g>
<!-- v3&#45;&gt;v5 -->
<g id="edge6" class="edge">
<title>v3&#45;&gt;v5</title>
<path fill="none" stroke="black" d="M302,-1956.05C306.93,-1950.58 312.06,-1944.29 316.09,-1938 320.77,-1930.7 324.91,-1922.24 328.3,-1914.38"/>
<polygon fill="black" stroke="black" points="331.64,-1915.45 332.18,-1904.87 325.16,-1912.8 331.64,-1915.45"/>
<text text-anchor="middle" x="403.09" y="-1926.8" font-family="Times,serif" font-size="14.00">Sbath_25, Vat_sir_424</text>
</g>
<!-- v6 -->
<g id="node7" class="node">
<title>v6</title>
<ellipse fill="none" stroke="black" cx="278.09" cy="-1800" rx="98.58" ry="18"/>
<text text-anchor="middle" x="278.09" y="-1796.3" font-family="Times,serif" font-size="14.00">التعنيفوهذاالتبكيت</text>
</g>
<!-- v4&#45;&gt;v6 -->
<g id="edge7" class="edge">
<title>v4&#45;&gt;v6</title>
<path fill="none" stroke="black" d="M228.9,-1868.92C227.85,-1858.83 228.03,-1846.09 233.09,-1836 235.25,-1831.69 238.22,-1827.76 241.6,-1824.21"/>
<polygon fill="black" stroke="black" points="243.97,-1826.79 249.03,-1817.47 239.27,-1821.6 243.97,-1826.79"/>
<text text-anchor="middle" x="274.59" y="-1839.8" font-family="Times,serif" font-size="14.00">Vat_sir_199</text>
</g>
<!-- v5&#45;&gt;v6 -->
<g id="edge8" class="edge">
<title>v5&#45;&gt;v6</title>
<path fill="none" stroke="black" d="M332.73,-1869.34C328.99,-1859.16 323.37,-1846.18 316.09,-1836 313.3,-1832.1 310.02,-1828.3 306.58,-1824.74"/>
<polygon fill="black" stroke="black" points="309,-1822.21 299.38,-1817.78 304.14,-1827.25 309,-1822.21"/>
<text text-anchor="middle" x="404.09" y="-1839.8" font-family="Times,serif" font-size="14.00">Sbath_25, Vat_sir_424</text>
</g>
<!-- v7 -->
<g id="node8" class="node">
<title>v7</title>
<ellipse fill="none" stroke="black" cx="196.09" cy="-1713" rx="69.59" ry="18"/>
<text text-anchor="middle" x="196.09" y="-1709.3" font-family="Times,serif" font-size="14.00">فمنوقتهوحينه</text>
</g>
<!-- v6&#45;&gt;v7 -->
<g id="edge10" class="edge">
<title>v6&#45;&gt;v7</title>
<path fill="none" stroke="black" d="M230.17,-1784.03C220.63,-1779.03 211.56,-1772.5 205.09,-1764 200.19,-1757.56 197.64,-1749.31 196.39,-1741.38"/>
<polygon fill="black" stroke="black" points="199.87,-1740.92 195.41,-1731.31 192.9,-1741.6 199.87,-1740.92"/>
<text text-anchor="middle" x="246.59" y="-1752.8" font-family="Times,serif" font-size="14.00">Vat_sir_199</text>
</g>
<!-- v8 -->
<g id="node9" class="node">
<title>v8</title>
<ellipse fill="none" stroke="black" cx="257.09" cy="-1626" rx="35.19" ry="18"/>
<text text-anchor="middle" x="257.09" y="-1622.3" font-family="Times,serif" font-size="14.00">انتفخ</text>
</g>
<!-- v6&#45;&gt;v8 -->
<g id="edge9" class="edge">
<title>v6&#45;&gt;v8</title>
<path fill="none" stroke="black" d="M283.84,-1781.89C291.8,-1755.28 303.56,-1702.81 288.09,-1662 286.43,-1657.61 283.93,-1653.42 281.07,-1649.56"/>
<polygon fill="black" stroke="black" points="283.53,-1647.05 274.39,-1641.7 278.19,-1651.58 283.53,-1647.05"/>
<text text-anchor="middle" x="375.09" y="-1709.3" font-family="Times,serif" font-size="14.00">Sbath_25, Vat_sir_424</text>
</g>
<!-- v7&#45;&gt;v8 -->
<g id="edge11" class="edge">
<title>v7&#45;&gt;v8</title>
<path fill="none" stroke="black" d="M195.93,-1694.56C196.6,-1684.35 198.82,-1671.6 205.09,-1662 209.65,-1655.02 216.14,-1649.08 222.99,-1644.18"/>
<polygon fill="black" stroke="black" points="225.24,-1646.9 231.76,-1638.54 221.45,-1641.01 225.24,-1646.9"/>
<text text-anchor="middle" x="246.59" y="-1665.8" font-family="Times,serif" font-size="14.00">Vat_sir_199</text>
</g>
<!-- v9 -->
<g id="node10" class="node">
<title>v9</title>
<ellipse fill="none" stroke="black" cx="159.09" cy="-1539" rx="35.19" ry="18"/>
<text text-anchor="middle" x="159.09" y="-1535.3" font-family="Times,serif" font-size="14.00">حتَّى</text>
</g>
<!-- v8&#45;&gt;v9 -->
<g id="edge12" class="edge">
<title>v8&#45;&gt;v9</title>
<path fill="none" stroke="black" d="M230.2,-1614.2C217.68,-1608.3 203.16,-1600.12 192.09,-1590 184.54,-1583.09 177.91,-1574.11 172.62,-1565.66"/>
<polygon fill="black" stroke="black" points="175.51,-1563.68 167.42,-1556.84 169.48,-1567.23 175.51,-1563.68"/>
<text text-anchor="middle" x="222.59" y="-1578.8" font-family="Times,serif" font-size="14.00">Sbath_25</text>
</g>
<!-- v10 -->
<g id="node11" class="node">
<title>v10</title>
<ellipse fill="none" stroke="black" cx="257.09" cy="-1539" rx="44.69" ry="18"/>
<text text-anchor="middle" x="257.09" y="-1535.3" font-family="Times,serif" font-size="14.00">جوفهحتي</text>
</g>
<!-- v8&#45;&gt;v10 -->
<g id="edge13" class="edge">
<title>v8&#45;&gt;v10</title>
<path fill="none" stroke="black" d="M257.09,-1607.8C257.09,-1596.16 257.09,-1580.55 257.09,-1567.24"/>
<polygon fill="black" stroke="black" points="260.59,-1567.18 257.09,-1557.18 253.59,-1567.18 260.59,-1567.18"/>
<text text-anchor="middle" x="298.59" y="-1578.8" font-family="Times,serif" font-size="14.00">Vat_sir_424</text>
</g>
<!-- v11 -->
<g id="node12" class="node">
<title>v11</title>
<ellipse fill="none" stroke="black" cx="371.09" cy="-1485" rx="40.09" ry="18"/>
<text text-anchor="middle" x="371.09" y="-1481.3" font-family="Times,serif" font-size="14.00">حتىبقى</text>
</g>
<!-- v8&#45;&gt;v11 -->
<g id="edge14" class="edge">
<title>v8&#45;&gt;v11</title>
<path fill="none" stroke="black" d="M289.84,-1619.35C308.24,-1614.54 330.22,-1605.77 344.09,-1590 362.7,-1568.83 368.75,-1536.43 370.58,-1513.42"/>
<polygon fill="black" stroke="black" points="374.08,-1513.47 371.16,-1503.28 367.09,-1513.06 374.08,-1513.47"/>
<text text-anchor="middle" x="395.59" y="-1578.8" font-family="Times,serif" font-size="14.00">Vat_sir_199</text>
</g>
<!-- v12 -->
<g id="node13" class="node">
<title>v12</title>
<ellipse fill="none" stroke="black" cx="198.09" cy="-1431" rx="27" ry="18"/>
<text text-anchor="middle" x="198.09" y="-1427.3" font-family="Times,serif" font-size="14.00">بقي</text>
</g>
<!-- v9&#45;&gt;v12 -->
<g id="edge15" class="edge">
<title>v9&#45;&gt;v12</title>
<path fill="none" stroke="black" d="M155.67,-1520.84C153.53,-1505.93 152.44,-1484.11 160.09,-1467 162.78,-1460.98 167.06,-1455.53 171.79,-1450.83"/>
<polygon fill="black" stroke="black" points="174.27,-1453.31 179.44,-1444.06 169.63,-1448.06 174.27,-1453.31"/>
<text text-anchor="middle" x="190.59" y="-1481.3" font-family="Times,serif" font-size="14.00">Sbath_25</text>
</g>
<!-- v10&#45;&gt;v12 -->
<g id="edge16" class="edge">
<title>v10&#45;&gt;v12</title>
<path fill="none" stroke="black" d="M248.44,-1521.29C245.47,-1515.5 242.12,-1508.97 239.09,-1503 231,-1487.05 230.02,-1482.5 221.09,-1467 219.07,-1463.49 216.83,-1459.84 214.58,-1456.29"/>
<polygon fill="black" stroke="black" points="217.42,-1454.25 209.03,-1447.78 211.56,-1458.07 217.42,-1454.25"/>
<text text-anchor="middle" x="280.59" y="-1481.3" font-family="Times,serif" font-size="14.00">Vat_sir_424</text>
</g>
<!-- v13 -->
<g id="node14" class="node">
<title>v13</title>
<ellipse fill="none" stroke="black" cx="264.09" cy="-1344" rx="27" ry="18"/>
<text text-anchor="middle" x="264.09" y="-1340.3" font-family="Times,serif" font-size="14.00">مثل</text>
</g>
<!-- v11&#45;&gt;v13 -->
<g id="edge17" class="edge">
<title>v11&#45;&gt;v13</title>
<path fill="none" stroke="black" d="M373.74,-1466.85C376.2,-1444.38 376.95,-1404.94 357.09,-1380 343.46,-1362.87 320.49,-1354.13 300.79,-1349.66"/>
<polygon fill="black" stroke="black" points="301.35,-1346.2 290.86,-1347.69 299.99,-1353.07 301.35,-1346.2"/>
<text text-anchor="middle" x="416.59" y="-1427.3" font-family="Times,serif" font-size="14.00">Vat_sir_199</text>
</g>
<!-- v12&#45;&gt;v13 -->
<g id="edge18" class="edge">
<title>v12&#45;&gt;v13</title>
<path fill="none" stroke="black" d="M194.36,-1413.06C193.04,-1402.77 193.12,-1389.78 199.09,-1380 206.05,-1368.61 218.11,-1360.69 229.96,-1355.31"/>
<polygon fill="black" stroke="black" points="231.37,-1358.52 239.32,-1351.52 228.74,-1352.03 231.37,-1358.52"/>
<text text-anchor="middle" x="278.09" y="-1383.8" font-family="Times,serif" font-size="14.00">Sbath_25, Vat_sir_424</text>
</g>
<!-- v14 -->
<g id="node15" class="node">
<title>v14</title>
<ellipse fill="none" stroke="black" cx="211.09" cy="-1257" rx="30.59" ry="18"/>
<text text-anchor="middle" x="211.09" y="-1253.3" font-family="Times,serif" font-size="14.00">لظرف</text>
</g>
<!-- v13&#45;&gt;v14 -->
<g id="edge19" class="edge">
<title>v13&#45;&gt;v14</title>
<path fill="none" stroke="black" d="M241.49,-1333.85C230.55,-1328.15 218.45,-1319.66 212.09,-1308 208.38,-1301.19 207.13,-1293.04 207.09,-1285.31"/>
<polygon fill="black" stroke="black" points="210.59,-1285.39 207.65,-1275.21 203.6,-1285 210.59,-1285.39"/>
<text text-anchor="middle" x="253.59" y="-1296.8" font-family="Times,serif" font-size="14.00">Vat_sir_424</text>
</g>
<!-- v15 -->
<g id="node16" class="node">
<title>v15</title>
<ellipse fill="none" stroke="black" cx="317.09" cy="-1257" rx="35.19" ry="18"/>
<text text-anchor="middle" x="317.09" y="-1253.3" font-family="Times,serif" font-size="14.00">الظرف</text>
</g>
<!-- v13&#45;&gt;v15 -->
<g id="edge20" class="edge">
<title>v13&#45;&gt;v15</title>
<path fill="none" stroke="black" d="M278.77,-1328.5C284.34,-1322.49 290.45,-1315.25 295.09,-1308 299.77,-1300.7 303.91,-1292.24 307.3,-1284.38"/>
<polygon fill="black" stroke="black" points="310.64,-1285.45 311.18,-1274.87 304.16,-1282.8 310.64,-1285.45"/>
<text text-anchor="middle" x="382.09" y="-1296.8" font-family="Times,serif" font-size="14.00">Sbath_25, Vat_sir_199</text>
</g>
<!-- v16 -->
<g id="node17" class="node">
<title>v16</title>
<ellipse fill="none" stroke="black" cx="252.09" cy="-1170" rx="44.69" ry="18"/>
<text text-anchor="middle" x="252.09" y="-1166.3" font-family="Times,serif" font-size="14.00">المنفوخ</text>
</g>
<!-- v14&#45;&gt;v16 -->
<g id="edge21" class="edge">
<title>v14&#45;&gt;v16</title>
<path fill="none" stroke="black" d="M208.11,-1239.02C207.14,-1228.96 207.32,-1216.23 212.09,-1206 214.43,-1200.98 217.87,-1196.39 221.76,-1192.31"/>
<polygon fill="black" stroke="black" points="224.15,-1194.87 229.13,-1185.52 219.41,-1189.72 224.15,-1194.87"/>
<text text-anchor="middle" x="253.59" y="-1209.8" font-family="Times,serif" font-size="14.00">Vat_sir_424</text>
</g>
<!-- v15&#45;&gt;v16 -->
<g id="edge22" class="edge">
<title>v15&#45;&gt;v16</title>
<path fill="none" stroke="black" d="M311.95,-1239.18C308.29,-1228.94 302.68,-1215.96 295.09,-1206 291.43,-1201.19 286.98,-1196.64 282.34,-1192.5"/>
<polygon fill="black" stroke="black" points="284.4,-1189.67 274.48,-1185.96 279.93,-1195.05 284.4,-1189.67"/>
<text text-anchor="middle" x="383.09" y="-1209.8" font-family="Times,serif" font-size="14.00">Sbath_25, Vat_sir_199</text>
</g>
<!-- v17 -->
<g id="node18" class="node">
<title>v17</title>
<ellipse fill="none" stroke="black" cx="231.09" cy="-1083" rx="30.59" ry="18"/>
<text text-anchor="middle" x="231.09" y="-1079.3" font-family="Times,serif" font-size="14.00">فعند</text>
</g>
<!-- v16&#45;&gt;v17 -->
<g id="edge23" class="edge">
<title>v16&#45;&gt;v17</title>
<path fill="none" stroke="black" d="M240.3,-1152.31C237,-1146.74 233.84,-1140.34 232.09,-1134 230.11,-1126.83 229.34,-1118.87 229.2,-1111.44"/>
<polygon fill="black" stroke="black" points="232.7,-1111.48 229.35,-1101.43 225.7,-1111.37 232.7,-1111.48"/>
<text text-anchor="middle" x="262.59" y="-1122.8" font-family="Times,serif" font-size="14.00">Sbath_25</text>
</g>
<!-- v18 -->
<g id="node19" class="node">
<title>v18</title>
<ellipse fill="none" stroke="black" cx="315.09" cy="-1083" rx="30.59" ry="18"/>
<text text-anchor="middle" x="315.09" y="-1079.3" font-family="Times,serif" font-size="14.00">وعند</text>
</g>
<!-- v16&#45;&gt;v18 -->
<g id="edge24" class="edge">
<title>v16&#45;&gt;v18</title>
<path fill="none" stroke="black" d="M273.41,-1153.87C280.33,-1148.21 287.62,-1141.36 293.09,-1134 298.4,-1126.86 302.77,-1118.23 306.18,-1110.17"/>
<polygon fill="black" stroke="black" points="309.48,-1111.35 309.86,-1100.76 302.96,-1108.8 309.48,-1111.35"/>
<text text-anchor="middle" x="392.59" y="-1122.8" font-family="Times,serif" font-size="14.00">Vat_sir_199, Vat_sir_424</text>
</g>
<!-- v19 -->
<g id="node20" class="node">
<title>v19</title>
<ellipse fill="none" stroke="black" cx="273.09" cy="-996" rx="40.09" ry="18"/>
<text text-anchor="middle" x="273.09" y="-992.3" font-family="Times,serif" font-size="14.00">ذلكهبط</text>
</g>
<!-- v17&#45;&gt;v19 -->
<g id="edge25" class="edge">
<title>v17&#45;&gt;v19</title>
<path fill="none" stroke="black" d="M228.07,-1065C227.08,-1054.94 227.26,-1042.2 232.09,-1032 234.54,-1026.82 238.17,-1022.11 242.27,-1017.95"/>
<polygon fill="black" stroke="black" points="244.86,-1020.33 250,-1011.07 240.2,-1015.1 244.86,-1020.33"/>
<text text-anchor="middle" x="262.59" y="-1035.8" font-family="Times,serif" font-size="14.00">Sbath_25</text>
</g>
<!-- v18&#45;&gt;v19 -->
<g id="edge26" class="edge">
<title>v18&#45;&gt;v19</title>
<path fill="none" stroke="black" d="M308.19,-1065.13C304.05,-1055.34 298.55,-1042.84 293.09,-1032 291.5,-1028.84 289.76,-1025.57 287.98,-1022.34"/>
<polygon fill="black" stroke="black" points="290.98,-1020.53 283.01,-1013.54 284.88,-1023.97 290.98,-1020.53"/>
<text text-anchor="middle" x="391.59" y="-1035.8" font-family="Times,serif" font-size="14.00">Vat_sir_199, Vat_sir_424</text>
</g>
<!-- v20 -->
<g id="node21" class="node">
<title>v20</title>
<ellipse fill="none" stroke="black" cx="177.09" cy="-909" rx="30.59" ry="18"/>
<text text-anchor="middle" x="177.09" y="-905.3" font-family="Times,serif" font-size="14.00">بطنه</text>
</g>
<!-- v19&#45;&gt;v20 -->
<g id="edge27" class="edge">
<title>v19&#45;&gt;v20</title>
<path fill="none" stroke="black" d="M237.38,-987.29C221.19,-982.09 203.03,-973.61 191.09,-960 185.49,-953.62 182.11,-945.16 180.09,-937.02"/>
<polygon fill="black" stroke="black" points="183.5,-936.22 178.17,-927.06 176.62,-937.54 183.5,-936.22"/>
<text text-anchor="middle" x="232.59" y="-948.8" font-family="Times,serif" font-size="14.00">Vat_sir_199</text>
</g>
<!-- v21 -->
<g id="node22" class="node">
<title>v21</title>
<ellipse fill="none" stroke="black" cx="283.09" cy="-909" rx="30.59" ry="18"/>
<text text-anchor="middle" x="283.09" y="-905.3" font-family="Times,serif" font-size="14.00">جوفه</text>
</g>
<!-- v19&#45;&gt;v21 -->
<g id="edge28" class="edge">
<title>v19&#45;&gt;v21</title>
<path fill="none" stroke="black" d="M275.11,-977.8C276.48,-966.16 278.32,-950.55 279.89,-937.24"/>
<polygon fill="black" stroke="black" points="283.38,-937.52 281.07,-927.18 276.42,-936.7 283.38,-937.52"/>
<text text-anchor="middle" x="358.09" y="-948.8" font-family="Times,serif" font-size="14.00">Sbath_25, Vat_sir_424</text>
</g>
<!-- v22 -->
<g id="node23" class="node">
<title>v22</title>
<ellipse fill="none" stroke="black" cx="207.09" cy="-822" rx="79.09" ry="18"/>
<text text-anchor="middle" x="207.09" y="-818.3" font-family="Times,serif" font-size="14.00">وانبعجوماتوحصل</text>
</g>
<!-- v20&#45;&gt;v22 -->
<g id="edge29" class="edge">
<title>v20&#45;&gt;v22</title>
<path fill="none" stroke="black" d="M174.69,-890.81C173.97,-880.92 174.22,-868.42 178.09,-858 179.4,-854.46 181.24,-851.03 183.36,-847.78"/>
<polygon fill="black" stroke="black" points="186.24,-849.77 189.44,-839.67 180.64,-845.56 186.24,-849.77"/>
<text text-anchor="middle" x="219.59" y="-861.8" font-family="Times,serif" font-size="14.00">Vat_sir_199</text>
</g>
<!-- v21&#45;&gt;v22 -->
<g id="edge30" class="edge">
<title>v21&#45;&gt;v22</title>
<path fill="none" stroke="black" d="M278.32,-890.88C274.8,-880.53 269.2,-867.53 261.09,-858 256.91,-853.09 251.87,-848.61 246.56,-844.62"/>
<polygon fill="black" stroke="black" points="248.32,-841.58 238.1,-838.76 244.33,-847.33 248.32,-841.58"/>
<text text-anchor="middle" x="350.09" y="-861.8" font-family="Times,serif" font-size="14.00">Sbath_25, Vat_sir_424</text>
</g>
<!-- v23 -->
<g id="node24" class="node">
<title>v23</title>
<ellipse fill="none" stroke="black" cx="190.09" cy="-735" rx="27" ry="18"/>
<text text-anchor="middle" x="190.09" y="-731.3" font-family="Times,serif" font-size="14.00">فى</text>
</g>
<!-- v22&#45;&gt;v23 -->
<g id="edge31" class="edge">
<title>v22&#45;&gt;v23</title>
<path fill="none" stroke="black" d="M197.66,-804.05C195.02,-798.47 192.49,-792.12 191.09,-786 189.45,-778.83 188.79,-770.94 188.64,-763.58"/>
<polygon fill="black" stroke="black" points="192.14,-763.36 188.72,-753.33 185.14,-763.31 192.14,-763.36"/>
<text text-anchor="middle" x="281.59" y="-774.8" font-family="Times,serif" font-size="14.00">Vat_sir_199, Vat_sir_424</text>
</g>
<!-- v24 -->
<g id="node25" class="node">
<title>v24</title>
<ellipse fill="none" stroke="black" cx="394.09" cy="-735" rx="27" ry="18"/>
<text text-anchor="middle" x="394.09" y="-731.3" font-family="Times,serif" font-size="14.00">في</text>
</g>
<!-- v22&#45;&gt;v24 -->
<g id="edge32" class="edge">
<title>v22&#45;&gt;v24</title>
<path fill="none" stroke="black" d="M275.61,-812.84C314.02,-807.05 357.15,-798.15 372.09,-786 379.28,-780.15 384.19,-771.48 387.51,-762.99"/>
<polygon fill="black" stroke="black" points="390.9,-763.89 390.72,-753.3 384.25,-761.69 390.9,-763.89"/>
<text text-anchor="middle" x="414.59" y="-774.8" font-family="Times,serif" font-size="14.00">Sbath_25</text>
</g>
<!-- v25 -->
<g id="node26" class="node">
<title>v25</title>
<ellipse fill="none" stroke="black" cx="213.09" cy="-648" rx="40.09" ry="18"/>
<text text-anchor="middle" x="213.09" y="-644.3" font-family="Times,serif" font-size="14.00">الجحيم</text>
</g>
<!-- v23&#45;&gt;v25 -->
<g id="edge33" class="edge">
<title>v23&#45;&gt;v25</title>
<path fill="none" stroke="black" d="M188.2,-716.99C187.66,-707.15 187.91,-694.65 191.09,-684 192.11,-680.6 193.55,-677.2 195.23,-673.94"/>
<polygon fill="black" stroke="black" points="198.32,-675.59 200.36,-665.19 192.28,-672.04 198.32,-675.59"/>
<text text-anchor="middle" x="281.59" y="-687.8" font-family="Times,serif" font-size="14.00">Vat_sir_199, Vat_sir_424</text>
</g>
<!-- v24&#45;&gt;v25 -->
<g id="edge34" class="edge">
<title>v24&#45;&gt;v25</title>
<path fill="none" stroke="black" d="M390.7,-716.73C387.65,-705.78 382.07,-692.17 372.09,-684 355.41,-670.33 302.14,-660.53 261.81,-654.83"/>
<polygon fill="black" stroke="black" points="262.25,-651.36 251.87,-653.47 261.3,-658.29 262.25,-651.36"/>
<text text-anchor="middle" x="414.59" y="-687.8" font-family="Times,serif" font-size="14.00">Sbath_25</text>
</g>
<!-- v26 -->
<g id="node27" class="node">
<title>v26</title>
<ellipse fill="none" stroke="black" cx="187.09" cy="-561" rx="83.69" ry="18"/>
<text text-anchor="middle" x="187.09" y="-557.3" font-family="Times,serif" font-size="14.00">وصارفىالهاويَّه</text>
</g>
<!-- v25&#45;&gt;v26 -->
<g id="edge36" class="edge">
<title>v25&#45;&gt;v26</title>
<path fill="none" stroke="black" d="M207.83,-629.8C204.23,-618.05 199.4,-602.24 195.3,-588.84"/>
<polygon fill="black" stroke="black" points="198.62,-587.71 192.34,-579.18 191.92,-589.76 198.62,-587.71"/>
<text text-anchor="middle" x="243.59" y="-600.8" font-family="Times,serif" font-size="14.00">Vat_sir_199</text>
</g>
<!-- v27 -->
<g id="node28" class="node">
<title>v27</title>
<ellipse fill="none" stroke="black" cx="241.09" cy="-474" rx="35.19" ry="18"/>
<text text-anchor="middle" x="241.09" y="-470.3" font-family="Times,serif" font-size="14.00">وكملت</text>
</g>
<!-- v25&#45;&gt;v27 -->
<g id="edge35" class="edge">
<title>v25&#45;&gt;v27</title>
<path fill="none" stroke="black" d="M248.76,-639.32C263.76,-634.18 279.84,-625.74 289.09,-612 314.43,-574.37 314.41,-550.05 293.09,-510 289.17,-502.64 282.94,-496.55 276.13,-491.63"/>
<polygon fill="black" stroke="black" points="277.64,-488.44 267.32,-486.01 273.87,-494.34 277.64,-488.44"/>
<text text-anchor="middle" x="388.09" y="-557.3" font-family="Times,serif" font-size="14.00">Sbath_25, Vat_sir_424</text>
</g>
<!-- v26&#45;&gt;v27 -->
<g id="edge37" class="edge">
<title>v26&#45;&gt;v27</title>
<path fill="none" stroke="black" d="M193.58,-542.68C197.66,-532.74 203.41,-520.24 210.09,-510 212.78,-505.88 215.93,-501.75 219.17,-497.85"/>
<polygon fill="black" stroke="black" points="221.89,-500.06 225.84,-490.23 216.62,-495.45 221.89,-500.06"/>
<text text-anchor="middle" x="251.59" y="-513.8" font-family="Times,serif" font-size="14.00">Vat_sir_199</text>
</g>
<!-- v28 -->
<g id="node29" class="node">
<title>v28</title>
<ellipse fill="none" stroke="black" cx="152.09" cy="-387" rx="40.09" ry="18"/>
<text text-anchor="middle" x="152.09" y="-383.3" font-family="Times,serif" font-size="14.00">القصّه</text>
</g>
<!-- v27&#45;&gt;v28 -->
<g id="edge38" class="edge">
<title>v27&#45;&gt;v28</title>
<path fill="none" stroke="black" d="M213.75,-462.54C201.38,-456.75 187.28,-448.58 177.09,-438 170.6,-431.27 165.46,-422.53 161.56,-414.24"/>
<polygon fill="black" stroke="black" points="164.71,-412.69 157.56,-404.86 158.27,-415.43 164.71,-412.69"/>
<text text-anchor="middle" x="207.59" y="-426.8" font-family="Times,serif" font-size="14.00">Sbath_25</text>
</g>
<!-- v29 -->
<g id="node30" class="node">
<title>v29</title>
<ellipse fill="none" stroke="black" cx="245.09" cy="-387" rx="35.19" ry="18"/>
<text text-anchor="middle" x="245.09" y="-383.3" font-family="Times,serif" font-size="14.00">القصه</text>
</g>
<!-- v27&#45;&gt;v29 -->
<g id="edge39" class="edge">
<title>v27&#45;&gt;v29</title>
<path fill="none" stroke="black" d="M241.16,-455.87C241.26,-446.21 241.51,-433.92 242.09,-423 242.23,-420.44 242.4,-417.78 242.59,-415.12"/>
<polygon fill="black" stroke="black" points="246.08,-415.32 243.4,-405.07 239.11,-414.76 246.08,-415.32"/>
<text text-anchor="middle" x="283.59" y="-426.8" font-family="Times,serif" font-size="14.00">Vat_sir_424</text>
</g>
<!-- v30 -->
<g id="node31" class="node">
<title>v30</title>
<ellipse fill="none" stroke="black" cx="347.09" cy="-387" rx="44.69" ry="18"/>
<text text-anchor="middle" x="347.09" y="-383.3" font-family="Times,serif" font-size="14.00">القصَّه</text>
</g>
<!-- v27&#45;&gt;v30 -->
<g id="edge40" class="edge">
<title>v27&#45;&gt;v30</title>
<path fill="none" stroke="black" d="M272.67,-466C289.98,-460.77 310.76,-452.05 325.09,-438 331.61,-431.61 336.34,-422.95 339.7,-414.63"/>
<polygon fill="black" stroke="black" points="343.01,-415.78 343.05,-405.18 336.41,-413.44 343.01,-415.78"/>
<text text-anchor="middle" x="377.59" y="-426.8" font-family="Times,serif" font-size="14.00">Vat_sir_199</text>
</g>
<!-- v31 -->
<g id="node32" class="node">
<title>v31</title>
<ellipse fill="none" stroke="black" cx="241.09" cy="-300" rx="83.69" ry="18"/>
<text text-anchor="middle" x="241.09" y="-296.3" font-family="Times,serif" font-size="14.00">والحكايهعننادان</text>
</g>
<!-- v28&#45;&gt;v31 -->
<g id="edge41" class="edge">
<title>v28&#45;&gt;v31</title>
<path fill="none" stroke="black" d="M157.56,-369.14C161.64,-358.62 168.06,-345.36 177.09,-336 182.35,-330.55 188.64,-325.73 195.2,-321.55"/>
<polygon fill="black" stroke="black" points="197.38,-324.33 204.24,-316.25 193.84,-318.29 197.38,-324.33"/>
<text text-anchor="middle" x="207.59" y="-339.8" font-family="Times,serif" font-size="14.00">Sbath_25</text>
</g>
<!-- v29&#45;&gt;v31 -->
<g id="edge42" class="edge">
<title>v29&#45;&gt;v31</title>
<path fill="none" stroke="black" d="M243.4,-368.93C242.9,-363.23 242.4,-356.85 242.09,-351 241.7,-343.66 241.46,-335.71 241.31,-328.35"/>
<polygon fill="black" stroke="black" points="244.81,-328.08 241.16,-318.13 237.81,-328.19 244.81,-328.08"/>
<text text-anchor="middle" x="283.59" y="-339.8" font-family="Times,serif" font-size="14.00">Vat_sir_424</text>
</g>
<!-- v30&#45;&gt;v31 -->
<g id="edge43" class="edge">
<title>v30&#45;&gt;v31</title>
<path fill="none" stroke="black" d="M343.05,-368.82C339.77,-358.18 334.16,-344.9 325.09,-336 317.98,-329.03 309.29,-323.37 300.21,-318.8"/>
<polygon fill="black" stroke="black" points="301.61,-315.59 291.06,-314.59 298.68,-321.95 301.61,-315.59"/>
<text text-anchor="middle" x="377.59" y="-339.8" font-family="Times,serif" font-size="14.00">Vat_sir_199</text>
</g>
<!-- v32 -->
<g id="node33" class="node">
<title>v32</title>
<ellipse fill="none" stroke="black" cx="113.09" cy="-159" rx="113.18" ry="18"/>
<text text-anchor="middle" x="113.09" y="-155.3" font-family="Times,serif" font-size="14.00">وعنحيقارخالهوماجرالهم</text>
</g>
<!-- v31&#45;&gt;v32 -->
<g id="edge44" class="edge">
<title>v31&#45;&gt;v32</title>
<path fill="none" stroke="black" d="M202.6,-283.98C192.23,-278.72 181.55,-272.06 173.09,-264 150.09,-242.08 133.21,-209.38 123.31,-186.52"/>
<polygon fill="black" stroke="black" points="126.46,-184.97 119.38,-177.09 119.99,-187.66 126.46,-184.97"/>
<text text-anchor="middle" x="214.59" y="-252.8" font-family="Times,serif" font-size="14.00">Vat_sir_199</text>
</g>
<!-- v33 -->
<g id="node34" class="node">
<title>v33</title>
<ellipse fill="none" stroke="black" cx="283.09" cy="-213" rx="40.09" ry="18"/>
<text text-anchor="middle" x="283.09" y="-209.3" font-family="Times,serif" font-size="14.00">وحيقار</text>
</g>
<!-- v31&#45;&gt;v33 -->
<g id="edge45" class="edge">
<title>v31&#45;&gt;v33</title>
<path fill="none" stroke="black" d="M249.59,-281.8C255.49,-269.85 263.47,-253.72 270.15,-240.18"/>
<polygon fill="black" stroke="black" points="273.45,-241.4 274.75,-230.89 267.18,-238.3 273.45,-241.4"/>
<text text-anchor="middle" x="344.09" y="-252.8" font-family="Times,serif" font-size="14.00">Sbath_25, Vat_sir_424</text>
</g>
<!-- v32&#45;&gt;v35 -->
<g id="edge46" class="edge">
<title>v32&#45;&gt;v35</title>
<path fill="none" stroke="black" d="M98.63,-140.99C87.36,-125.58 75.54,-102.9 88.09,-87 118.48,-48.48 265.28,-29.33 335.07,-22.29"/>
<polygon fill="black" stroke="black" points="335.58,-25.75 345.19,-21.3 334.89,-18.79 335.58,-25.75"/>
<text text-anchor="middle" x="129.59" y="-101.3" font-family="Times,serif" font-size="14.00">Vat_sir_199</text>
</g>
<!-- v34 -->
<g id="node35" class="node">
<title>v34</title>
<ellipse fill="none" stroke="black" cx="283.09" cy="-105" rx="103.18" ry="18"/>
<text text-anchor="middle" x="283.09" y="-101.3" font-family="Times,serif" font-size="14.00">والسبحللهدايماابدًا</text>
</g>
<!-- v33&#45;&gt;v34 -->
<g id="edge48" class="edge">
<title>v33&#45;&gt;v34</title>
<path fill="none" stroke="black" d="M283.09,-194.97C283.09,-178.38 283.09,-152.88 283.09,-133.43"/>
<polygon fill="black" stroke="black" points="286.59,-133.34 283.09,-123.34 279.59,-133.34 286.59,-133.34"/>
<text text-anchor="middle" x="324.59" y="-155.3" font-family="Times,serif" font-size="14.00">Vat_sir_424</text>
</g>
<!-- v33&#45;&gt;v35 -->
<g id="edge47" class="edge">
<title>v33&#45;&gt;v35</title>
<path fill="none" stroke="black" d="M318.67,-204.26C335.93,-198.99 355.93,-190.46 370.09,-177 411.57,-137.59 430.36,-106.71 408.09,-54 405.7,-48.34 401.9,-43.15 397.64,-38.59"/>
<polygon fill="black" stroke="black" points="399.88,-35.89 390.22,-31.55 395.07,-40.97 399.88,-35.89"/>
<text text-anchor="middle" x="448.59" y="-101.3" font-family="Times,serif" font-size="14.00">Sbath_25</text>
</g>
<!-- v34&#45;&gt;v35 -->
<g id="edge49" class="edge">
<title>v34&#45;&gt;v35</title>
<path fill="none" stroke="black" d="M295.81,-86.93C303.71,-76.85 314.37,-64.11 325.09,-54 331.23,-48.21 338.33,-42.49 345.12,-37.42"/>
<polygon fill="black" stroke="black" points="347.42,-40.07 353.46,-31.37 343.31,-34.41 347.42,-40.07"/>
<text text-anchor="middle" x="366.59" y="-57.8" font-family="Times,serif" font-size="14.00">Vat_sir_424</text>
</g>
</g>
</svg>
