<?xml version="1.0" encoding="UTF-8" standalone="no"?>
<!DOCTYPE svg PUBLIC "-//W3C//DTD SVG 1.1//EN"
 "http://www.w3.org/Graphics/SVG/1.1/DTD/svg11.dtd">
<!-- Generated by graphviz version 2.44.0 ()
 -->
<!-- Title: G Pages: 1 -->
<svg width="1501pt" height="2324pt"
 viewBox="0.00 0.00 1501.00 2324.00" xmlns="http://www.w3.org/2000/svg" xmlns:xlink="http://www.w3.org/1999/xlink">
<g id="graph0" class="graph" transform="scale(1 1) rotate(0) translate(4 2320)">
<title>G</title>
<polygon fill="white" stroke="transparent" points="-4,4 -4,-2320 1497,-2320 1497,4 -4,4"/>
<!-- v0 -->
<g id="node1" class="node">
<title>v0</title>
<ellipse fill="none" stroke="black" cx="1326" cy="-2298" rx="27" ry="18"/>
</g>
<!-- v1 -->
<g id="node2" class="node">
<title>v1</title>
<ellipse fill="none" stroke="black" cx="263" cy="-2157" rx="40.09" ry="18"/>
<text text-anchor="middle" x="263" y="-2153.3" font-family="Times,serif" font-size="14.00">omisit</text>
</g>
<!-- v0&#45;&gt;v1 -->
<g id="edge2" class="edge">
<title>v0&#45;&gt;v1</title>
<path fill="none" stroke="black" d="M1299.72,-2293.56C1159.23,-2275.19 496.2,-2188.49 311.1,-2164.29"/>
<polygon fill="black" stroke="black" points="311.49,-2160.81 301.12,-2162.98 310.58,-2167.75 311.49,-2160.81"/>
<text text-anchor="middle" x="1103.5" y="-2250.8" font-family="Times,serif" font-size="14.00">430, syr_434</text>
</g>
<!-- v2 -->
<g id="node3" class="node">
<title>v2</title>
<ellipse fill="none" stroke="black" cx="1258" cy="-2211" rx="69.59" ry="18"/>
<text text-anchor="middle" x="1258" y="-2207.3" font-family="Times,serif" font-size="14.00">ܘܟܕܫܡܥܕܝܢܢܕܢ</text>
</g>
<!-- v0&#45;&gt;v2 -->
<g id="edge3" class="edge">
<title>v0&#45;&gt;v2</title>
<path fill="none" stroke="black" d="M1301.16,-2290.91C1286.18,-2285.84 1268.26,-2276.95 1259,-2262 1254.91,-2255.4 1253.56,-2247.32 1253.53,-2239.59"/>
<polygon fill="black" stroke="black" points="1257.03,-2239.64 1254.17,-2229.44 1250.04,-2239.2 1257.03,-2239.64"/>
<text text-anchor="middle" x="1319.5" y="-2250.8" font-family="Times,serif" font-size="14.00">syr_422, syr_611</text>
</g>
<!-- v5 -->
<g id="node6" class="node">
<title>v5</title>
<ellipse fill="none" stroke="black" cx="1326" cy="-2016" rx="30.59" ry="18"/>
<text text-anchor="middle" x="1326" y="-2012.3" font-family="Times,serif" font-size="14.00">ܡ̈ܠܐ</text>
</g>
<!-- v0&#45;&gt;v5 -->
<g id="edge1" class="edge">
<title>v0&#45;&gt;v5</title>
<path fill="none" stroke="black" d="M1348.99,-2288.39C1360.51,-2282.76 1373.38,-2274.17 1380,-2262 1424.57,-2180 1424.57,-2134 1380,-2052 1375.42,-2043.57 1367.83,-2036.85 1359.76,-2031.65"/>
<polygon fill="black" stroke="black" points="1361.37,-2028.53 1350.95,-2026.59 1357.88,-2034.61 1361.37,-2028.53"/>
<text text-anchor="middle" x="1439.5" y="-2153.3" font-family="Times,serif" font-size="14.00">syr_612</text>
</g>
<!-- v37 -->
<g id="node38" class="node">
<title>v37</title>
<ellipse fill="none" stroke="black" cx="902" cy="-18" rx="27" ry="18"/>
</g>
<!-- v0&#45;&gt;v37 -->
<g id="edge54" class="edge">
<title>v0&#45;&gt;v37</title>
<path fill="none" stroke="white" d="M1352.83,-2295.36C1400.04,-2290.87 1493,-2274.14 1493,-2212 1493,-2212 1493,-2212 1493,-104 1493,-97.23 1419.7,-67.3 1358,-54 1205.29,-21.09 1017.97,-18.09 939.44,-18.47"/>
<polygon fill="white" stroke="white" points="939.07,-14.97 929.09,-18.54 939.12,-21.97 939.07,-14.97"/>
</g>
<!-- v1&#45;&gt;v37 -->
<g id="edge4" class="edge">
<title>v1&#45;&gt;v37</title>
<path fill="none" stroke="black" d="M225.32,-2150.38C152.6,-2138.48 0,-2107.86 0,-2060.5 0,-2060.5 0,-2060.5 0,-104 0,-15.65 694.8,-16.91 864.8,-18.54"/>
<polygon fill="black" stroke="black" points="864.97,-22.04 875,-18.64 865.04,-15.04 864.97,-22.04"/>
<text text-anchor="middle" x="45.5" y="-1100.3" font-family="Times,serif" font-size="14.00">430, syr_434</text>
</g>
<!-- v3 -->
<g id="node4" class="node">
<title>v3</title>
<ellipse fill="none" stroke="black" cx="1239" cy="-2103" rx="40.09" ry="18"/>
<text text-anchor="middle" x="1239" y="-2099.3" font-family="Times,serif" font-size="14.00">ܢܕܣܟܠܐ</text>
</g>
<!-- v2&#45;&gt;v3 -->
<g id="edge5" class="edge">
<title>v2&#45;&gt;v3</title>
<path fill="none" stroke="black" d="M1248.65,-2193.03C1246.01,-2187.45 1243.47,-2181.11 1242,-2175 1238.59,-2160.8 1237.69,-2144.55 1237.71,-2131.19"/>
<polygon fill="black" stroke="black" points="1241.21,-2131.24 1237.9,-2121.18 1234.21,-2131.12 1241.21,-2131.24"/>
<text text-anchor="middle" x="1268.5" y="-2153.3" font-family="Times,serif" font-size="14.00">syr_422</text>
</g>
<!-- v4 -->
<g id="node5" class="node">
<title>v4</title>
<ellipse fill="none" stroke="black" cx="1328" cy="-2103" rx="30.59" ry="18"/>
<text text-anchor="middle" x="1328" y="-2099.3" font-family="Times,serif" font-size="14.00">ܣܟܠܐ</text>
</g>
<!-- v2&#45;&gt;v4 -->
<g id="edge6" class="edge">
<title>v2&#45;&gt;v4</title>
<path fill="none" stroke="black" d="M1278.25,-2193.44C1284.13,-2187.98 1290.25,-2181.6 1295,-2175 1304.84,-2161.33 1312.89,-2144.26 1318.57,-2130.28"/>
<polygon fill="black" stroke="black" points="1321.92,-2131.33 1322.28,-2120.74 1315.4,-2128.79 1321.92,-2131.33"/>
<text text-anchor="middle" x="1340.5" y="-2153.3" font-family="Times,serif" font-size="14.00">syr_611</text>
</g>
<!-- v3&#45;&gt;v5 -->
<g id="edge7" class="edge">
<title>v3&#45;&gt;v5</title>
<path fill="none" stroke="black" d="M1246.68,-2084.86C1251.92,-2074.49 1259.6,-2061.5 1269,-2052 1276.21,-2044.71 1285.24,-2038.29 1293.96,-2032.99"/>
<polygon fill="black" stroke="black" points="1295.91,-2035.91 1302.85,-2027.9 1292.43,-2029.83 1295.91,-2035.91"/>
<text text-anchor="middle" x="1295.5" y="-2055.8" font-family="Times,serif" font-size="14.00">syr_422</text>
</g>
<!-- v4&#45;&gt;v5 -->
<g id="edge8" class="edge">
<title>v4&#45;&gt;v5</title>
<path fill="none" stroke="black" d="M1327.48,-2084.91C1327.32,-2079.21 1327.14,-2072.83 1327,-2067 1326.82,-2059.65 1326.65,-2051.7 1326.5,-2044.34"/>
<polygon fill="black" stroke="black" points="1330,-2044.06 1326.31,-2034.13 1323,-2044.19 1330,-2044.06"/>
<text text-anchor="middle" x="1353.5" y="-2055.8" font-family="Times,serif" font-size="14.00">syr_611</text>
</g>
<!-- v6 -->
<g id="node7" class="node">
<title>v6</title>
<ellipse fill="none" stroke="black" cx="1195" cy="-1929" rx="35.19" ry="18"/>
<text text-anchor="middle" x="1195" y="-1925.3" font-family="Times,serif" font-size="14.00">ܗܠܝܢ܂</text>
</g>
<!-- v5&#45;&gt;v6 -->
<g id="edge9" class="edge">
<title>v5&#45;&gt;v6</title>
<path fill="none" stroke="black" d="M1296.29,-2011.15C1261.87,-2006.01 1208.28,-1995.69 1196,-1980 1191.02,-1973.63 1189.53,-1965.27 1189.65,-1957.22"/>
<polygon fill="black" stroke="black" points="1193.16,-1957.28 1190.58,-1947 1186.19,-1956.64 1193.16,-1957.28"/>
<text text-anchor="middle" x="1256.5" y="-1968.8" font-family="Times,serif" font-size="14.00">syr_611, syr_612</text>
</g>
<!-- v7 -->
<g id="node8" class="node">
<title>v7</title>
<ellipse fill="none" stroke="black" cx="1339" cy="-1875" rx="30.59" ry="18"/>
<text text-anchor="middle" x="1339" y="-1871.3" font-family="Times,serif" font-size="14.00">ܗܠܝܢ</text>
</g>
<!-- v5&#45;&gt;v7 -->
<g id="edge10" class="edge">
<title>v5&#45;&gt;v7</title>
<path fill="none" stroke="black" d="M1327.59,-1997.96C1329.81,-1974.3 1333.83,-1931.26 1336.46,-1903.15"/>
<polygon fill="black" stroke="black" points="1339.95,-1903.47 1337.39,-1893.18 1332.98,-1902.81 1339.95,-1903.47"/>
<text text-anchor="middle" x="1356.5" y="-1968.8" font-family="Times,serif" font-size="14.00">syr_422</text>
</g>
<!-- v8 -->
<g id="node9" class="node">
<title>v8</title>
<ellipse fill="none" stroke="black" cx="1150" cy="-1821" rx="44.69" ry="18"/>
<text text-anchor="middle" x="1150" y="-1817.3" font-family="Times,serif" font-size="14.00">unclear</text>
</g>
<!-- v6&#45;&gt;v8 -->
<g id="edge12" class="edge">
<title>v6&#45;&gt;v8</title>
<path fill="none" stroke="black" d="M1178.51,-1912.95C1173.12,-1907.21 1167.6,-1900.27 1164,-1893 1157.31,-1879.5 1153.82,-1863.06 1151.99,-1849.41"/>
<polygon fill="black" stroke="black" points="1155.44,-1848.71 1150.86,-1839.16 1148.48,-1849.48 1155.44,-1848.71"/>
<text text-anchor="middle" x="1190.5" y="-1871.3" font-family="Times,serif" font-size="14.00">syr_612</text>
</g>
<!-- v9 -->
<g id="node10" class="node">
<title>v9</title>
<ellipse fill="none" stroke="black" cx="1203" cy="-1734" rx="35.19" ry="18"/>
<text text-anchor="middle" x="1203" y="-1730.3" font-family="Times,serif" font-size="14.00">ܐܬܢܦܚ</text>
</g>
<!-- v6&#45;&gt;v9 -->
<g id="edge11" class="edge">
<title>v6&#45;&gt;v9</title>
<path fill="none" stroke="black" d="M1207.57,-1912.18C1211.37,-1906.47 1215.05,-1899.76 1217,-1893 1232.14,-1840.47 1227.34,-1823.68 1217,-1770 1216.44,-1767.11 1215.65,-1764.15 1214.72,-1761.24"/>
<polygon fill="black" stroke="black" points="1217.94,-1759.85 1211.18,-1751.7 1211.37,-1762.29 1217.94,-1759.85"/>
<text text-anchor="middle" x="1252.5" y="-1817.3" font-family="Times,serif" font-size="14.00">syr_611</text>
</g>
<!-- v10 -->
<g id="node11" class="node">
<title>v10</title>
<ellipse fill="none" stroke="black" cx="1204" cy="-1647" rx="27" ry="18"/>
<text text-anchor="middle" x="1204" y="-1643.3" font-family="Times,serif" font-size="14.00">ܒܪ</text>
</g>
<!-- v7&#45;&gt;v10 -->
<g id="edge13" class="edge">
<title>v7&#45;&gt;v10</title>
<path fill="none" stroke="black" d="M1343.49,-1857.18C1352.09,-1820.87 1366.56,-1734.27 1325,-1683 1305.04,-1658.37 1268.88,-1650.41 1241.27,-1648.14"/>
<polygon fill="black" stroke="black" points="1241.35,-1644.64 1231.16,-1647.53 1240.93,-1651.63 1241.35,-1644.64"/>
<text text-anchor="middle" x="1379.5" y="-1773.8" font-family="Times,serif" font-size="14.00">syr_422</text>
</g>
<!-- v8&#45;&gt;v9 -->
<g id="edge14" class="edge">
<title>v8&#45;&gt;v9</title>
<path fill="none" stroke="black" d="M1152.34,-1802.82C1154.3,-1792.69 1157.81,-1779.95 1164,-1770 1167.14,-1764.95 1171.22,-1760.2 1175.55,-1755.92"/>
<polygon fill="black" stroke="black" points="1177.9,-1758.51 1182.96,-1749.2 1173.2,-1753.33 1177.9,-1758.51"/>
<text text-anchor="middle" x="1190.5" y="-1773.8" font-family="Times,serif" font-size="14.00">syr_612</text>
</g>
<!-- v9&#45;&gt;v10 -->
<g id="edge15" class="edge">
<title>v9&#45;&gt;v10</title>
<path fill="none" stroke="black" d="M1203.2,-1715.8C1203.34,-1704.16 1203.52,-1688.55 1203.68,-1675.24"/>
<polygon fill="black" stroke="black" points="1207.18,-1675.22 1203.8,-1665.18 1200.18,-1675.13 1207.18,-1675.22"/>
<text text-anchor="middle" x="1264.5" y="-1686.8" font-family="Times,serif" font-size="14.00">syr_611, syr_612</text>
</g>
<!-- v11 -->
<g id="node12" class="node">
<title>v11</title>
<ellipse fill="none" stroke="black" cx="1123" cy="-1560" rx="59.59" ry="18"/>
<text text-anchor="middle" x="1123" y="-1556.3" font-family="Times,serif" font-size="14.00">ܫܥܬܗܐܬܢܦܚ܂</text>
</g>
<!-- v10&#45;&gt;v11 -->
<g id="edge16" class="edge">
<title>v10&#45;&gt;v11</title>
<path fill="none" stroke="black" d="M1186.45,-1633.25C1178.32,-1626.96 1168.76,-1619.03 1161,-1611 1153.69,-1603.44 1146.49,-1594.47 1140.36,-1586.24"/>
<polygon fill="black" stroke="black" points="1143.1,-1584.05 1134.39,-1578.01 1137.43,-1588.16 1143.1,-1584.05"/>
<text text-anchor="middle" x="1187.5" y="-1599.8" font-family="Times,serif" font-size="14.00">syr_422</text>
</g>
<!-- v12 -->
<g id="node13" class="node">
<title>v12</title>
<ellipse fill="none" stroke="black" cx="1236" cy="-1560" rx="35.19" ry="18"/>
<text text-anchor="middle" x="1236" y="-1556.3" font-family="Times,serif" font-size="14.00">ܫܥܬܗ܂</text>
</g>
<!-- v10&#45;&gt;v12 -->
<g id="edge17" class="edge">
<title>v10&#45;&gt;v12</title>
<path fill="none" stroke="black" d="M1210.32,-1629.21C1214.84,-1617.22 1221,-1600.85 1226.15,-1587.16"/>
<polygon fill="black" stroke="black" points="1229.44,-1588.35 1229.69,-1577.76 1222.89,-1585.88 1229.44,-1588.35"/>
<text text-anchor="middle" x="1281.5" y="-1599.8" font-family="Times,serif" font-size="14.00">syr_611, syr_612</text>
</g>
<!-- v14 -->
<g id="node15" class="node">
<title>v14</title>
<ellipse fill="none" stroke="black" cx="1131" cy="-1473" rx="35.19" ry="18"/>
<text text-anchor="middle" x="1131" y="-1469.3" font-family="Times,serif" font-size="14.00">ܘܗܘ̤ܐ</text>
</g>
<!-- v11&#45;&gt;v14 -->
<g id="edge18" class="edge">
<title>v11&#45;&gt;v14</title>
<path fill="none" stroke="black" d="M1122.59,-1541.83C1122.55,-1532.16 1122.81,-1519.88 1124,-1509 1124.28,-1506.41 1124.66,-1503.73 1125.1,-1501.06"/>
<polygon fill="black" stroke="black" points="1128.58,-1501.47 1126.97,-1491 1121.7,-1500.18 1128.58,-1501.47"/>
<text text-anchor="middle" x="1150.5" y="-1512.8" font-family="Times,serif" font-size="14.00">syr_422</text>
</g>
<!-- v13 -->
<g id="node14" class="node">
<title>v13</title>
<ellipse fill="none" stroke="black" cx="1275" cy="-1473" rx="30.59" ry="18"/>
<text text-anchor="middle" x="1275" y="-1469.3" font-family="Times,serif" font-size="14.00">ܘܗܘܐ</text>
</g>
<!-- v12&#45;&gt;v13 -->
<g id="edge19" class="edge">
<title>v12&#45;&gt;v13</title>
<path fill="none" stroke="black" d="M1244.26,-1542.33C1247.08,-1536.55 1250.22,-1530.01 1253,-1524 1256.58,-1516.25 1260.37,-1507.77 1263.77,-1500.03"/>
<polygon fill="black" stroke="black" points="1267.03,-1501.3 1267.82,-1490.74 1260.62,-1498.5 1267.03,-1501.3"/>
<text text-anchor="middle" x="1285.5" y="-1512.8" font-family="Times,serif" font-size="14.00">syr_612</text>
</g>
<!-- v12&#45;&gt;v14 -->
<g id="edge20" class="edge">
<title>v12&#45;&gt;v14</title>
<path fill="none" stroke="black" d="M1218.9,-1544.1C1207.23,-1534.03 1191.34,-1520.52 1177,-1509 1171.08,-1504.25 1164.65,-1499.25 1158.52,-1494.56"/>
<polygon fill="black" stroke="black" points="1160.5,-1491.68 1150.42,-1488.42 1156.27,-1497.25 1160.5,-1491.68"/>
<text text-anchor="middle" x="1222.5" y="-1512.8" font-family="Times,serif" font-size="14.00">syr_611</text>
</g>
<!-- v15 -->
<g id="node16" class="node">
<title>v15</title>
<ellipse fill="none" stroke="black" cx="1183" cy="-1386" rx="27" ry="18"/>
<text text-anchor="middle" x="1183" y="-1382.3" font-family="Times,serif" font-size="14.00">ܐܝܟ</text>
</g>
<!-- v13&#45;&gt;v15 -->
<g id="edge21" class="edge">
<title>v13&#45;&gt;v15</title>
<path fill="none" stroke="black" d="M1270.74,-1455.03C1267.38,-1444.47 1261.76,-1431.2 1253,-1422 1243,-1411.49 1229.16,-1403.66 1216.43,-1398.1"/>
<polygon fill="black" stroke="black" points="1217.57,-1394.79 1206.99,-1394.29 1214.95,-1401.28 1217.57,-1394.79"/>
<text text-anchor="middle" x="1289.5" y="-1425.8" font-family="Times,serif" font-size="14.00">syr_612</text>
</g>
<!-- v14&#45;&gt;v15 -->
<g id="edge22" class="edge">
<title>v14&#45;&gt;v15</title>
<path fill="none" stroke="black" d="M1127.59,-1454.81C1126.47,-1444.67 1126.64,-1431.93 1132,-1422 1136.53,-1413.6 1144.06,-1406.82 1151.96,-1401.54"/>
<polygon fill="black" stroke="black" points="1153.77,-1404.53 1160.56,-1396.39 1150.18,-1398.52 1153.77,-1404.53"/>
<text text-anchor="middle" x="1192.5" y="-1425.8" font-family="Times,serif" font-size="14.00">syr_422, syr_611</text>
</g>
<!-- v16 -->
<g id="node17" class="node">
<title>v16</title>
<ellipse fill="none" stroke="black" cx="840" cy="-1299" rx="69.59" ry="18"/>
<text text-anchor="middle" x="840" y="-1295.3" font-family="Times,serif" font-size="14.00">ܙܩܐܕܢܦܝܚܘܐܒܕ</text>
</g>
<!-- v15&#45;&gt;v16 -->
<g id="edge23" class="edge">
<title>v15&#45;&gt;v16</title>
<path fill="none" stroke="black" d="M1158.06,-1378.82C1103.91,-1365.4 974.38,-1333.3 898.37,-1314.46"/>
<polygon fill="black" stroke="black" points="899.01,-1311.02 888.47,-1312.01 897.33,-1317.81 899.01,-1311.02"/>
<text text-anchor="middle" x="1093.5" y="-1338.8" font-family="Times,serif" font-size="14.00">syr_611, syr_612</text>
</g>
<!-- v17 -->
<g id="node18" class="node">
<title>v17</title>
<ellipse fill="none" stroke="black" cx="1187" cy="-1245" rx="288.65" ry="18"/>
<text text-anchor="middle" x="1187" y="-1241.3" font-family="Times,serif" font-size="14.00">ܓܪܒܐܕܢܦܝܚ܂ܘܗܘ̤ܬܚܪܬܗܠܐܒܕܢܐܘܐܙܠܠܓܗܢܐ܂ܒܕܐܡܝܪܗܟܝܠܒܟܬܒܐܕܡܬ̈ܠܐ܂</text>
</g>
<!-- v15&#45;&gt;v17 -->
<g id="edge24" class="edge">
<title>v15&#45;&gt;v17</title>
<path fill="none" stroke="black" d="M1183.49,-1367.96C1184.17,-1344.4 1185.4,-1301.64 1186.21,-1273.53"/>
<polygon fill="black" stroke="black" points="1189.72,-1273.28 1186.51,-1263.18 1182.72,-1273.08 1189.72,-1273.28"/>
<text text-anchor="middle" x="1211.5" y="-1338.8" font-family="Times,serif" font-size="14.00">syr_422</text>
</g>
<!-- v18 -->
<g id="node19" class="node">
<title>v18</title>
<ellipse fill="none" stroke="black" cx="764" cy="-1191" rx="93.68" ry="18"/>
<text text-anchor="middle" x="764" y="-1187.3" font-family="Times,serif" font-size="14.00">ܘܐܬܦܪܬܕܦܢܬܗ̈ܘܡܝܬ܂</text>
</g>
<!-- v16&#45;&gt;v18 -->
<g id="edge25" class="edge">
<title>v16&#45;&gt;v18</title>
<path fill="none" stroke="black" d="M792.8,-1285.56C781.88,-1280.39 771.56,-1273.13 765,-1263 756.78,-1250.3 756.22,-1233.46 757.85,-1219.37"/>
<polygon fill="black" stroke="black" points="761.35,-1219.66 759.44,-1209.24 754.43,-1218.58 761.35,-1219.66"/>
<text text-anchor="middle" x="791.5" y="-1241.3" font-family="Times,serif" font-size="14.00">syr_612</text>
</g>
<!-- v19 -->
<g id="node20" class="node">
<title>v19</title>
<ellipse fill="none" stroke="black" cx="974" cy="-1191" rx="98.58" ry="18"/>
<text text-anchor="middle" x="974" y="-1187.3" font-family="Times,serif" font-size="14.00">ܘܐܬܦܪܬܘܕܦܢ̈ܬܗܘܡܝܬ܂</text>
</g>
<!-- v16&#45;&gt;v19 -->
<g id="edge26" class="edge">
<title>v16&#45;&gt;v19</title>
<path fill="none" stroke="black" d="M833.23,-1280.92C828.25,-1265.24 824.17,-1242.2 836,-1227 843.34,-1217.57 864.81,-1210.27 888.71,-1204.84"/>
<polygon fill="black" stroke="black" points="889.64,-1208.22 898.69,-1202.7 888.18,-1201.37 889.64,-1208.22"/>
<text text-anchor="middle" x="862.5" y="-1241.3" font-family="Times,serif" font-size="14.00">syr_611</text>
</g>
<!-- v23 -->
<g id="node24" class="node">
<title>v23</title>
<ellipse fill="none" stroke="black" cx="1077" cy="-930" rx="35.19" ry="18"/>
<text text-anchor="middle" x="1077" y="-926.3" font-family="Times,serif" font-size="14.00">ܕܢܥܒܕ</text>
</g>
<!-- v17&#45;&gt;v23 -->
<g id="edge27" class="edge">
<title>v17&#45;&gt;v23</title>
<path fill="none" stroke="black" d="M1180.93,-1227C1174.72,-1208.09 1166,-1176.51 1166,-1148.5 1166,-1148.5 1166,-1148.5 1166,-1016 1166,-984.79 1137.03,-961.53 1112.14,-947.3"/>
<polygon fill="black" stroke="black" points="1113.68,-944.15 1103.22,-942.47 1110.35,-950.31 1113.68,-944.15"/>
<text text-anchor="middle" x="1192.5" y="-1100.3" font-family="Times,serif" font-size="14.00">syr_422</text>
</g>
<!-- v20 -->
<g id="node21" class="node">
<title>v20</title>
<ellipse fill="none" stroke="black" cx="974" cy="-1104" rx="54.69" ry="18"/>
<text text-anchor="middle" x="974" y="-1100.3" font-family="Times,serif" font-size="14.00">ܐܟܡܐܕܐܡܝܪ</text>
</g>
<!-- v18&#45;&gt;v20 -->
<g id="edge28" class="edge">
<title>v18&#45;&gt;v20</title>
<path fill="none" stroke="black" d="M802.52,-1174.41C838.93,-1159.67 893.46,-1137.6 931.22,-1122.32"/>
<polygon fill="black" stroke="black" points="932.95,-1125.39 940.91,-1118.39 930.33,-1118.9 932.95,-1125.39"/>
<text text-anchor="middle" x="908.5" y="-1143.8" font-family="Times,serif" font-size="14.00">syr_612</text>
</g>
<!-- v19&#45;&gt;v20 -->
<g id="edge29" class="edge">
<title>v19&#45;&gt;v20</title>
<path fill="none" stroke="black" d="M974,-1172.8C974,-1161.16 974,-1145.55 974,-1132.24"/>
<polygon fill="black" stroke="black" points="977.5,-1132.18 974,-1122.18 970.5,-1132.18 977.5,-1132.18"/>
<text text-anchor="middle" x="1000.5" y="-1143.8" font-family="Times,serif" font-size="14.00">syr_611</text>
</g>
<!-- v21 -->
<g id="node22" class="node">
<title>v21</title>
<ellipse fill="none" stroke="black" cx="974" cy="-1017" rx="44.69" ry="18"/>
<text text-anchor="middle" x="974" y="-1013.3" font-family="Times,serif" font-size="14.00">ܒܡܬ̈ܠܐ܂</text>
</g>
<!-- v20&#45;&gt;v21 -->
<g id="edge30" class="edge">
<title>v20&#45;&gt;v21</title>
<path fill="none" stroke="black" d="M974,-1085.8C974,-1074.16 974,-1058.55 974,-1045.24"/>
<polygon fill="black" stroke="black" points="977.5,-1045.18 974,-1035.18 970.5,-1045.18 977.5,-1045.18"/>
<text text-anchor="middle" x="1000.5" y="-1056.8" font-family="Times,serif" font-size="14.00">syr_611</text>
</g>
<!-- v22 -->
<g id="node23" class="node">
<title>v22</title>
<ellipse fill="none" stroke="black" cx="1077" cy="-1017" rx="40.09" ry="18"/>
<text text-anchor="middle" x="1077" y="-1013.3" font-family="Times,serif" font-size="14.00">ܒܡܬܠܐ܇</text>
</g>
<!-- v20&#45;&gt;v22 -->
<g id="edge31" class="edge">
<title>v20&#45;&gt;v22</title>
<path fill="none" stroke="black" d="M1001.43,-1088.24C1011.16,-1082.48 1021.95,-1075.46 1031,-1068 1040.34,-1060.31 1049.58,-1050.75 1057.31,-1042.06"/>
<polygon fill="black" stroke="black" points="1060.04,-1044.25 1063.93,-1034.4 1054.74,-1039.67 1060.04,-1044.25"/>
<text text-anchor="middle" x="1073.5" y="-1056.8" font-family="Times,serif" font-size="14.00">syr_612</text>
</g>
<!-- v21&#45;&gt;v23 -->
<g id="edge32" class="edge">
<title>v21&#45;&gt;v23</title>
<path fill="none" stroke="black" d="M987.07,-999.6C995.77,-989.28 1007.8,-976.05 1020,-966 1027.57,-959.77 1036.35,-953.84 1044.72,-948.69"/>
<polygon fill="black" stroke="black" points="1046.75,-951.55 1053.56,-943.43 1043.17,-945.53 1046.75,-951.55"/>
<text text-anchor="middle" x="1046.5" y="-969.8" font-family="Times,serif" font-size="14.00">syr_611</text>
</g>
<!-- v22&#45;&gt;v23 -->
<g id="edge33" class="edge">
<title>v22&#45;&gt;v23</title>
<path fill="none" stroke="black" d="M1077,-998.8C1077,-987.16 1077,-971.55 1077,-958.24"/>
<polygon fill="black" stroke="black" points="1080.5,-958.18 1077,-948.18 1073.5,-958.18 1080.5,-958.18"/>
<text text-anchor="middle" x="1103.5" y="-969.8" font-family="Times,serif" font-size="14.00">syr_612</text>
</g>
<!-- v24 -->
<g id="node25" class="node">
<title>v24</title>
<ellipse fill="none" stroke="black" cx="998" cy="-843" rx="27" ry="18"/>
<text text-anchor="middle" x="998" y="-839.3" font-family="Times,serif" font-size="14.00">ܓܝܪ</text>
</g>
<!-- v23&#45;&gt;v24 -->
<g id="edge35" class="edge">
<title>v23&#45;&gt;v24</title>
<path fill="none" stroke="black" d="M1044.27,-922.92C1027.77,-918.04 1009.16,-909.35 999,-894 994.6,-887.35 993.23,-879.05 993.28,-871.12"/>
<polygon fill="black" stroke="black" points="996.77,-871.33 994.03,-861.1 989.79,-870.81 996.77,-871.33"/>
<text text-anchor="middle" x="1059.5" y="-882.8" font-family="Times,serif" font-size="14.00">syr_611, syr_612</text>
</g>
<!-- v26 -->
<g id="node27" class="node">
<title>v26</title>
<ellipse fill="none" stroke="black" cx="1053" cy="-669" rx="30.59" ry="18"/>
<text text-anchor="middle" x="1053" y="-665.3" font-family="Times,serif" font-size="14.00">ܛܒܬܐ</text>
</g>
<!-- v23&#45;&gt;v26 -->
<g id="edge34" class="edge">
<title>v23&#45;&gt;v26</title>
<path fill="none" stroke="black" d="M1099.93,-916.2C1107.8,-910.51 1115.7,-903.04 1120,-894 1134.16,-864.22 1236.58,-1041.84 1113,-738 1105.58,-719.76 1091.1,-703.12 1078.22,-690.86"/>
<polygon fill="black" stroke="black" points="1080.23,-687.96 1070.48,-683.82 1075.52,-693.14 1080.23,-687.96"/>
<text text-anchor="middle" x="1166.5" y="-795.8" font-family="Times,serif" font-size="14.00">syr_422</text>
</g>
<!-- v25 -->
<g id="node26" class="node">
<title>v25</title>
<ellipse fill="none" stroke="black" cx="982" cy="-756" rx="35.19" ry="18"/>
<text text-anchor="middle" x="982" y="-752.3" font-family="Times,serif" font-size="14.00">ܛܒܬܐ܂</text>
</g>
<!-- v24&#45;&gt;v25 -->
<g id="edge37" class="edge">
<title>v24&#45;&gt;v25</title>
<path fill="none" stroke="black" d="M991.39,-825.5C989.34,-819.74 987.28,-813.16 986,-807 984.48,-799.7 983.53,-791.69 982.94,-784.26"/>
<polygon fill="black" stroke="black" points="986.43,-784.04 982.32,-774.28 979.45,-784.47 986.43,-784.04"/>
<text text-anchor="middle" x="1012.5" y="-795.8" font-family="Times,serif" font-size="14.00">syr_611</text>
</g>
<!-- v24&#45;&gt;v26 -->
<g id="edge36" class="edge">
<title>v24&#45;&gt;v26</title>
<path fill="none" stroke="black" d="M1017.28,-830.36C1025.37,-824.42 1034.04,-816.45 1039,-807 1057.12,-772.45 1057.83,-726.29 1055.96,-697.36"/>
<polygon fill="black" stroke="black" points="1059.43,-696.86 1055.15,-687.17 1052.45,-697.42 1059.43,-696.86"/>
<text text-anchor="middle" x="1082.5" y="-752.3" font-family="Times,serif" font-size="14.00">syr_612</text>
</g>
<!-- v25&#45;&gt;v26 -->
<g id="edge38" class="edge">
<title>v25&#45;&gt;v26</title>
<path fill="none" stroke="black" d="M979.44,-737.92C978.79,-727.58 979.66,-714.59 986,-705 993.13,-694.23 1004.68,-686.56 1016.2,-681.21"/>
<polygon fill="black" stroke="black" points="1017.88,-684.31 1025.77,-677.24 1015.2,-677.84 1017.88,-684.31"/>
<text text-anchor="middle" x="1012.5" y="-708.8" font-family="Times,serif" font-size="14.00">syr_611</text>
</g>
<!-- v27 -->
<g id="node28" class="node">
<title>v27</title>
<ellipse fill="none" stroke="black" cx="968" cy="-528" rx="147.57" ry="18"/>
<text text-anchor="middle" x="968" y="-524.3" font-family="Times,serif" font-size="14.00">ܒܛܒܬܐܢܐܪܥܝܘܗܝܡܪܝܐܘܕܢܥܒܕܒܝܫܬܐ</text>
</g>
<!-- v26&#45;&gt;v27 -->
<g id="edge39" class="edge">
<title>v26&#45;&gt;v27</title>
<path fill="none" stroke="black" d="M1043.08,-651.78C1028.46,-627.87 1000.98,-582.94 983.63,-554.56"/>
<polygon fill="black" stroke="black" points="986.59,-552.69 978.38,-545.98 980.61,-556.34 986.59,-552.69"/>
<text text-anchor="middle" x="1058.5" y="-621.8" font-family="Times,serif" font-size="14.00">syr_422</text>
</g>
<!-- v28 -->
<g id="node29" class="node">
<title>v28</title>
<ellipse fill="none" stroke="black" cx="1139" cy="-582" rx="50.09" ry="18"/>
<text text-anchor="middle" x="1139" y="-578.3" font-family="Times,serif" font-size="14.00">ܢܦܪܥܝܘܗܝ</text>
</g>
<!-- v26&#45;&gt;v28 -->
<g id="edge40" class="edge">
<title>v26&#45;&gt;v28</title>
<path fill="none" stroke="black" d="M1067.98,-653.19C1081.01,-640.31 1100.13,-621.42 1115.24,-606.48"/>
<polygon fill="black" stroke="black" points="1118.08,-608.6 1122.73,-599.08 1113.16,-603.62 1118.08,-608.6"/>
<text text-anchor="middle" x="1162.5" y="-621.8" font-family="Times,serif" font-size="14.00">syr_611, syr_612</text>
</g>
<!-- v32 -->
<g id="node33" class="node">
<title>v32</title>
<ellipse fill="none" stroke="black" cx="989" cy="-300" rx="40.09" ry="18"/>
<text text-anchor="middle" x="989" y="-296.3" font-family="Times,serif" font-size="14.00">ܒܒܝܫܬܐ</text>
</g>
<!-- v27&#45;&gt;v32 -->
<g id="edge41" class="edge">
<title>v27&#45;&gt;v32</title>
<path fill="none" stroke="black" d="M969.61,-509.64C973.25,-470.52 982.1,-375.21 986.48,-328.17"/>
<polygon fill="black" stroke="black" points="989.97,-328.39 987.41,-318.11 983,-327.74 989.97,-328.39"/>
<text text-anchor="middle" x="1004.5" y="-426.8" font-family="Times,serif" font-size="14.00">syr_422</text>
</g>
<!-- v29 -->
<g id="node30" class="node">
<title>v29</title>
<ellipse fill="none" stroke="black" cx="1127" cy="-474" rx="35.19" ry="18"/>
<text text-anchor="middle" x="1127" y="-470.3" font-family="Times,serif" font-size="14.00">ܡܪܝܐ܂</text>
</g>
<!-- v28&#45;&gt;v29 -->
<g id="edge42" class="edge">
<title>v28&#45;&gt;v29</title>
<path fill="none" stroke="black" d="M1137.07,-563.97C1135.18,-547.28 1132.27,-521.58 1130.07,-502.08"/>
<polygon fill="black" stroke="black" points="1133.53,-501.53 1128.92,-491.99 1126.57,-502.32 1133.53,-501.53"/>
<text text-anchor="middle" x="1161.5" y="-524.3" font-family="Times,serif" font-size="14.00">syr_611</text>
</g>
<!-- v30 -->
<g id="node31" class="node">
<title>v30</title>
<ellipse fill="none" stroke="black" cx="1215" cy="-474" rx="35.19" ry="18"/>
<text text-anchor="middle" x="1215" y="-470.3" font-family="Times,serif" font-size="14.00">ܡܪܝܐ܇</text>
</g>
<!-- v28&#45;&gt;v30 -->
<g id="edge43" class="edge">
<title>v28&#45;&gt;v30</title>
<path fill="none" stroke="black" d="M1167.45,-567.12C1176.35,-561.6 1185.53,-554.51 1192,-546 1201.69,-533.26 1207.38,-516.29 1210.68,-502.13"/>
<polygon fill="black" stroke="black" points="1214.18,-502.47 1212.76,-491.97 1207.33,-501.06 1214.18,-502.47"/>
<text text-anchor="middle" x="1235.5" y="-524.3" font-family="Times,serif" font-size="14.00">syr_612</text>
</g>
<!-- v31 -->
<g id="node32" class="node">
<title>v31</title>
<ellipse fill="none" stroke="black" cx="1127" cy="-387" rx="54.69" ry="18"/>
<text text-anchor="middle" x="1127" y="-383.3" font-family="Times,serif" font-size="14.00">ܘܒܝܫܬܐܬܘܒ</text>
</g>
<!-- v29&#45;&gt;v31 -->
<g id="edge44" class="edge">
<title>v29&#45;&gt;v31</title>
<path fill="none" stroke="black" d="M1127,-455.8C1127,-444.16 1127,-428.55 1127,-415.24"/>
<polygon fill="black" stroke="black" points="1130.5,-415.18 1127,-405.18 1123.5,-415.18 1130.5,-415.18"/>
<text text-anchor="middle" x="1153.5" y="-426.8" font-family="Times,serif" font-size="14.00">syr_611</text>
</g>
<!-- v30&#45;&gt;v31 -->
<g id="edge45" class="edge">
<title>v30&#45;&gt;v31</title>
<path fill="none" stroke="black" d="M1207.2,-456.34C1201.74,-445.9 1193.7,-432.66 1184,-423 1178.33,-417.35 1171.58,-412.21 1164.75,-407.71"/>
<polygon fill="black" stroke="black" points="1166.46,-404.66 1156.12,-402.36 1162.78,-410.61 1166.46,-404.66"/>
<text text-anchor="middle" x="1223.5" y="-426.8" font-family="Times,serif" font-size="14.00">syr_612</text>
</g>
<!-- v31&#45;&gt;v32 -->
<g id="edge46" class="edge">
<title>v31&#45;&gt;v32</title>
<path fill="none" stroke="black" d="M1102.33,-370.8C1079.4,-356.68 1045.16,-335.59 1020.32,-320.29"/>
<polygon fill="black" stroke="black" points="1021.98,-317.2 1011.63,-314.94 1018.31,-323.16 1021.98,-317.2"/>
<text text-anchor="middle" x="1127.5" y="-339.8" font-family="Times,serif" font-size="14.00">syr_611, syr_612</text>
</g>
<!-- v33 -->
<g id="node34" class="node">
<title>v33</title>
<ellipse fill="none" stroke="black" cx="686" cy="-213" rx="35.19" ry="18"/>
<text text-anchor="middle" x="686" y="-209.3" font-family="Times,serif" font-size="14.00">ܢܬܦܪܥ</text>
</g>
<!-- v32&#45;&gt;v33 -->
<g id="edge47" class="edge">
<title>v32&#45;&gt;v33</title>
<path fill="none" stroke="black" d="M955.71,-289.66C899.61,-273.92 786.49,-242.19 726.11,-225.25"/>
<polygon fill="black" stroke="black" points="726.75,-221.8 716.18,-222.47 724.86,-228.54 726.75,-221.8"/>
<text text-anchor="middle" x="916.5" y="-252.8" font-family="Times,serif" font-size="14.00">syr_611, syr_612</text>
</g>
<!-- v34 -->
<g id="node35" class="node">
<title>v34</title>
<ellipse fill="none" stroke="black" cx="1111" cy="-159" rx="366.63" ry="18"/>
<text text-anchor="middle" x="1111" y="-155.3" font-family="Times,serif" font-size="14.00">ܢܐܪܥܝܘܗܝܡܪܝܐܘܕܚܦܪܠܡܒܪܐܠܚܒܪܗܗܘ̤ܢܦܠܒܗ̇ܘܕܨܠܐܦܚܐܗܘܡܬܬܚܕܒܗ܂ܘܡܚܑܓܪܒܗܘܬܐܫܝܘܠܝܬܐ܇</text>
</g>
<!-- v32&#45;&gt;v34 -->
<g id="edge48" class="edge">
<title>v32&#45;&gt;v34</title>
<path fill="none" stroke="black" d="M1002.99,-283.05C1024.16,-258.94 1064.49,-212.99 1089.43,-184.57"/>
<polygon fill="black" stroke="black" points="1092.06,-186.88 1096.03,-177.06 1086.8,-182.26 1092.06,-186.88"/>
<text text-anchor="middle" x="1058.5" y="-252.8" font-family="Times,serif" font-size="14.00">syr_422</text>
</g>
<!-- v35 -->
<g id="node36" class="node">
<title>v35</title>
<ellipse fill="none" stroke="black" cx="219" cy="-105" rx="191.17" ry="18"/>
<text text-anchor="middle" x="219" y="-101.3" font-family="Times,serif" font-size="14.00">܀܀܀܀܀܀܀܀ܫܠܡ܀ܣܪܝܛܐܕܬܫܥܝܬܐܕܐܚܝܩܪܦܝܠܣܘܦܐ</text>
</g>
<!-- v33&#45;&gt;v35 -->
<g id="edge49" class="edge">
<title>v33&#45;&gt;v35</title>
<path fill="none" stroke="black" d="M654.63,-204.88C582.52,-188.51 403.1,-147.79 298.39,-124.02"/>
<polygon fill="black" stroke="black" points="299.02,-120.57 288.5,-121.77 297.47,-127.4 299.02,-120.57"/>
<text text-anchor="middle" x="548.5" y="-155.3" font-family="Times,serif" font-size="14.00">syr_612</text>
</g>
<!-- v36 -->
<g id="node37" class="node">
<title>v36</title>
<ellipse fill="none" stroke="black" cx="902" cy="-105" rx="473.62" ry="18"/>
<text text-anchor="middle" x="902" y="-101.3" font-family="Times,serif" font-size="14.00">܀܀ܫܠܡܬܒܐܝܕ̈ܝܐܣܛܝܦܢܪܝܣܕܟܢܫܐܡ̣ܢܬܪ̈ܬܝܢܐܢܨܚ̈ܬܐܥܬܝܩ̈ܐ܆܏ܗ܆ܗܢܘ܆ܫܢܬܐܦܦܓܒܕܝܪܐ܆ܠܡܪܢܒܝܪܚܢܝܣܢܫܠܡܬܩܫܝܫܐܐܪܡܝܐ</text>
</g>
<!-- v33&#45;&gt;v36 -->
<g id="edge50" class="edge">
<title>v33&#45;&gt;v36</title>
<path fill="none" stroke="black" d="M679.12,-195.27C673.83,-179.41 669.34,-155.84 682,-141 687.66,-134.37 698.15,-128.99 711.6,-124.62"/>
<polygon fill="black" stroke="black" points="712.75,-127.93 721.36,-121.76 710.78,-121.21 712.75,-127.93"/>
<text text-anchor="middle" x="708.5" y="-155.3" font-family="Times,serif" font-size="14.00">syr_611</text>
</g>
<!-- v34&#45;&gt;v37 -->
<g id="edge51" class="edge">
<title>v34&#45;&gt;v37</title>
<path fill="none" stroke="black" d="M1296.03,-143.42C1340.68,-138.05 1377.75,-131.23 1385,-123 1395.57,-110.99 1395.5,-99.08 1385,-87 1327.06,-20.33 1042.8,-17.16 939.56,-18.27"/>
<polygon fill="black" stroke="black" points="939.25,-14.78 929.3,-18.41 939.34,-21.78 939.25,-14.78"/>
<text text-anchor="middle" x="1418.5" y="-101.3" font-family="Times,serif" font-size="14.00">syr_422</text>
</g>
<!-- v35&#45;&gt;v37 -->
<g id="edge52" class="edge">
<title>v35&#45;&gt;v37</title>
<path fill="none" stroke="black" d="M329.49,-90.25C486.5,-70.71 766.13,-35.91 865.62,-23.53"/>
<polygon fill="black" stroke="black" points="866.27,-26.97 875.77,-22.26 865.41,-20.03 866.27,-26.97"/>
<text text-anchor="middle" x="628.5" y="-57.8" font-family="Times,serif" font-size="14.00">syr_612</text>
</g>
<!-- v36&#45;&gt;v37 -->
<g id="edge53" class="edge">
<title>v36&#45;&gt;v37</title>
<path fill="none" stroke="black" d="M902,-86.8C902,-75.16 902,-59.55 902,-46.24"/>
<polygon fill="black" stroke="black" points="905.5,-46.18 902,-36.18 898.5,-46.18 905.5,-46.18"/>
<text text-anchor="middle" x="928.5" y="-57.8" font-family="Times,serif" font-size="14.00">syr_611</text>
</g>
</g>
</svg>
