<?xml version="1.0" encoding="UTF-8" standalone="no"?>
<!DOCTYPE svg PUBLIC "-//W3C//DTD SVG 1.1//EN"
 "http://www.w3.org/Graphics/SVG/1.1/DTD/svg11.dtd">
<!-- Generated by graphviz version 2.44.0 ()
 -->
<!-- Title: G Pages: 1 -->
<svg width="876pt" height="1541pt"
 viewBox="0.00 0.00 876.00 1541.00" xmlns="http://www.w3.org/2000/svg" xmlns:xlink="http://www.w3.org/1999/xlink">
<g id="graph0" class="graph" transform="scale(1 1) rotate(0) translate(4 1537)">
<title>G</title>
<polygon fill="white" stroke="transparent" points="-4,4 -4,-1537 872,-1537 872,4 -4,4"/>
<!-- v0 -->
<g id="node1" class="node">
<title>v0</title>
<ellipse fill="none" stroke="black" cx="54" cy="-1515" rx="27" ry="18"/>
</g>
<!-- v1 -->
<g id="node2" class="node">
<title>v1</title>
<ellipse fill="none" stroke="black" cx="55" cy="-1374" rx="40.09" ry="18"/>
<text text-anchor="middle" x="55" y="-1370.3" font-family="Times,serif" font-size="14.00">omisit</text>
</g>
<!-- v0&#45;&gt;v1 -->
<g id="edge1" class="edge">
<title>v0&#45;&gt;v1</title>
<path fill="none" stroke="black" d="M52.24,-1496.93C51.73,-1491.23 51.25,-1484.85 51,-1479 49.89,-1453.02 51.29,-1423.38 52.73,-1402.41"/>
<polygon fill="black" stroke="black" points="56.23,-1402.53 53.48,-1392.3 49.25,-1402.02 56.23,-1402.53"/>
<text text-anchor="middle" x="257.5" y="-1467.8" font-family="Times,serif" font-size="14.00">162, Add_7200, Ar_7/229, Or_2313, Sachau_162, Sado_no_9</text>
</g>
<!-- v2 -->
<g id="node3" class="node">
<title>v2</title>
<ellipse fill="none" stroke="black" cx="490" cy="-1428" rx="50.09" ry="18"/>
<text text-anchor="middle" x="490" y="-1424.3" font-family="Times,serif" font-size="14.00">ܘܒܗܒܫܥܬܐ</text>
</g>
<!-- v0&#45;&gt;v2 -->
<g id="edge2" class="edge">
<title>v0&#45;&gt;v2</title>
<path fill="none" stroke="black" d="M80.93,-1513.3C167.77,-1510.84 436.56,-1501.46 468,-1479 475.74,-1473.47 480.79,-1464.6 484.07,-1455.86"/>
<polygon fill="black" stroke="black" points="487.44,-1456.82 487.07,-1446.23 480.76,-1454.73 487.44,-1456.82"/>
<text text-anchor="middle" x="600.5" y="-1467.8" font-family="Times,serif" font-size="14.00">Add_2020, Manuscrit_4122, Syr_80</text>
</g>
<!-- v26 -->
<g id="node27" class="node">
<title>v26</title>
<ellipse fill="none" stroke="black" cx="264" cy="-18" rx="27" ry="18"/>
</g>
<!-- v0&#45;&gt;v26 -->
<g id="edge38" class="edge">
<title>v0&#45;&gt;v26</title>
<path fill="none" stroke="white" d="M38.09,-1500.07C22.16,-1484.49 0,-1457.67 0,-1429 0,-1429 0,-1429 0,-104 0,-56.84 154.54,-32.09 227.14,-23.06"/>
<polygon fill="white" stroke="white" points="227.73,-26.52 237.23,-21.84 226.89,-19.57 227.73,-26.52"/>
</g>
<!-- v1&#45;&gt;v26 -->
<g id="edge3" class="edge">
<title>v1&#45;&gt;v26</title>
<path fill="none" stroke="black" d="M50.08,-1355.91C45.06,-1336.93 38,-1305.29 38,-1277.5 38,-1277.5 38,-1277.5 38,-104 38,-63.89 164.26,-36.25 228.04,-24.85"/>
<polygon fill="black" stroke="black" points="228.83,-28.27 238.07,-23.1 227.62,-21.37 228.83,-28.27"/>
<text text-anchor="middle" x="244.5" y="-729.8" font-family="Times,serif" font-size="14.00">162, Add_7200, Ar_7/229, Or_2313, Sachau_162, Sado_no_9</text>
</g>
<!-- v3 -->
<g id="node4" class="node">
<title>v3</title>
<ellipse fill="none" stroke="black" cx="490" cy="-1320" rx="54.69" ry="18"/>
<text text-anchor="middle" x="490" y="-1316.3" font-family="Times,serif" font-size="14.00">ܐܬܢ̱ܦܚܢܕܢ</text>
</g>
<!-- v2&#45;&gt;v3 -->
<g id="edge4" class="edge">
<title>v2&#45;&gt;v3</title>
<path fill="none" stroke="black" d="M490,-1409.97C490,-1393.38 490,-1367.88 490,-1348.43"/>
<polygon fill="black" stroke="black" points="493.5,-1348.34 490,-1338.34 486.5,-1348.34 493.5,-1348.34"/>
<text text-anchor="middle" x="520.5" y="-1370.3" font-family="Times,serif" font-size="14.00">Add_2020</text>
</g>
<!-- v4 -->
<g id="node5" class="node">
<title>v4</title>
<ellipse fill="none" stroke="black" cx="598" cy="-1320" rx="35.19" ry="18"/>
<text text-anchor="middle" x="598" y="-1316.3" font-family="Times,serif" font-size="14.00">ܐܬܢܦܚ</text>
</g>
<!-- v2&#45;&gt;v4 -->
<g id="edge5" class="edge">
<title>v2&#45;&gt;v4</title>
<path fill="none" stroke="black" d="M521.98,-1414.02C533.28,-1408.39 545.53,-1401.01 555,-1392 568.45,-1379.21 579.25,-1361.32 586.66,-1346.7"/>
<polygon fill="black" stroke="black" points="589.84,-1348.17 591.04,-1337.65 583.54,-1345.13 589.84,-1348.17"/>
<text text-anchor="middle" x="664" y="-1370.3" font-family="Times,serif" font-size="14.00">Manuscrit_4122, Syr_80</text>
</g>
<!-- v5 -->
<g id="node6" class="node">
<title>v5</title>
<ellipse fill="none" stroke="black" cx="593" cy="-1233" rx="40.09" ry="18"/>
<text text-anchor="middle" x="593" y="-1229.3" font-family="Times,serif" font-size="14.00">ܐܝܟܙܩܐ</text>
</g>
<!-- v3&#45;&gt;v5 -->
<g id="edge6" class="edge">
<title>v3&#45;&gt;v5</title>
<path fill="none" stroke="black" d="M500.84,-1302.31C508.2,-1291.86 518.62,-1278.61 530,-1269 537.96,-1262.28 547.4,-1256.23 556.52,-1251.12"/>
<polygon fill="black" stroke="black" points="558.3,-1254.14 565.47,-1246.34 555,-1247.96 558.3,-1254.14"/>
<text text-anchor="middle" x="560.5" y="-1272.8" font-family="Times,serif" font-size="14.00">Add_2020</text>
</g>
<!-- v4&#45;&gt;v5 -->
<g id="edge7" class="edge">
<title>v4&#45;&gt;v5</title>
<path fill="none" stroke="black" d="M596.99,-1301.8C596.3,-1290.16 595.39,-1274.55 594.6,-1261.24"/>
<polygon fill="black" stroke="black" points="598.09,-1260.95 594.01,-1251.18 591.1,-1261.36 598.09,-1260.95"/>
<text text-anchor="middle" x="678" y="-1272.8" font-family="Times,serif" font-size="14.00">Manuscrit_4122, Syr_80</text>
</g>
<!-- v6 -->
<g id="node7" class="node">
<title>v6</title>
<ellipse fill="none" stroke="black" cx="702" cy="-1146" rx="30.59" ry="18"/>
<text text-anchor="middle" x="702" y="-1142.3" font-family="Times,serif" font-size="14.00">ܘܦܩܥ</text>
</g>
<!-- v5&#45;&gt;v6 -->
<g id="edge8" class="edge">
<title>v5&#45;&gt;v6</title>
<path fill="none" stroke="black" d="M612.24,-1217C630.1,-1203.07 656.81,-1182.24 676.46,-1166.92"/>
<polygon fill="black" stroke="black" points="678.66,-1169.64 684.4,-1160.73 674.36,-1164.12 678.66,-1169.64"/>
<text text-anchor="middle" x="737" y="-1185.8" font-family="Times,serif" font-size="14.00">Manuscrit_4122, Syr_80</text>
</g>
<!-- v8 -->
<g id="node9" class="node">
<title>v8</title>
<ellipse fill="none" stroke="black" cx="603" cy="-1059" rx="35.19" ry="18"/>
<text text-anchor="middle" x="603" y="-1055.3" font-family="Times,serif" font-size="14.00">ܘܡܝܬ܂</text>
</g>
<!-- v5&#45;&gt;v8 -->
<g id="edge9" class="edge">
<title>v5&#45;&gt;v8</title>
<path fill="none" stroke="black" d="M594,-1214.88C595.73,-1185 599.33,-1123.11 601.41,-1087.27"/>
<polygon fill="black" stroke="black" points="604.92,-1087.24 602.01,-1077.05 597.93,-1086.83 604.92,-1087.24"/>
<text text-anchor="middle" x="628.5" y="-1142.3" font-family="Times,serif" font-size="14.00">Add_2020</text>
</g>
<!-- v7 -->
<g id="node8" class="node">
<title>v7</title>
<ellipse fill="none" stroke="black" cx="702" cy="-1059" rx="35.19" ry="18"/>
<text text-anchor="middle" x="702" y="-1055.3" font-family="Times,serif" font-size="14.00">ܘܡܝܬ܆</text>
</g>
<!-- v6&#45;&gt;v7 -->
<g id="edge10" class="edge">
<title>v6&#45;&gt;v7</title>
<path fill="none" stroke="black" d="M702,-1127.8C702,-1116.16 702,-1100.55 702,-1087.24"/>
<polygon fill="black" stroke="black" points="705.5,-1087.18 702,-1077.18 698.5,-1087.18 705.5,-1087.18"/>
<text text-anchor="middle" x="755" y="-1098.8" font-family="Times,serif" font-size="14.00">Manuscrit_4122</text>
</g>
<!-- v6&#45;&gt;v8 -->
<g id="edge11" class="edge">
<title>v6&#45;&gt;v8</title>
<path fill="none" stroke="black" d="M681.91,-1132.18C672.52,-1125.88 661.38,-1117.95 652,-1110 642.25,-1101.73 632.24,-1091.82 623.83,-1083.01"/>
<polygon fill="black" stroke="black" points="626.29,-1080.51 616.89,-1075.61 621.18,-1085.3 626.29,-1080.51"/>
<text text-anchor="middle" x="675" y="-1098.8" font-family="Times,serif" font-size="14.00">Syr_80</text>
</g>
<!-- v9 -->
<g id="node10" class="node">
<title>v9</title>
<ellipse fill="none" stroke="black" cx="702" cy="-972" rx="30.59" ry="18"/>
<text text-anchor="middle" x="702" y="-968.3" font-family="Times,serif" font-size="14.00">ܕܥܒܕ</text>
</g>
<!-- v7&#45;&gt;v9 -->
<g id="edge12" class="edge">
<title>v7&#45;&gt;v9</title>
<path fill="none" stroke="black" d="M702,-1040.8C702,-1029.16 702,-1013.55 702,-1000.24"/>
<polygon fill="black" stroke="black" points="705.5,-1000.18 702,-990.18 698.5,-1000.18 705.5,-1000.18"/>
<text text-anchor="middle" x="755" y="-1011.8" font-family="Times,serif" font-size="14.00">Manuscrit_4122</text>
</g>
<!-- v8&#45;&gt;v9 -->
<g id="edge13" class="edge">
<title>v8&#45;&gt;v9</title>
<path fill="none" stroke="black" d="M616.89,-1042.39C626.35,-1032.13 639.39,-1018.69 652,-1008 658.74,-1002.29 666.39,-996.58 673.65,-991.49"/>
<polygon fill="black" stroke="black" points="675.64,-994.37 681.91,-985.82 671.68,-988.59 675.64,-994.37"/>
<text text-anchor="middle" x="675" y="-1011.8" font-family="Times,serif" font-size="14.00">Syr_80</text>
</g>
<!-- v10 -->
<g id="node11" class="node">
<title>v10</title>
<ellipse fill="none" stroke="black" cx="449" cy="-918" rx="230.16" ry="18"/>
<text text-anchor="middle" x="449" y="-914.3" font-family="Times,serif" font-size="14.00">ܘܕܥܒܕܛܒ܉ܕܛܒܡܬܦܪܥ܂ܘܕܥܒܕܕܒܝܫ܉ܒܝܫܬܐܡܬܦܪܥ܂ܘܡܢܕܚܦܪ</text>
</g>
<!-- v8&#45;&gt;v10 -->
<g id="edge14" class="edge">
<title>v8&#45;&gt;v10</title>
<path fill="none" stroke="black" d="M586.23,-1042.86C559.64,-1018.86 507.57,-971.87 475.77,-943.17"/>
<polygon fill="black" stroke="black" points="477.92,-940.39 468.16,-936.29 473.23,-945.59 477.92,-940.39"/>
<text text-anchor="middle" x="594.5" y="-1011.8" font-family="Times,serif" font-size="14.00">Add_2020</text>
</g>
<!-- v11 -->
<g id="node12" class="node">
<title>v11</title>
<ellipse fill="none" stroke="black" cx="687" cy="-864" rx="30.59" ry="18"/>
<text text-anchor="middle" x="687" y="-860.3" font-family="Times,serif" font-size="14.00">ܛܒܬܐ</text>
</g>
<!-- v9&#45;&gt;v11 -->
<g id="edge15" class="edge">
<title>v9&#45;&gt;v11</title>
<path fill="none" stroke="black" d="M699.59,-953.97C697.23,-937.28 693.59,-911.58 690.83,-892.08"/>
<polygon fill="black" stroke="black" points="694.27,-891.4 689.4,-881.99 687.34,-892.38 694.27,-891.4"/>
<text text-anchor="middle" x="719" y="-914.3" font-family="Times,serif" font-size="14.00">Syr_80</text>
</g>
<!-- v12 -->
<g id="node13" class="node">
<title>v12</title>
<ellipse fill="none" stroke="black" cx="771" cy="-864" rx="35.19" ry="18"/>
<text text-anchor="middle" x="771" y="-860.3" font-family="Times,serif" font-size="14.00">ܛܒܬܐ܆</text>
</g>
<!-- v9&#45;&gt;v12 -->
<g id="edge16" class="edge">
<title>v9&#45;&gt;v12</title>
<path fill="none" stroke="black" d="M722.53,-958.37C730.77,-952.44 739.77,-944.75 746,-936 755.3,-922.94 761.43,-906.08 765.29,-892.07"/>
<polygon fill="black" stroke="black" points="768.77,-892.58 767.82,-882.02 761.98,-890.87 768.77,-892.58"/>
<text text-anchor="middle" x="815" y="-914.3" font-family="Times,serif" font-size="14.00">Manuscrit_4122</text>
</g>
<!-- v17 -->
<g id="node18" class="node">
<title>v17</title>
<ellipse fill="none" stroke="black" cx="558" cy="-516" rx="35.19" ry="18"/>
<text text-anchor="middle" x="558" y="-512.3" font-family="Times,serif" font-size="14.00">ܓܘܡܨܐ</text>
</g>
<!-- v10&#45;&gt;v17 -->
<g id="edge17" class="edge">
<title>v10&#45;&gt;v17</title>
<path fill="none" stroke="black" d="M456.37,-899.75C463.74,-880.9 474,-849.61 474,-821.5 474,-821.5 474,-821.5 474,-602 474,-571.83 501.11,-548.51 524.52,-533.99"/>
<polygon fill="black" stroke="black" points="526.4,-536.94 533.25,-528.86 522.86,-530.91 526.4,-536.94"/>
<text text-anchor="middle" x="504.5" y="-729.8" font-family="Times,serif" font-size="14.00">Add_2020</text>
</g>
<!-- v13 -->
<g id="node14" class="node">
<title>v13</title>
<ellipse fill="none" stroke="black" cx="687" cy="-777" rx="30.59" ry="18"/>
<text text-anchor="middle" x="687" y="-773.3" font-family="Times,serif" font-size="14.00">ܛܒܬܐ</text>
</g>
<!-- v11&#45;&gt;v13 -->
<g id="edge18" class="edge">
<title>v11&#45;&gt;v13</title>
<path fill="none" stroke="black" d="M687,-845.8C687,-834.16 687,-818.55 687,-805.24"/>
<polygon fill="black" stroke="black" points="690.5,-805.18 687,-795.18 683.5,-805.18 690.5,-805.18"/>
<text text-anchor="middle" x="710" y="-816.8" font-family="Times,serif" font-size="14.00">Syr_80</text>
</g>
<!-- v12&#45;&gt;v13 -->
<g id="edge19" class="edge">
<title>v12&#45;&gt;v13</title>
<path fill="none" stroke="black" d="M761.93,-846.58C755.73,-836.24 746.88,-823.01 737,-813 731.04,-806.95 723.9,-801.26 716.92,-796.3"/>
<polygon fill="black" stroke="black" points="718.5,-793.14 708.25,-790.42 714.57,-798.93 718.5,-793.14"/>
<text text-anchor="middle" x="801" y="-816.8" font-family="Times,serif" font-size="14.00">Manuscrit_4122</text>
</g>
<!-- v14 -->
<g id="node15" class="node">
<title>v14</title>
<ellipse fill="none" stroke="black" cx="558" cy="-690" rx="30.59" ry="18"/>
<text text-anchor="middle" x="558" y="-686.3" font-family="Times,serif" font-size="14.00">ܡܫܟܚ</text>
</g>
<!-- v13&#45;&gt;v14 -->
<g id="edge20" class="edge">
<title>v13&#45;&gt;v14</title>
<path fill="none" stroke="black" d="M656.78,-773.53C632.39,-770.01 598.69,-761.52 577,-741 570.48,-734.83 566.17,-726.19 563.34,-717.82"/>
<polygon fill="black" stroke="black" points="566.64,-716.62 560.56,-707.94 559.9,-718.51 566.64,-716.62"/>
<text text-anchor="middle" x="630" y="-729.8" font-family="Times,serif" font-size="14.00">Manuscrit_4122</text>
</g>
<!-- v15 -->
<g id="node16" class="node">
<title>v15</title>
<ellipse fill="none" stroke="black" cx="687" cy="-690" rx="35.19" ry="18"/>
<text text-anchor="middle" x="687" y="-686.3" font-family="Times,serif" font-size="14.00">ܡܫܟܚ܂</text>
</g>
<!-- v13&#45;&gt;v15 -->
<g id="edge21" class="edge">
<title>v13&#45;&gt;v15</title>
<path fill="none" stroke="black" d="M687,-758.8C687,-747.16 687,-731.55 687,-718.24"/>
<polygon fill="black" stroke="black" points="690.5,-718.18 687,-708.18 683.5,-718.18 690.5,-718.18"/>
<text text-anchor="middle" x="710" y="-729.8" font-family="Times,serif" font-size="14.00">Syr_80</text>
</g>
<!-- v16 -->
<g id="node17" class="node">
<title>v16</title>
<ellipse fill="none" stroke="black" cx="558" cy="-603" rx="35.19" ry="18"/>
<text text-anchor="middle" x="558" y="-599.3" font-family="Times,serif" font-size="14.00">ܘܕܚܦܪ</text>
</g>
<!-- v14&#45;&gt;v16 -->
<g id="edge22" class="edge">
<title>v14&#45;&gt;v16</title>
<path fill="none" stroke="black" d="M558,-671.8C558,-660.16 558,-644.55 558,-631.24"/>
<polygon fill="black" stroke="black" points="561.5,-631.18 558,-621.18 554.5,-631.18 561.5,-631.18"/>
<text text-anchor="middle" x="611" y="-642.8" font-family="Times,serif" font-size="14.00">Manuscrit_4122</text>
</g>
<!-- v15&#45;&gt;v16 -->
<g id="edge23" class="edge">
<title>v15&#45;&gt;v16</title>
<path fill="none" stroke="black" d="M683.33,-672.05C680.17,-661.23 674.56,-647.66 665,-639 647.7,-623.32 623.25,-614.66 602.08,-609.87"/>
<polygon fill="black" stroke="black" points="602.5,-606.38 592.01,-607.82 601.11,-613.24 602.5,-606.38"/>
<text text-anchor="middle" x="698" y="-642.8" font-family="Times,serif" font-size="14.00">Syr_80</text>
</g>
<!-- v16&#45;&gt;v17 -->
<g id="edge24" class="edge">
<title>v16&#45;&gt;v17</title>
<path fill="none" stroke="black" d="M558,-584.8C558,-573.16 558,-557.55 558,-544.24"/>
<polygon fill="black" stroke="black" points="561.5,-544.18 558,-534.18 554.5,-544.18 561.5,-544.18"/>
<text text-anchor="middle" x="641" y="-555.8" font-family="Times,serif" font-size="14.00">Manuscrit_4122, Syr_80</text>
</g>
<!-- v18 -->
<g id="node19" class="node">
<title>v18</title>
<ellipse fill="none" stroke="black" cx="558" cy="-429" rx="35.19" ry="18"/>
<text text-anchor="middle" x="558" y="-425.3" font-family="Times,serif" font-size="14.00">ܠܚܒܪܗ</text>
</g>
<!-- v17&#45;&gt;v18 -->
<g id="edge25" class="edge">
<title>v17&#45;&gt;v18</title>
<path fill="none" stroke="black" d="M558,-497.8C558,-486.16 558,-470.55 558,-457.24"/>
<polygon fill="black" stroke="black" points="561.5,-457.18 558,-447.18 554.5,-457.18 561.5,-457.18"/>
<text text-anchor="middle" x="648.5" y="-468.8" font-family="Times,serif" font-size="14.00">Add_2020, Manuscrit_4122</text>
</g>
<!-- v19 -->
<g id="node20" class="node">
<title>v19</title>
<ellipse fill="none" stroke="black" cx="762" cy="-375" rx="40.09" ry="18"/>
<text text-anchor="middle" x="762" y="-371.3" font-family="Times,serif" font-size="14.00">ܠܚܒܪܗ܂</text>
</g>
<!-- v17&#45;&gt;v19 -->
<g id="edge26" class="edge">
<title>v17&#45;&gt;v19</title>
<path fill="none" stroke="black" d="M592.7,-512.82C639.56,-509.15 719.56,-500.06 740,-480 760.21,-460.16 764.1,-426.72 763.97,-403.13"/>
<polygon fill="black" stroke="black" points="767.46,-402.95 763.67,-393.06 760.47,-403.16 767.46,-402.95"/>
<text text-anchor="middle" x="773" y="-468.8" font-family="Times,serif" font-size="14.00">Syr_80</text>
</g>
<!-- v20 -->
<g id="node21" class="node">
<title>v20</title>
<ellipse fill="none" stroke="black" cx="264" cy="-267" rx="210.66" ry="18"/>
<text text-anchor="middle" x="264" y="-263.3" font-family="Times,serif" font-size="14.00">ܒܩܘܡܬܗܡܡܠܐܠܗ܂ܘܠܐܠܗܐܫܘܒܚܐܘܥܠܝܢܪ̈ܚܡܘܗܝܐܡܝܢ܂</text>
</g>
<!-- v18&#45;&gt;v20 -->
<g id="edge27" class="edge">
<title>v18&#45;&gt;v20</title>
<path fill="none" stroke="black" d="M534.44,-415.18C484.28,-387.88 366.46,-323.76 304.19,-289.87"/>
<polygon fill="black" stroke="black" points="305.51,-286.61 295.06,-284.9 302.17,-292.76 305.51,-286.61"/>
<text text-anchor="middle" x="519.5" y="-371.3" font-family="Times,serif" font-size="14.00">Add_2020</text>
</g>
<!-- v22 -->
<g id="node23" class="node">
<title>v22</title>
<ellipse fill="none" stroke="black" cx="565" cy="-321" rx="30.59" ry="18"/>
<text text-anchor="middle" x="565" y="-317.3" font-family="Times,serif" font-size="14.00">ܩܘܡܗ</text>
</g>
<!-- v18&#45;&gt;v22 -->
<g id="edge28" class="edge">
<title>v18&#45;&gt;v22</title>
<path fill="none" stroke="black" d="M559.12,-410.97C560.23,-394.28 561.92,-368.58 563.21,-349.08"/>
<polygon fill="black" stroke="black" points="566.71,-349.2 563.88,-338.99 559.73,-348.74 566.71,-349.2"/>
<text text-anchor="middle" x="615" y="-371.3" font-family="Times,serif" font-size="14.00">Manuscrit_4122</text>
</g>
<!-- v21 -->
<g id="node22" class="node">
<title>v21</title>
<ellipse fill="none" stroke="black" cx="688" cy="-105" rx="30.59" ry="18"/>
<text text-anchor="middle" x="688" y="-101.3" font-family="Times,serif" font-size="14.00">ܡܕܠܐ</text>
</g>
<!-- v19&#45;&gt;v21 -->
<g id="edge29" class="edge">
<title>v19&#45;&gt;v21</title>
<path fill="none" stroke="black" d="M763.49,-356.88C765.72,-324.32 767.76,-251.66 748,-195 739.4,-170.35 722.25,-146.03 708.48,-129.06"/>
<polygon fill="black" stroke="black" points="711.14,-126.78 702.04,-121.35 705.76,-131.27 711.14,-126.78"/>
<text text-anchor="middle" x="786" y="-263.3" font-family="Times,serif" font-size="14.00">Syr_80</text>
</g>
<!-- v20&#45;&gt;v26 -->
<g id="edge30" class="edge">
<title>v20&#45;&gt;v26</title>
<path fill="none" stroke="black" d="M264,-248.63C264,-206.28 264,-97.42 264,-46.29"/>
<polygon fill="black" stroke="black" points="267.5,-46.02 264,-36.02 260.5,-46.02 267.5,-46.02"/>
<text text-anchor="middle" x="294.5" y="-155.3" font-family="Times,serif" font-size="14.00">Add_2020</text>
</g>
<!-- v21&#45;&gt;v22 -->
<g id="edge31" class="edge">
<title>v21&#45;&gt;v22</title>
<path fill="none" stroke="black" d="M692.3,-122.99C699.97,-157.61 711.9,-237.08 674,-285 657.78,-305.51 629.46,-314.18 605.74,-317.77"/>
<polygon fill="black" stroke="black" points="605.06,-314.33 595.57,-319.05 605.93,-321.27 605.06,-314.33"/>
<text text-anchor="middle" x="723" y="-209.3" font-family="Times,serif" font-size="14.00">Syr_80</text>
</g>
<!-- v23 -->
<g id="node24" class="node">
<title>v23</title>
<ellipse fill="none" stroke="black" cx="567" cy="-213" rx="30.59" ry="18"/>
<text text-anchor="middle" x="567" y="-209.3" font-family="Times,serif" font-size="14.00">ܡܕܠܐ</text>
</g>
<!-- v22&#45;&gt;v23 -->
<g id="edge32" class="edge">
<title>v22&#45;&gt;v23</title>
<path fill="none" stroke="black" d="M565.32,-302.97C565.63,-286.38 566.12,-260.88 566.48,-241.43"/>
<polygon fill="black" stroke="black" points="569.98,-241.4 566.67,-231.34 562.98,-241.27 569.98,-241.4"/>
<text text-anchor="middle" x="619" y="-263.3" font-family="Times,serif" font-size="14.00">Manuscrit_4122</text>
</g>
<!-- v24 -->
<g id="node25" class="node">
<title>v24</title>
<ellipse fill="none" stroke="black" cx="374" cy="-159" rx="27" ry="18"/>
<text text-anchor="middle" x="374" y="-155.3" font-family="Times,serif" font-size="14.00">ܒܗ܀</text>
</g>
<!-- v22&#45;&gt;v24 -->
<g id="edge33" class="edge">
<title>v22&#45;&gt;v24</title>
<path fill="none" stroke="black" d="M545.08,-306.96C535.74,-300.62 524.57,-292.71 515,-285 496.63,-270.2 493.56,-264.76 476,-249 449.44,-225.16 418.5,-198.29 397.73,-180.37"/>
<polygon fill="black" stroke="black" points="399.88,-177.61 390.02,-173.74 395.31,-182.92 399.88,-177.61"/>
<text text-anchor="middle" x="538" y="-263.3" font-family="Times,serif" font-size="14.00">Syr_80</text>
</g>
<!-- v23&#45;&gt;v21 -->
<g id="edge37" class="edge">
<title>v23&#45;&gt;v21</title>
<path fill="none" stroke="lightgray" stroke-dasharray="5,2" d="M591.32,-201.83C604.2,-195.75 619.83,-187.22 632,-177 651,-161.05 667.88,-137.74 678.01,-122.24"/>
</g>
<!-- v25 -->
<g id="node26" class="node">
<title>v25</title>
<ellipse fill="none" stroke="black" cx="473" cy="-105" rx="50.09" ry="18"/>
<text text-anchor="middle" x="473" y="-101.3" font-family="Times,serif" font-size="14.00">ܒܗ܀܀܀܀܀܀</text>
</g>
<!-- v23&#45;&gt;v25 -->
<g id="edge34" class="edge">
<title>v23&#45;&gt;v25</title>
<path fill="none" stroke="black" d="M549.07,-198.16C541.6,-192.03 533.04,-184.51 526,-177 512.59,-162.68 499.39,-145.01 489.51,-130.88"/>
<polygon fill="black" stroke="black" points="492.37,-128.86 483.82,-122.6 486.6,-132.82 492.37,-128.86"/>
<text text-anchor="middle" x="579" y="-155.3" font-family="Times,serif" font-size="14.00">Manuscrit_4122</text>
</g>
<!-- v24&#45;&gt;v26 -->
<g id="edge35" class="edge">
<title>v24&#45;&gt;v26</title>
<path fill="none" stroke="black" d="M362.02,-142.86C342.86,-118.65 305.19,-71.05 282.54,-42.43"/>
<polygon fill="black" stroke="black" points="285.25,-40.22 276.3,-34.55 279.76,-44.56 285.25,-40.22"/>
<text text-anchor="middle" x="369" y="-101.3" font-family="Times,serif" font-size="14.00">Syr_80</text>
</g>
<!-- v25&#45;&gt;v26 -->
<g id="edge36" class="edge">
<title>v25&#45;&gt;v26</title>
<path fill="none" stroke="black" d="M442.35,-90.5C418.83,-80.24 385.5,-65.91 356,-54 336.53,-46.14 314.55,-37.76 296.96,-31.17"/>
<polygon fill="black" stroke="black" points="297.76,-27.73 287.16,-27.52 295.31,-34.29 297.76,-27.73"/>
<text text-anchor="middle" x="444" y="-57.8" font-family="Times,serif" font-size="14.00">Manuscrit_4122</text>
</g>
</g>
</svg>
