<?xml version="1.0" encoding="UTF-8" standalone="no"?>
<!DOCTYPE svg PUBLIC "-//W3C//DTD SVG 1.1//EN"
 "http://www.w3.org/Graphics/SVG/1.1/DTD/svg11.dtd">
<!-- Generated by graphviz version 2.44.0 ()
 -->
<!-- Title: G Pages: 1 -->
<svg width="980pt" height="2696pt"
 viewBox="0.00 0.00 979.57 2696.00" xmlns="http://www.w3.org/2000/svg" xmlns:xlink="http://www.w3.org/1999/xlink">
<g id="graph0" class="graph" transform="scale(1 1) rotate(0) translate(4 2692)">
<title>G</title>
<polygon fill="white" stroke="transparent" points="-4,4 -4,-2692 975.57,-2692 975.57,4 -4,4"/>
<!-- v0 -->
<g id="node1" class="node">
<title>v0</title>
<ellipse fill="none" stroke="black" cx="867.57" cy="-2670" rx="27" ry="18"/>
</g>
<!-- v1 -->
<g id="node2" class="node">
<title>v1</title>
<ellipse fill="none" stroke="black" cx="615.57" cy="-2583" rx="215.56" ry="18"/>
<text text-anchor="middle" x="615.57" y="-2579.3" font-family="Times,serif" font-size="14.00">ܘܡܟܐܘܠܗܠܠܐܐܡܪܠܗܡܕܡ܂ܡܪܝܐܢܦܪܥܟܐܝܟܡܐܕܫܘܐܐܢ̄ܬ܂</text>
</g>
<!-- v0&#45;&gt;v1 -->
<g id="edge2" class="edge">
<title>v0&#45;&gt;v1</title>
<path fill="none" stroke="black" d="M843.86,-2661C805.45,-2648.05 728.49,-2622.09 674.59,-2603.91"/>
<polygon fill="black" stroke="black" points="675.4,-2600.49 664.81,-2600.61 673.17,-2607.12 675.4,-2600.49"/>
<text text-anchor="middle" x="769.07" y="-2622.8" font-family="Times,serif" font-size="14.00">433</text>
</g>
<!-- v2 -->
<g id="node3" class="node">
<title>v2</title>
<ellipse fill="none" stroke="black" cx="829.57" cy="-2496" rx="54.69" ry="18"/>
<text text-anchor="middle" x="829.57" y="-2492.3" font-family="Times,serif" font-size="14.00">ܘܟܕܫܡܥܢܕܢ</text>
</g>
<!-- v0&#45;&gt;v2 -->
<g id="edge1" class="edge">
<title>v0&#45;&gt;v2</title>
<path fill="none" stroke="black" d="M863.79,-2651.88C857.19,-2622 843.51,-2560.11 835.6,-2524.27"/>
<polygon fill="black" stroke="black" points="838.91,-2523.06 833.34,-2514.05 832.08,-2524.57 838.91,-2523.06"/>
<text text-anchor="middle" x="890.57" y="-2579.3" font-family="Times,serif" font-size="14.00">Sachau 336</text>
</g>
<!-- v42 -->
<g id="node43" class="node">
<title>v42</title>
<ellipse fill="none" stroke="black" cx="893.57" cy="-18" rx="27" ry="18"/>
</g>
<!-- v0&#45;&gt;v42 -->
<g id="edge58" class="edge">
<title>v0&#45;&gt;v42</title>
<path fill="none" stroke="white" d="M891.43,-2661.41C922.13,-2649.97 971.57,-2625.16 971.57,-2584 971.57,-2584 971.57,-2584 971.57,-104 971.57,-73.94 944.76,-49.91 922.58,-35.18"/>
<polygon fill="white" stroke="white" points="924.39,-32.18 914.06,-29.81 920.66,-38.1 924.39,-32.18"/>
</g>
<!-- v1&#45;&gt;v2 -->
<g id="edge3" class="edge">
<title>v1&#45;&gt;v2</title>
<path fill="none" stroke="black" d="M657.6,-2565.31C694.8,-2550.53 748.88,-2529.05 786.43,-2514.14"/>
<polygon fill="black" stroke="black" points="788.07,-2517.25 796.07,-2510.31 785.49,-2510.74 788.07,-2517.25"/>
<text text-anchor="middle" x="747.07" y="-2535.8" font-family="Times,serif" font-size="14.00">433</text>
</g>
<!-- v3 -->
<g id="node4" class="node">
<title>v3</title>
<ellipse fill="none" stroke="black" cx="861.57" cy="-2355" rx="35.19" ry="18"/>
<text text-anchor="middle" x="861.57" y="-2351.3" font-family="Times,serif" font-size="14.00">ܫܒܪܐ܂</text>
</g>
<!-- v2&#45;&gt;v3 -->
<g id="edge4" class="edge">
<title>v2&#45;&gt;v3</title>
<path fill="none" stroke="black" d="M833.49,-2477.96C838.94,-2454.3 848.85,-2411.26 855.32,-2383.15"/>
<polygon fill="black" stroke="black" points="858.78,-2383.71 857.62,-2373.18 851.96,-2382.14 858.78,-2383.71"/>
<text text-anchor="middle" x="879.57" y="-2448.8" font-family="Times,serif" font-size="14.00">Sachau 336</text>
</g>
<!-- v4 -->
<g id="node5" class="node">
<title>v4</title>
<ellipse fill="none" stroke="black" cx="799.57" cy="-2409" rx="30.59" ry="18"/>
<text text-anchor="middle" x="799.57" y="-2405.3" font-family="Times,serif" font-size="14.00">ܣܟܠܐ</text>
</g>
<!-- v2&#45;&gt;v4 -->
<g id="edge5" class="edge">
<title>v2&#45;&gt;v4</title>
<path fill="none" stroke="black" d="M821.85,-2478.07C819.39,-2472.38 816.74,-2465.97 814.57,-2460 811.85,-2452.5 809.23,-2444.25 806.96,-2436.65"/>
<polygon fill="black" stroke="black" points="810.25,-2435.45 804.1,-2426.82 803.53,-2437.4 810.25,-2435.45"/>
<text text-anchor="middle" x="826.07" y="-2448.8" font-family="Times,serif" font-size="14.00">433</text>
</g>
<!-- v6 -->
<g id="node7" class="node">
<title>v6</title>
<ellipse fill="none" stroke="black" cx="855.57" cy="-2214" rx="30.59" ry="18"/>
<text text-anchor="middle" x="855.57" y="-2210.3" font-family="Times,serif" font-size="14.00">ܡܠܬܐ</text>
</g>
<!-- v3&#45;&gt;v6 -->
<g id="edge6" class="edge">
<title>v3&#45;&gt;v6</title>
<path fill="none" stroke="black" d="M860.84,-2336.96C859.82,-2313.4 857.97,-2270.64 856.76,-2242.53"/>
<polygon fill="black" stroke="black" points="860.24,-2242.02 856.31,-2232.18 853.25,-2242.33 860.24,-2242.02"/>
<text text-anchor="middle" x="898.57" y="-2297.3" font-family="Times,serif" font-size="14.00">Sachau 336</text>
</g>
<!-- v5 -->
<g id="node6" class="node">
<title>v5</title>
<ellipse fill="none" stroke="black" cx="798.57" cy="-2301" rx="27" ry="18"/>
<text text-anchor="middle" x="798.57" y="-2297.3" font-family="Times,serif" font-size="14.00">ܗܕܐ</text>
</g>
<!-- v4&#45;&gt;v5 -->
<g id="edge7" class="edge">
<title>v4&#45;&gt;v5</title>
<path fill="none" stroke="black" d="M796.64,-2390.96C795.8,-2385.27 794.99,-2378.88 794.57,-2373 793.44,-2357.04 793.66,-2352.97 794.57,-2337 794.72,-2334.44 794.92,-2331.77 795.16,-2329.11"/>
<polygon fill="black" stroke="black" points="798.66,-2329.37 796.23,-2319.06 791.7,-2328.63 798.66,-2329.37"/>
<text text-anchor="middle" x="806.07" y="-2351.3" font-family="Times,serif" font-size="14.00">433</text>
</g>
<!-- v5&#45;&gt;v6 -->
<g id="edge8" class="edge">
<title>v5&#45;&gt;v6</title>
<path fill="none" stroke="black" d="M806.03,-2283.2C810.77,-2273.21 817.37,-2260.48 824.57,-2250 827.41,-2245.87 830.68,-2241.7 834.02,-2237.74"/>
<polygon fill="black" stroke="black" points="836.84,-2239.83 840.82,-2230.01 831.59,-2235.2 836.84,-2239.83"/>
<text text-anchor="middle" x="836.07" y="-2253.8" font-family="Times,serif" font-size="14.00">433</text>
</g>
<!-- v7 -->
<g id="node8" class="node">
<title>v7</title>
<ellipse fill="none" stroke="black" cx="810.57" cy="-2127" rx="27" ry="18"/>
<text text-anchor="middle" x="810.57" y="-2123.3" font-family="Times,serif" font-size="14.00">ܗܕܐ</text>
</g>
<!-- v5&#45;&gt;v7 -->
<g id="edge57" class="edge">
<title>v5&#45;&gt;v7</title>
<path fill="none" stroke="lightgray" stroke-dasharray="5,2" d="M799.77,-2282.88C802.07,-2249.91 807.08,-2177.97 809.38,-2145.05"/>
</g>
<!-- v6&#45;&gt;v7 -->
<g id="edge9" class="edge">
<title>v6&#45;&gt;v7</title>
<path fill="none" stroke="black" d="M840.03,-2198.48C834.48,-2192.58 828.61,-2185.41 824.57,-2178 820.67,-2170.85 817.78,-2162.51 815.67,-2154.72"/>
<polygon fill="black" stroke="black" points="819.06,-2153.85 813.33,-2144.94 812.25,-2155.48 819.06,-2153.85"/>
<text text-anchor="middle" x="862.57" y="-2166.8" font-family="Times,serif" font-size="14.00">Sachau 336</text>
</g>
<!-- v8 -->
<g id="node9" class="node">
<title>v8</title>
<ellipse fill="none" stroke="black" cx="922.57" cy="-2073" rx="30.59" ry="18"/>
<text text-anchor="middle" x="922.57" y="-2069.3" font-family="Times,serif" font-size="14.00">ܡܚܕܐ</text>
</g>
<!-- v6&#45;&gt;v8 -->
<g id="edge10" class="edge">
<title>v6&#45;&gt;v8</title>
<path fill="none" stroke="black" d="M877.15,-2200.84C885.68,-2194.99 894.8,-2187.23 900.57,-2178 915.12,-2154.74 920.19,-2123.42 921.89,-2101.25"/>
<polygon fill="black" stroke="black" points="925.39,-2101.36 922.47,-2091.17 918.4,-2100.95 925.39,-2101.36"/>
<text text-anchor="middle" x="919.07" y="-2166.8" font-family="Times,serif" font-size="14.00">433</text>
</g>
<!-- v9 -->
<g id="node10" class="node">
<title>v9</title>
<ellipse fill="none" stroke="black" cx="818.57" cy="-2019" rx="44.69" ry="18"/>
<text text-anchor="middle" x="818.57" y="-2015.3" font-family="Times,serif" font-size="14.00">ܒܗܝܫܥܬܐ</text>
</g>
<!-- v7&#45;&gt;v9 -->
<g id="edge11" class="edge">
<title>v7&#45;&gt;v9</title>
<path fill="none" stroke="black" d="M807.52,-2108.96C805.42,-2094.5 803.53,-2073.27 806.57,-2055 807.03,-2052.24 807.68,-2049.41 808.44,-2046.61"/>
<polygon fill="black" stroke="black" points="811.87,-2047.39 811.56,-2036.8 805.2,-2045.27 811.87,-2047.39"/>
<text text-anchor="middle" x="844.57" y="-2069.3" font-family="Times,serif" font-size="14.00">Sachau 336</text>
</g>
<!-- v10 -->
<g id="node11" class="node">
<title>v10</title>
<ellipse fill="none" stroke="black" cx="824.57" cy="-1932" rx="27" ry="18"/>
<text text-anchor="middle" x="824.57" y="-1928.3" font-family="Times,serif" font-size="14.00">ܢܦܚ</text>
</g>
<!-- v8&#45;&gt;v10 -->
<g id="edge12" class="edge">
<title>v8&#45;&gt;v10</title>
<path fill="none" stroke="black" d="M923.83,-2054.93C924.55,-2032.57 922.54,-1993.23 902.57,-1968 891.99,-1954.63 875.21,-1946.22 859.91,-1941"/>
<polygon fill="black" stroke="black" points="860.75,-1937.59 850.16,-1938.01 858.7,-1944.28 860.75,-1937.59"/>
<text text-anchor="middle" x="935.07" y="-2015.3" font-family="Times,serif" font-size="14.00">433</text>
</g>
<!-- v9&#45;&gt;v10 -->
<g id="edge13" class="edge">
<title>v9&#45;&gt;v10</title>
<path fill="none" stroke="black" d="M819.79,-2000.8C820.61,-1989.16 821.71,-1973.55 822.65,-1960.24"/>
<polygon fill="black" stroke="black" points="826.15,-1960.4 823.36,-1950.18 819.16,-1959.9 826.15,-1960.4"/>
<text text-anchor="middle" x="860.57" y="-1971.8" font-family="Times,serif" font-size="14.00">Sachau 336</text>
</g>
<!-- v11 -->
<g id="node12" class="node">
<title>v11</title>
<ellipse fill="none" stroke="black" cx="833.57" cy="-1845" rx="108.58" ry="18"/>
<text text-anchor="middle" x="833.57" y="-1841.3" font-family="Times,serif" font-size="14.00">ܓܘܡܬܗܐܘܟܝܬܓܘܫܡܗ܂ܘܗܘܐ</text>
</g>
<!-- v10&#45;&gt;v11 -->
<g id="edge14" class="edge">
<title>v10&#45;&gt;v11</title>
<path fill="none" stroke="black" d="M826.39,-1913.8C827.62,-1902.16 829.28,-1886.55 830.69,-1873.24"/>
<polygon fill="black" stroke="black" points="834.18,-1873.49 831.75,-1863.18 827.22,-1872.75 834.18,-1873.49"/>
<text text-anchor="middle" x="868.57" y="-1884.8" font-family="Times,serif" font-size="14.00">Sachau 336</text>
</g>
<!-- v12 -->
<g id="node13" class="node">
<title>v12</title>
<ellipse fill="none" stroke="black" cx="679.57" cy="-1845" rx="27" ry="18"/>
<text text-anchor="middle" x="679.57" y="-1841.3" font-family="Times,serif" font-size="14.00">ܘܦܫ</text>
</g>
<!-- v10&#45;&gt;v12 -->
<g id="edge15" class="edge">
<title>v10&#45;&gt;v12</title>
<path fill="none" stroke="black" d="M805.02,-1919.54C780.04,-1904.9 736.65,-1879.46 708.01,-1862.67"/>
<polygon fill="black" stroke="black" points="709.68,-1859.59 699.28,-1857.55 706.14,-1865.63 709.68,-1859.59"/>
<text text-anchor="middle" x="773.07" y="-1884.8" font-family="Times,serif" font-size="14.00">433</text>
</g>
<!-- v13 -->
<g id="node14" class="node">
<title>v13</title>
<ellipse fill="none" stroke="black" cx="734.57" cy="-1758" rx="69.59" ry="18"/>
<text text-anchor="middle" x="734.57" y="-1754.3" font-family="Times,serif" font-size="14.00">ܐܝܟܙܩܐܢܦܝܚܐ܂</text>
</g>
<!-- v11&#45;&gt;v13 -->
<g id="edge16" class="edge">
<title>v11&#45;&gt;v13</title>
<path fill="none" stroke="black" d="M814.01,-1827.21C799,-1814.32 778.1,-1796.38 761.51,-1782.13"/>
<polygon fill="black" stroke="black" points="763.62,-1779.33 753.75,-1775.47 759.06,-1784.64 763.62,-1779.33"/>
<text text-anchor="middle" x="828.57" y="-1797.8" font-family="Times,serif" font-size="14.00">Sachau 336</text>
</g>
<!-- v12&#45;&gt;v13 -->
<g id="edge17" class="edge">
<title>v12&#45;&gt;v13</title>
<path fill="none" stroke="black" d="M689.92,-1828.01C697.83,-1815.78 708.9,-1798.68 718.03,-1784.56"/>
<polygon fill="black" stroke="black" points="721.21,-1786.09 723.71,-1775.79 715.34,-1782.28 721.21,-1786.09"/>
<text text-anchor="middle" x="722.07" y="-1797.8" font-family="Times,serif" font-size="14.00">433</text>
</g>
<!-- v14 -->
<g id="node15" class="node">
<title>v14</title>
<ellipse fill="none" stroke="black" cx="826.57" cy="-1671" rx="89.08" ry="18"/>
<text text-anchor="middle" x="826.57" y="-1667.3" font-family="Times,serif" font-size="14.00">ܘܢܦܩܓܘܝܗܥܡܡܠܘܗ̈ܝ</text>
</g>
<!-- v13&#45;&gt;v14 -->
<g id="edge18" class="edge">
<title>v13&#45;&gt;v14</title>
<path fill="none" stroke="black" d="M752.75,-1740.21C766.48,-1727.52 785.52,-1709.93 800.82,-1695.79"/>
<polygon fill="black" stroke="black" points="803.46,-1698.12 808.43,-1688.76 798.71,-1692.97 803.46,-1698.12"/>
<text text-anchor="middle" x="824.57" y="-1710.8" font-family="Times,serif" font-size="14.00">Sachau 336</text>
</g>
<!-- v15 -->
<g id="node16" class="node">
<title>v15</title>
<ellipse fill="none" stroke="black" cx="655.57" cy="-1671" rx="64.19" ry="18"/>
<text text-anchor="middle" x="655.57" y="-1667.3" font-family="Times,serif" font-size="14.00">ܘܢܦܠܐܠܥܘ̈ܗܝ</text>
</g>
<!-- v13&#45;&gt;v15 -->
<g id="edge19" class="edge">
<title>v13&#45;&gt;v15</title>
<path fill="none" stroke="black" d="M718.96,-1740.21C707.28,-1727.63 691.12,-1710.25 678.05,-1696.18"/>
<polygon fill="black" stroke="black" points="680.52,-1693.7 671.15,-1688.76 675.39,-1698.47 680.52,-1693.7"/>
<text text-anchor="middle" x="712.07" y="-1710.8" font-family="Times,serif" font-size="14.00">433</text>
</g>
<!-- v16 -->
<g id="node17" class="node">
<title>v16</title>
<ellipse fill="none" stroke="black" cx="717.57" cy="-1584" rx="27" ry="18"/>
<text text-anchor="middle" x="717.57" y="-1580.3" font-family="Times,serif" font-size="14.00">ܡܢ</text>
</g>
<!-- v14&#45;&gt;v16 -->
<g id="edge20" class="edge">
<title>v14&#45;&gt;v16</title>
<path fill="none" stroke="black" d="M805.3,-1653.41C787.27,-1639.35 761.4,-1619.18 742.43,-1604.38"/>
<polygon fill="black" stroke="black" points="744.54,-1601.59 734.5,-1598.2 740.24,-1607.11 744.54,-1601.59"/>
<text text-anchor="middle" x="817.57" y="-1623.8" font-family="Times,serif" font-size="14.00">Sachau 336</text>
</g>
<!-- v15&#45;&gt;v16 -->
<g id="edge21" class="edge">
<title>v15&#45;&gt;v16</title>
<path fill="none" stroke="black" d="M667.82,-1653.21C677.06,-1640.55 689.85,-1623.01 700.15,-1608.89"/>
<polygon fill="black" stroke="black" points="703.12,-1610.75 706.18,-1600.61 697.46,-1606.63 703.12,-1610.75"/>
<text text-anchor="middle" x="702.07" y="-1623.8" font-family="Times,serif" font-size="14.00">433</text>
</g>
<!-- v17 -->
<g id="node18" class="node">
<title>v17</title>
<ellipse fill="none" stroke="black" cx="765.57" cy="-1497" rx="161.67" ry="18"/>
<text text-anchor="middle" x="765.57" y="-1493.3" font-family="Times,serif" font-size="14.00">ܕܦܢܬ̈ܗܡܢܛܢܢܗܒܝܫܐܐܬܦܪܝܘܐܨܛܪܝܘܡܝܬ</text>
</g>
<!-- v16&#45;&gt;v17 -->
<g id="edge22" class="edge">
<title>v16&#45;&gt;v17</title>
<path fill="none" stroke="black" d="M726.6,-1567.01C733.46,-1554.86 743.04,-1537.9 750.98,-1523.83"/>
<polygon fill="black" stroke="black" points="754.05,-1525.51 755.92,-1515.08 747.96,-1522.07 754.05,-1525.51"/>
<text text-anchor="middle" x="756.07" y="-1536.8" font-family="Times,serif" font-size="14.00">433</text>
</g>
<!-- v18 -->
<g id="node19" class="node">
<title>v18</title>
<ellipse fill="none" stroke="black" cx="394.57" cy="-1497" rx="191.17" ry="18"/>
<text text-anchor="middle" x="394.57" y="-1493.3" font-family="Times,serif" font-size="14.00">ܡܬܢ̈ܬܗ܂ܘܡܢܨܦܬܗܒܝܫܬܐܐܫܬܠܗܒܘܚܡܐܘܝܪܩܘܡܚܠ</text>
</g>
<!-- v16&#45;&gt;v18 -->
<g id="edge23" class="edge">
<title>v16&#45;&gt;v18</title>
<path fill="none" stroke="black" d="M692.76,-1576.47C644.72,-1563.83 537.41,-1535.59 465.5,-1516.67"/>
<polygon fill="black" stroke="black" points="466.16,-1513.22 455.6,-1514.06 464.38,-1519.99 466.16,-1513.22"/>
<text text-anchor="middle" x="613.57" y="-1536.8" font-family="Times,serif" font-size="14.00">Sachau 336</text>
</g>
<!-- v19 -->
<g id="node20" class="node">
<title>v19</title>
<ellipse fill="none" stroke="black" cx="729.57" cy="-1410" rx="30.59" ry="18"/>
<text text-anchor="middle" x="729.57" y="-1406.3" font-family="Times,serif" font-size="14.00">ܘܐܒܕ</text>
</g>
<!-- v17&#45;&gt;v19 -->
<g id="edge24" class="edge">
<title>v17&#45;&gt;v19</title>
<path fill="none" stroke="black" d="M758.29,-1478.8C753.19,-1466.78 746.3,-1450.51 740.55,-1436.92"/>
<polygon fill="black" stroke="black" points="743.72,-1435.44 736.6,-1427.6 737.28,-1438.17 743.72,-1435.44"/>
<text text-anchor="middle" x="762.07" y="-1449.8" font-family="Times,serif" font-size="14.00">433</text>
</g>
<!-- v18&#45;&gt;v19 -->
<g id="edge25" class="edge">
<title>v18&#45;&gt;v19</title>
<path fill="none" stroke="black" d="M457.98,-1479.91C527.08,-1462.38 635.36,-1434.9 692.07,-1420.52"/>
<polygon fill="black" stroke="black" points="693.2,-1423.84 702.04,-1417.99 691.48,-1417.05 693.2,-1423.84"/>
<text text-anchor="middle" x="620.57" y="-1449.8" font-family="Times,serif" font-size="14.00">Sachau 336</text>
</g>
<!-- v20 -->
<g id="node21" class="node">
<title>v20</title>
<ellipse fill="none" stroke="black" cx="768.57" cy="-1323" rx="30.59" ry="18"/>
<text text-anchor="middle" x="768.57" y="-1319.3" font-family="Times,serif" font-size="14.00">ܘܗܘܬ</text>
</g>
<!-- v19&#45;&gt;v20 -->
<g id="edge26" class="edge">
<title>v19&#45;&gt;v20</title>
<path fill="none" stroke="black" d="M737.28,-1392.21C742.81,-1380.14 750.38,-1363.64 756.69,-1349.89"/>
<polygon fill="black" stroke="black" points="760.03,-1351.02 761.01,-1340.47 753.66,-1348.1 760.03,-1351.02"/>
<text text-anchor="middle" x="763.07" y="-1362.8" font-family="Times,serif" font-size="14.00">433</text>
</g>
<!-- v21 -->
<g id="node22" class="node">
<title>v21</title>
<ellipse fill="none" stroke="black" cx="665.57" cy="-1323" rx="54.69" ry="18"/>
<text text-anchor="middle" x="665.57" y="-1319.3" font-family="Times,serif" font-size="14.00">ܘܡܝܬ܂ܘܦܫܬ</text>
</g>
<!-- v19&#45;&gt;v21 -->
<g id="edge27" class="edge">
<title>v19&#45;&gt;v21</title>
<path fill="none" stroke="black" d="M702.85,-1400.85C689.88,-1395.42 675.43,-1386.87 667.57,-1374 663.52,-1367.37 662.06,-1359.28 661.87,-1351.55"/>
<polygon fill="black" stroke="black" points="665.37,-1351.54 662.27,-1341.41 658.37,-1351.26 665.37,-1351.54"/>
<text text-anchor="middle" x="705.57" y="-1362.8" font-family="Times,serif" font-size="14.00">Sachau 336</text>
</g>
<!-- v22 -->
<g id="node23" class="node">
<title>v22</title>
<ellipse fill="none" stroke="black" cx="751.57" cy="-1236" rx="30.59" ry="18"/>
<text text-anchor="middle" x="751.57" y="-1232.3" font-family="Times,serif" font-size="14.00">ܚܪܬܗ</text>
</g>
<!-- v20&#45;&gt;v22 -->
<g id="edge28" class="edge">
<title>v20&#45;&gt;v22</title>
<path fill="none" stroke="black" d="M765.13,-1304.8C762.8,-1293.16 759.68,-1277.55 757.02,-1264.24"/>
<polygon fill="black" stroke="black" points="760.4,-1263.29 755.01,-1254.18 753.54,-1264.67 760.4,-1263.29"/>
<text text-anchor="middle" x="773.07" y="-1275.8" font-family="Times,serif" font-size="14.00">433</text>
</g>
<!-- v21&#45;&gt;v22 -->
<g id="edge29" class="edge">
<title>v21&#45;&gt;v22</title>
<path fill="none" stroke="black" d="M666.88,-1304.6C668.46,-1294.14 671.94,-1281.13 679.57,-1272 688.66,-1261.12 701.93,-1253.35 714.62,-1247.94"/>
<polygon fill="black" stroke="black" points="716.06,-1251.14 724.12,-1244.26 713.53,-1244.61 716.06,-1251.14"/>
<text text-anchor="middle" x="717.57" y="-1275.8" font-family="Times,serif" font-size="14.00">Sachau 336</text>
</g>
<!-- v23 -->
<g id="node24" class="node">
<title>v23</title>
<ellipse fill="none" stroke="black" cx="848.57" cy="-1149" rx="44.69" ry="18"/>
<text text-anchor="middle" x="848.57" y="-1145.3" font-family="Times,serif" font-size="14.00">ܠܐܒܕܢܐ܂</text>
</g>
<!-- v22&#45;&gt;v23 -->
<g id="edge30" class="edge">
<title>v22&#45;&gt;v23</title>
<path fill="none" stroke="black" d="M776.16,-1225.02C788.89,-1219.04 804.11,-1210.55 815.57,-1200 823.1,-1193.07 829.72,-1184.08 835.01,-1175.64"/>
<polygon fill="black" stroke="black" points="838.15,-1177.2 840.22,-1166.81 832.12,-1173.65 838.15,-1177.2"/>
<text text-anchor="middle" x="840.07" y="-1188.8" font-family="Times,serif" font-size="14.00">433</text>
</g>
<!-- v24 -->
<g id="node25" class="node">
<title>v24</title>
<ellipse fill="none" stroke="black" cx="725.57" cy="-1149" rx="59.59" ry="18"/>
<text text-anchor="middle" x="725.57" y="-1145.3" font-family="Times,serif" font-size="14.00">ܠܐܒܕܢܐܘܡܛܐ</text>
</g>
<!-- v22&#45;&gt;v24 -->
<g id="edge31" class="edge">
<title>v22&#45;&gt;v24</title>
<path fill="none" stroke="black" d="M745.64,-1218.33C743.64,-1212.55 741.44,-1206.01 739.57,-1200 737.25,-1192.54 734.9,-1184.41 732.8,-1176.91"/>
<polygon fill="black" stroke="black" points="736.15,-1175.91 730.12,-1167.2 729.41,-1177.77 736.15,-1175.91"/>
<text text-anchor="middle" x="777.57" y="-1188.8" font-family="Times,serif" font-size="14.00">Sachau 336</text>
</g>
<!-- v25 -->
<g id="node26" class="node">
<title>v25</title>
<ellipse fill="none" stroke="black" cx="770.57" cy="-1062" rx="30.59" ry="18"/>
<text text-anchor="middle" x="770.57" y="-1058.3" font-family="Times,serif" font-size="14.00">ܘܐܙܠ</text>
</g>
<!-- v23&#45;&gt;v25 -->
<g id="edge32" class="edge">
<title>v23&#45;&gt;v25</title>
<path fill="none" stroke="black" d="M841.43,-1131.03C836.55,-1120.73 829.38,-1107.74 820.57,-1098 814.87,-1091.7 807.84,-1085.92 800.87,-1080.94"/>
<polygon fill="black" stroke="black" points="802.43,-1077.77 792.18,-1075.09 798.52,-1083.58 802.43,-1077.77"/>
<text text-anchor="middle" x="843.07" y="-1101.8" font-family="Times,serif" font-size="14.00">433</text>
</g>
<!-- v24&#45;&gt;v25 -->
<g id="edge33" class="edge">
<title>v24&#45;&gt;v25</title>
<path fill="none" stroke="black" d="M730.79,-1130.82C734.11,-1120.93 738.86,-1108.43 744.57,-1098 746.66,-1094.19 749.11,-1090.33 751.67,-1086.63"/>
<polygon fill="black" stroke="black" points="754.61,-1088.54 757.69,-1078.41 748.96,-1084.41 754.61,-1088.54"/>
<text text-anchor="middle" x="782.57" y="-1101.8" font-family="Times,serif" font-size="14.00">Sachau 336</text>
</g>
<!-- v26 -->
<g id="node27" class="node">
<title>v26</title>
<ellipse fill="none" stroke="black" cx="846.57" cy="-975" rx="89.08" ry="18"/>
<text text-anchor="middle" x="846.57" y="-971.3" font-family="Times,serif" font-size="14.00">ܠܓܗܢܐܘܒܝܫܐܒܒܝܫܬܗ</text>
</g>
<!-- v25&#45;&gt;v26 -->
<g id="edge34" class="edge">
<title>v25&#45;&gt;v26</title>
<path fill="none" stroke="black" d="M784.16,-1045.8C795.4,-1033.23 811.58,-1015.14 824.65,-1000.52"/>
<polygon fill="black" stroke="black" points="827.48,-1002.6 831.54,-992.81 822.26,-997.93 827.48,-1002.6"/>
<text text-anchor="middle" x="825.07" y="-1014.8" font-family="Times,serif" font-size="14.00">433</text>
</g>
<!-- v27 -->
<g id="node28" class="node">
<title>v27</title>
<ellipse fill="none" stroke="black" cx="601.57" cy="-975" rx="137.58" ry="18"/>
<text text-anchor="middle" x="601.57" y="-971.3" font-family="Times,serif" font-size="14.00">ܠܓܗܢܐ܂ܒܝܢ̈ܬܚܣܡ̈ܐܘܫܒܗِܪ̈ܢܐ܂</text>
</g>
<!-- v25&#45;&gt;v27 -->
<g id="edge35" class="edge">
<title>v25&#45;&gt;v27</title>
<path fill="none" stroke="black" d="M748.13,-1049.71C721.54,-1036.34 676.67,-1013.77 643.57,-997.12"/>
<polygon fill="black" stroke="black" points="645.08,-993.97 634.57,-992.6 641.93,-1000.22 645.08,-993.97"/>
<text text-anchor="middle" x="734.57" y="-1014.8" font-family="Times,serif" font-size="14.00">Sachau 336</text>
</g>
<!-- v28 -->
<g id="node29" class="node">
<title>v28</title>
<ellipse fill="none" stroke="black" cx="738.57" cy="-888" rx="74.19" ry="18"/>
<text text-anchor="middle" x="738.57" y="-884.3" font-family="Times,serif" font-size="14.00">ܐܝܟܕܐܡܝܪܒܟܬܒܐ</text>
</g>
<!-- v26&#45;&gt;v28 -->
<g id="edge36" class="edge">
<title>v26&#45;&gt;v28</title>
<path fill="none" stroke="black" d="M825.49,-957.41C808.99,-944.42 785.85,-926.21 767.6,-911.85"/>
<polygon fill="black" stroke="black" points="769.62,-908.98 759.6,-905.55 765.29,-914.48 769.62,-908.98"/>
<text text-anchor="middle" x="811.07" y="-927.8" font-family="Times,serif" font-size="14.00">433</text>
</g>
<!-- v27&#45;&gt;v28 -->
<g id="edge37" class="edge">
<title>v27&#45;&gt;v28</title>
<path fill="none" stroke="black" d="M628.64,-957.21C650.35,-943.74 680.96,-924.75 704.37,-910.22"/>
<polygon fill="black" stroke="black" points="706.3,-913.14 712.95,-904.9 702.61,-907.19 706.3,-913.14"/>
<text text-anchor="middle" x="716.57" y="-927.8" font-family="Times,serif" font-size="14.00">Sachau 336</text>
</g>
<!-- v29 -->
<g id="node30" class="node">
<title>v29</title>
<ellipse fill="none" stroke="black" cx="805.57" cy="-801" rx="132.68" ry="18"/>
<text text-anchor="middle" x="805.57" y="-797.3" font-family="Times,serif" font-size="14.00">ܕܡܬ̈ܠܐܘܒܡܙܡܘܪ̈ܐܕܕܘܝܕܡܠܟܐ܂</text>
</g>
<!-- v28&#45;&gt;v29 -->
<g id="edge38" class="edge">
<title>v28&#45;&gt;v29</title>
<path fill="none" stroke="black" d="M751.81,-870.21C761.47,-857.95 774.74,-841.11 785.68,-827.24"/>
<polygon fill="black" stroke="black" points="788.69,-829.07 792.13,-819.05 783.19,-824.74 788.69,-829.07"/>
<text text-anchor="middle" x="814.57" y="-840.8" font-family="Times,serif" font-size="14.00">Sachau 336</text>
</g>
<!-- v30 -->
<g id="node31" class="node">
<title>v30</title>
<ellipse fill="none" stroke="black" cx="327.57" cy="-801" rx="327.64" ry="18"/>
<text text-anchor="middle" x="327.57" y="-797.3" font-family="Times,serif" font-size="14.00">ܕܡܬ̈ܠܐ܁ܡܢܕܥܒܕܛܒܬܐܒܛܒܬܐܢܐܪܥܝܘܗܝܘܡܢܕܥܒܕܒܝܫܬܐ܂ܒܝܫܬܐܬܙܦܚܥܠܘܗܝ܂ܘܗܘܕܚܦܪ</text>
</g>
<!-- v28&#45;&gt;v30 -->
<g id="edge39" class="edge">
<title>v28&#45;&gt;v30</title>
<path fill="none" stroke="black" d="M683.99,-875.71C616.04,-861.66 499.02,-837.46 417.69,-820.64"/>
<polygon fill="black" stroke="black" points="417.95,-817.12 407.45,-818.52 416.54,-823.97 417.95,-817.12"/>
<text text-anchor="middle" x="570.07" y="-840.8" font-family="Times,serif" font-size="14.00">433</text>
</g>
<!-- v31 -->
<g id="node32" class="node">
<title>v31</title>
<ellipse fill="none" stroke="black" cx="631.57" cy="-714" rx="27" ry="18"/>
<text text-anchor="middle" x="631.57" y="-710.3" font-family="Times,serif" font-size="14.00">ܒܪܐ</text>
</g>
<!-- v29&#45;&gt;v31 -->
<g id="edge40" class="edge">
<title>v29&#45;&gt;v31</title>
<path fill="none" stroke="black" d="M771.61,-783.41C739.84,-767.89 692.81,-744.92 662.17,-729.95"/>
<polygon fill="black" stroke="black" points="663.37,-726.64 652.84,-725.39 660.29,-732.93 663.37,-726.64"/>
<text text-anchor="middle" x="767.57" y="-753.8" font-family="Times,serif" font-size="14.00">Sachau 336</text>
</g>
<!-- v30&#45;&gt;v31 -->
<g id="edge41" class="edge">
<title>v30&#45;&gt;v31</title>
<path fill="none" stroke="black" d="M387.63,-783.21C450.28,-765.69 546.31,-738.84 597.18,-724.62"/>
<polygon fill="black" stroke="black" points="598.34,-727.93 607.03,-721.86 596.45,-721.19 598.34,-727.93"/>
<text text-anchor="middle" x="510.07" y="-753.8" font-family="Times,serif" font-size="14.00">433</text>
</g>
<!-- v32 -->
<g id="node33" class="node">
<title>v32</title>
<ellipse fill="none" stroke="black" cx="681.57" cy="-627" rx="40.09" ry="18"/>
<text text-anchor="middle" x="681.57" y="-623.3" font-family="Times,serif" font-size="14.00">ܠܚܒܪܗ܂</text>
</g>
<!-- v31&#45;&gt;v32 -->
<g id="edge42" class="edge">
<title>v31&#45;&gt;v32</title>
<path fill="none" stroke="black" d="M640.98,-697.01C648.22,-684.7 658.36,-667.46 666.7,-653.28"/>
<polygon fill="black" stroke="black" points="669.81,-654.89 671.87,-644.5 663.78,-651.34 669.81,-654.89"/>
<text text-anchor="middle" x="671.07" y="-666.8" font-family="Times,serif" font-size="14.00">433</text>
</g>
<!-- v33 -->
<g id="node34" class="node">
<title>v33</title>
<ellipse fill="none" stroke="black" cx="500.57" cy="-627" rx="122.68" ry="18"/>
<text text-anchor="middle" x="500.57" y="-623.3" font-family="Times,serif" font-size="14.00">ܚܦܪܘܚܛܗ܂ܘܢܦܠܒܓܘܡܨܐܕܥܒܕ܂</text>
</g>
<!-- v31&#45;&gt;v33 -->
<g id="edge43" class="edge">
<title>v31&#45;&gt;v33</title>
<path fill="none" stroke="black" d="M612.18,-701.38C601.09,-694.66 586.97,-685.99 574.57,-678 560.91,-669.2 546.03,-659.22 533.22,-650.51"/>
<polygon fill="black" stroke="black" points="534.96,-647.45 524.72,-644.71 531.01,-653.24 534.96,-647.45"/>
<text text-anchor="middle" x="612.57" y="-666.8" font-family="Times,serif" font-size="14.00">Sachau 336</text>
</g>
<!-- v34 -->
<g id="node35" class="node">
<title>v34</title>
<ellipse fill="none" stroke="black" cx="629.57" cy="-540" rx="27" ry="18"/>
<text text-anchor="middle" x="629.57" y="-536.3" font-family="Times,serif" font-size="14.00">ܘܗܘ</text>
</g>
<!-- v32&#45;&gt;v34 -->
<g id="edge44" class="edge">
<title>v32&#45;&gt;v34</title>
<path fill="none" stroke="black" d="M671.3,-609.21C663.67,-596.74 653.16,-579.56 644.59,-565.56"/>
<polygon fill="black" stroke="black" points="647.5,-563.6 639.3,-556.9 641.53,-567.25 647.5,-563.6"/>
<text text-anchor="middle" x="671.07" y="-579.8" font-family="Times,serif" font-size="14.00">433</text>
</g>
<!-- v33&#45;&gt;v34 -->
<g id="edge45" class="edge">
<title>v33&#45;&gt;v34</title>
<path fill="none" stroke="black" d="M524.02,-609.22C537.98,-599.35 556.14,-586.74 572.57,-576 581.83,-569.95 592.09,-563.56 601.32,-557.91"/>
<polygon fill="black" stroke="black" points="603.41,-560.74 610.14,-552.56 599.78,-554.76 603.41,-560.74"/>
<text text-anchor="middle" x="610.57" y="-579.8" font-family="Times,serif" font-size="14.00">Sachau 336</text>
</g>
<!-- v35 -->
<g id="node36" class="node">
<title>v35</title>
<ellipse fill="none" stroke="black" cx="799.57" cy="-453" rx="132.68" ry="18"/>
<text text-anchor="middle" x="799.57" y="-449.3" font-family="Times,serif" font-size="14.00">ܕܥܒܕ܆ܒܝܫܬܐܬܨܘܕܝܘܗܝܠܐܒܕܢܐ܀</text>
</g>
<!-- v34&#45;&gt;v35 -->
<g id="edge46" class="edge">
<title>v34&#45;&gt;v35</title>
<path fill="none" stroke="black" d="M650.76,-528.41C677.28,-515.15 723.34,-492.12 757.21,-475.18"/>
<polygon fill="black" stroke="black" points="759.03,-478.18 766.41,-470.58 755.9,-471.92 759.03,-478.18"/>
<text text-anchor="middle" x="763.57" y="-492.8" font-family="Times,serif" font-size="14.00">Sachau 336</text>
</g>
<!-- v36 -->
<g id="node37" class="node">
<title>v36</title>
<ellipse fill="none" stroke="black" cx="598.57" cy="-453" rx="50.09" ry="18"/>
<text text-anchor="middle" x="598.57" y="-449.3" font-family="Times,serif" font-size="14.00">ܢܦܠܒܓܘܗ܂</text>
</g>
<!-- v34&#45;&gt;v36 -->
<g id="edge47" class="edge">
<title>v34&#45;&gt;v36</title>
<path fill="none" stroke="black" d="M623.45,-522.21C619.14,-510.41 613.3,-494.38 608.35,-480.82"/>
<polygon fill="black" stroke="black" points="611.5,-479.24 604.79,-471.05 604.93,-481.64 611.5,-479.24"/>
<text text-anchor="middle" x="628.07" y="-492.8" font-family="Times,serif" font-size="14.00">433</text>
</g>
<!-- v37 -->
<g id="node38" class="node">
<title>v37</title>
<ellipse fill="none" stroke="black" cx="784.57" cy="-366" rx="93.68" ry="18"/>
<text text-anchor="middle" x="784.57" y="-362.3" font-family="Times,serif" font-size="14.00">ܘܗܘܕܨܠܐܦܚܐܠܐܚܘܗܝ܂</text>
</g>
<!-- v35&#45;&gt;v37 -->
<g id="edge48" class="edge">
<title>v35&#45;&gt;v37</title>
<path fill="none" stroke="black" d="M796.54,-434.8C794.48,-423.16 791.73,-407.55 789.38,-394.24"/>
<polygon fill="black" stroke="black" points="792.79,-393.41 787.6,-384.18 785.89,-394.63 792.79,-393.41"/>
<text text-anchor="middle" x="831.57" y="-405.8" font-family="Times,serif" font-size="14.00">Sachau 336</text>
</g>
<!-- v36&#45;&gt;v37 -->
<g id="edge49" class="edge">
<title>v36&#45;&gt;v37</title>
<path fill="none" stroke="black" d="M628.46,-438.34C658.77,-424.49 706.04,-402.89 740.62,-387.08"/>
<polygon fill="black" stroke="black" points="742.38,-390.13 750.02,-382.79 739.47,-383.76 742.38,-390.13"/>
<text text-anchor="middle" x="715.07" y="-405.8" font-family="Times,serif" font-size="14.00">433</text>
</g>
<!-- v38 -->
<g id="node39" class="node">
<title>v38</title>
<ellipse fill="none" stroke="black" cx="859.57" cy="-279" rx="35.19" ry="18"/>
<text text-anchor="middle" x="859.57" y="-275.3" font-family="Times,serif" font-size="14.00">ܢܐܚܘܕ</text>
</g>
<!-- v37&#45;&gt;v38 -->
<g id="edge51" class="edge">
<title>v37&#45;&gt;v38</title>
<path fill="none" stroke="black" d="M799.39,-348.21C810.67,-335.43 826.33,-317.68 838.84,-303.49"/>
<polygon fill="black" stroke="black" points="841.8,-305.43 845.8,-295.61 836.55,-300.79 841.8,-305.43"/>
<text text-anchor="middle" x="864.57" y="-318.8" font-family="Times,serif" font-size="14.00">Sachau 336</text>
</g>
<!-- v39 -->
<g id="node40" class="node">
<title>v39</title>
<ellipse fill="none" stroke="black" cx="821.57" cy="-192" rx="27" ry="18"/>
<text text-anchor="middle" x="821.57" y="-188.3" font-family="Times,serif" font-size="14.00">ܗܘ</text>
</g>
<!-- v37&#45;&gt;v39 -->
<g id="edge50" class="edge">
<title>v37&#45;&gt;v39</title>
<path fill="none" stroke="black" d="M784.2,-347.8C784.13,-326.95 785.25,-290.9 792.57,-261 796.13,-246.44 802.48,-231.01 808.33,-218.54"/>
<polygon fill="black" stroke="black" points="811.63,-219.77 812.85,-209.24 805.33,-216.71 811.63,-219.77"/>
<text text-anchor="middle" x="804.07" y="-275.3" font-family="Times,serif" font-size="14.00">433</text>
</g>
<!-- v38&#45;&gt;v39 -->
<g id="edge52" class="edge">
<title>v38&#45;&gt;v39</title>
<path fill="none" stroke="black" d="M852.06,-261.21C846.67,-249.14 839.29,-232.64 833.15,-218.89"/>
<polygon fill="black" stroke="black" points="836.21,-217.17 828.93,-209.47 829.82,-220.03 836.21,-217.17"/>
<text text-anchor="middle" x="881.57" y="-231.8" font-family="Times,serif" font-size="14.00">Sachau 336</text>
</g>
<!-- v40 -->
<g id="node41" class="node">
<title>v40</title>
<ellipse fill="none" stroke="black" cx="893.57" cy="-105" rx="50.09" ry="18"/>
<text text-anchor="middle" x="893.57" y="-101.3" font-family="Times,serif" font-size="14.00">ܡܬܬܚܕܒܗ܂</text>
</g>
<!-- v39&#45;&gt;v40 -->
<g id="edge53" class="edge">
<title>v39&#45;&gt;v40</title>
<path fill="none" stroke="black" d="M842.08,-179.74C851.69,-173.69 862.71,-165.51 870.57,-156 876.28,-149.09 880.9,-140.53 884.45,-132.45"/>
<polygon fill="black" stroke="black" points="887.78,-133.57 888.27,-122.99 881.28,-130.95 887.78,-133.57"/>
<text text-anchor="middle" x="891.07" y="-144.8" font-family="Times,serif" font-size="14.00">433</text>
</g>
<!-- v41 -->
<g id="node42" class="node">
<title>v41</title>
<ellipse fill="none" stroke="black" cx="790.57" cy="-105" rx="35.19" ry="18"/>
<text text-anchor="middle" x="790.57" y="-101.3" font-family="Times,serif" font-size="14.00">ܒܓܘܗ܂</text>
</g>
<!-- v39&#45;&gt;v41 -->
<g id="edge54" class="edge">
<title>v39&#45;&gt;v41</title>
<path fill="none" stroke="black" d="M807.36,-176.51C802.44,-170.62 797.45,-163.45 794.57,-156 791.84,-148.93 790.51,-140.89 789.93,-133.36"/>
<polygon fill="black" stroke="black" points="793.42,-133.07 789.56,-123.2 786.43,-133.32 793.42,-133.07"/>
<text text-anchor="middle" x="832.57" y="-144.8" font-family="Times,serif" font-size="14.00">Sachau 336</text>
</g>
<!-- v40&#45;&gt;v42 -->
<g id="edge55" class="edge">
<title>v40&#45;&gt;v42</title>
<path fill="none" stroke="black" d="M893.57,-86.8C893.57,-75.16 893.57,-59.55 893.57,-46.24"/>
<polygon fill="black" stroke="black" points="897.07,-46.18 893.57,-36.18 890.07,-46.18 897.07,-46.18"/>
<text text-anchor="middle" x="905.07" y="-57.8" font-family="Times,serif" font-size="14.00">433</text>
</g>
<!-- v41&#45;&gt;v42 -->
<g id="edge56" class="edge">
<title>v41&#45;&gt;v42</title>
<path fill="none" stroke="black" d="M795.04,-86.87C798.56,-76.25 804.43,-62.97 813.57,-54 826,-41.8 843.37,-33.51 858.76,-28.07"/>
<polygon fill="black" stroke="black" points="860.09,-31.31 868.51,-24.89 857.92,-24.66 860.09,-31.31"/>
<text text-anchor="middle" x="851.57" y="-57.8" font-family="Times,serif" font-size="14.00">Sachau 336</text>
</g>
</g>
</svg>
