<?xml version="1.0" encoding="UTF-8" standalone="no"?>
<!DOCTYPE svg PUBLIC "-//W3C//DTD SVG 1.1//EN"
 "http://www.w3.org/Graphics/SVG/1.1/DTD/svg11.dtd">
<!-- Generated by graphviz version 2.44.0 ()
 -->
<!-- Title: G Pages: 1 -->
<svg width="1412pt" height="1457pt"
 viewBox="0.00 0.00 1412.00 1457.00" xmlns="http://www.w3.org/2000/svg" xmlns:xlink="http://www.w3.org/1999/xlink">
<g id="graph0" class="graph" transform="scale(1 1) rotate(0) translate(4 1453)">
<title>G</title>
<polygon fill="white" stroke="transparent" points="-4,4 -4,-1453 1408,-1453 1408,4 -4,4"/>
<!-- v0 -->
<g id="node1" class="node">
<title>v0</title>
<ellipse fill="none" stroke="black" cx="1263" cy="-1431" rx="27" ry="18"/>
</g>
<!-- v1 -->
<g id="node2" class="node">
<title>v1</title>
<ellipse fill="none" stroke="black" cx="1190" cy="-1344" rx="89.08" ry="18"/>
<text text-anchor="middle" x="1190" y="-1340.3" font-family="Times,serif" font-size="14.00">ܘܟܕܫܡܥܕܝܢܢܕܢܣܟܠܐ</text>
</g>
<!-- v0&#45;&gt;v1 -->
<g id="edge1" class="edge">
<title>v0&#45;&gt;v1</title>
<path fill="none" stroke="black" d="M1249.95,-1414.8C1239.15,-1402.23 1223.61,-1384.14 1211.06,-1369.52"/>
<polygon fill="black" stroke="black" points="1213.61,-1367.12 1204.44,-1361.81 1208.3,-1371.68 1213.61,-1367.12"/>
<text text-anchor="middle" x="1261.5" y="-1383.8" font-family="Times,serif" font-size="14.00">syr. 611</text>
</g>
<!-- v2 -->
<g id="node3" class="node">
<title>v2</title>
<ellipse fill="none" stroke="black" cx="524" cy="-1290" rx="40.09" ry="18"/>
<text text-anchor="middle" x="524" y="-1286.3" font-family="Times,serif" font-size="14.00">omisit</text>
</g>
<!-- v0&#45;&gt;v2 -->
<g id="edge2" class="edge">
<title>v0&#45;&gt;v2</title>
<path fill="none" stroke="black" d="M1237.13,-1425.13C1128.84,-1404.77 711.05,-1326.18 570.47,-1299.74"/>
<polygon fill="black" stroke="black" points="570.92,-1296.26 560.44,-1297.85 569.62,-1303.14 570.92,-1296.26"/>
<text text-anchor="middle" x="1126" y="-1383.8" font-family="Times,serif" font-size="14.00">430, syr. 434</text>
</g>
<!-- v3 -->
<g id="node4" class="node">
<title>v3</title>
<ellipse fill="none" stroke="black" cx="1253" cy="-1236" rx="54.69" ry="18"/>
<text text-anchor="middle" x="1253" y="-1232.3" font-family="Times,serif" font-size="14.00">ܡ̈ܠܐܗܠܝܢ܂</text>
</g>
<!-- v0&#45;&gt;v3 -->
<g id="edge3" class="edge">
<title>v0&#45;&gt;v3</title>
<path fill="none" stroke="black" d="M1280,-1416.84C1286.28,-1410.92 1292.67,-1403.38 1296,-1395 1316.18,-1344.19 1319.47,-1321.37 1296,-1272 1293.73,-1267.23 1290.46,-1262.9 1286.73,-1259.04"/>
<polygon fill="black" stroke="black" points="1288.88,-1256.27 1279.1,-1252.19 1284.21,-1261.48 1288.88,-1256.27"/>
<text text-anchor="middle" x="1342.5" y="-1340.3" font-family="Times,serif" font-size="14.00">syr. 612</text>
</g>
<!-- v22 -->
<g id="node23" class="node">
<title>v22</title>
<ellipse fill="none" stroke="black" cx="645" cy="-18" rx="27" ry="18"/>
</g>
<!-- v0&#45;&gt;v22 -->
<g id="edge32" class="edge">
<title>v0&#45;&gt;v22</title>
<path fill="none" stroke="white" d="M1289.19,-1426.27C1329.97,-1418.83 1404,-1398.02 1404,-1345 1404,-1345 1404,-1345 1404,-104 1404,-30.52 834.87,-20.56 682.27,-19.21"/>
<polygon fill="white" stroke="white" points="682.04,-15.71 672.01,-19.13 681.98,-22.71 682.04,-15.71"/>
</g>
<!-- v1&#45;&gt;v3 -->
<g id="edge4" class="edge">
<title>v1&#45;&gt;v3</title>
<path fill="none" stroke="black" d="M1200.12,-1325.97C1210.27,-1308.89 1226.03,-1282.38 1237.7,-1262.74"/>
<polygon fill="black" stroke="black" points="1240.8,-1264.37 1242.9,-1253.99 1234.79,-1260.8 1240.8,-1264.37"/>
<text text-anchor="middle" x="1261.5" y="-1286.3" font-family="Times,serif" font-size="14.00">syr. 611</text>
</g>
<!-- v2&#45;&gt;v22 -->
<g id="edge5" class="edge">
<title>v2&#45;&gt;v22</title>
<path fill="none" stroke="black" d="M484.61,-1285.99C362.75,-1276.15 0,-1242.74 0,-1193.5 0,-1193.5 0,-1193.5 0,-104 0,-42.22 471.17,-23.95 608.1,-19.95"/>
<polygon fill="black" stroke="black" points="608.21,-23.45 618.11,-19.66 608.01,-16.45 608.21,-23.45"/>
<text text-anchor="middle" x="49" y="-666.8" font-family="Times,serif" font-size="14.00">430, syr. 434</text>
</g>
<!-- v4 -->
<g id="node5" class="node">
<title>v4</title>
<ellipse fill="none" stroke="black" cx="1210" cy="-1149" rx="44.69" ry="18"/>
<text text-anchor="middle" x="1210" y="-1145.3" font-family="Times,serif" font-size="14.00">unclear</text>
</g>
<!-- v3&#45;&gt;v4 -->
<g id="edge7" class="edge">
<title>v3&#45;&gt;v4</title>
<path fill="none" stroke="black" d="M1231.4,-1219.26C1225.46,-1213.83 1219.66,-1207.27 1216,-1200 1212.49,-1193.02 1210.7,-1184.82 1209.85,-1177.1"/>
<polygon fill="black" stroke="black" points="1213.34,-1176.8 1209.22,-1167.04 1206.35,-1177.24 1213.34,-1176.8"/>
<text text-anchor="middle" x="1246.5" y="-1188.8" font-family="Times,serif" font-size="14.00">syr. 612</text>
</g>
<!-- v5 -->
<g id="node6" class="node">
<title>v5</title>
<ellipse fill="none" stroke="black" cx="1269" cy="-1062" rx="69.59" ry="18"/>
<text text-anchor="middle" x="1269" y="-1058.3" font-family="Times,serif" font-size="14.00">ܐܬܢܦܚܒܪܫܥܬܗ܂</text>
</g>
<!-- v3&#45;&gt;v5 -->
<g id="edge6" class="edge">
<title>v3&#45;&gt;v5</title>
<path fill="none" stroke="black" d="M1267.46,-1218.28C1271.33,-1212.82 1274.99,-1206.47 1277,-1200 1288.38,-1163.27 1282.23,-1118.41 1276.14,-1090.26"/>
<polygon fill="black" stroke="black" points="1279.5,-1089.29 1273.84,-1080.34 1272.68,-1090.87 1279.5,-1089.29"/>
<text text-anchor="middle" x="1313.5" y="-1145.3" font-family="Times,serif" font-size="14.00">syr. 611</text>
</g>
<!-- v4&#45;&gt;v5 -->
<g id="edge8" class="edge">
<title>v4&#45;&gt;v5</title>
<path fill="none" stroke="black" d="M1208.59,-1130.61C1208.57,-1120.41 1210.03,-1107.67 1216,-1098 1219.19,-1092.83 1223.47,-1088.27 1228.21,-1084.28"/>
<polygon fill="black" stroke="black" points="1230.56,-1086.89 1236.52,-1078.13 1226.4,-1081.27 1230.56,-1086.89"/>
<text text-anchor="middle" x="1246.5" y="-1101.8" font-family="Times,serif" font-size="14.00">syr. 612</text>
</g>
<!-- v6 -->
<g id="node7" class="node">
<title>v6</title>
<ellipse fill="none" stroke="black" cx="1212" cy="-975" rx="35.19" ry="18"/>
<text text-anchor="middle" x="1212" y="-971.3" font-family="Times,serif" font-size="14.00">ܘܗܘ̤ܐ</text>
</g>
<!-- v5&#45;&gt;v6 -->
<g id="edge9" class="edge">
<title>v5&#45;&gt;v6</title>
<path fill="none" stroke="black" d="M1235.59,-1046.18C1227.52,-1040.97 1219.84,-1034.3 1215,-1026 1211.09,-1019.29 1209.54,-1011.17 1209.18,-1003.44"/>
<polygon fill="black" stroke="black" points="1212.68,-1003.37 1209.33,-993.32 1205.69,-1003.27 1212.68,-1003.37"/>
<text text-anchor="middle" x="1245.5" y="-1014.8" font-family="Times,serif" font-size="14.00">syr. 611</text>
</g>
<!-- v7 -->
<g id="node8" class="node">
<title>v7</title>
<ellipse fill="none" stroke="black" cx="1296" cy="-975" rx="30.59" ry="18"/>
<text text-anchor="middle" x="1296" y="-971.3" font-family="Times,serif" font-size="14.00">ܘܗܘܐ</text>
</g>
<!-- v5&#45;&gt;v7 -->
<g id="edge10" class="edge">
<title>v5&#45;&gt;v7</title>
<path fill="none" stroke="black" d="M1274.46,-1043.8C1278.22,-1031.97 1283.28,-1016.03 1287.56,-1002.58"/>
<polygon fill="black" stroke="black" points="1290.94,-1003.48 1290.64,-992.89 1284.27,-1001.36 1290.94,-1003.48"/>
<text text-anchor="middle" x="1314.5" y="-1014.8" font-family="Times,serif" font-size="14.00">syr. 612</text>
</g>
<!-- v8 -->
<g id="node9" class="node">
<title>v8</title>
<ellipse fill="none" stroke="black" cx="1215" cy="-888" rx="83.69" ry="18"/>
<text text-anchor="middle" x="1215" y="-884.3" font-family="Times,serif" font-size="14.00">ܐܝܟܙܩܐܕܢܦܝܚܘܐܒܕ</text>
</g>
<!-- v6&#45;&gt;v8 -->
<g id="edge11" class="edge">
<title>v6&#45;&gt;v8</title>
<path fill="none" stroke="black" d="M1212.19,-956.87C1212.33,-947.21 1212.58,-934.93 1213,-924 1213.1,-921.45 1213.22,-918.79 1213.35,-916.13"/>
<polygon fill="black" stroke="black" points="1216.85,-916.26 1213.9,-906.08 1209.86,-915.88 1216.85,-916.26"/>
<text text-anchor="middle" x="1243.5" y="-927.8" font-family="Times,serif" font-size="14.00">syr. 611</text>
</g>
<!-- v7&#45;&gt;v8 -->
<g id="edge12" class="edge">
<title>v7&#45;&gt;v8</title>
<path fill="none" stroke="black" d="M1291.36,-956.77C1287.89,-946.37 1282.3,-933.37 1274,-924 1269.38,-918.79 1263.8,-914.13 1257.93,-910.05"/>
<polygon fill="black" stroke="black" points="1259.52,-906.91 1249.21,-904.48 1255.75,-912.81 1259.52,-906.91"/>
<text text-anchor="middle" x="1313.5" y="-927.8" font-family="Times,serif" font-size="14.00">syr. 612</text>
</g>
<!-- v9 -->
<g id="node10" class="node">
<title>v9</title>
<ellipse fill="none" stroke="black" cx="1046" cy="-801" rx="98.58" ry="18"/>
<text text-anchor="middle" x="1046" y="-797.3" font-family="Times,serif" font-size="14.00">ܘܐܬܦܪܬܘܕܦܢ̈ܬܗܘܡܝܬ܂</text>
</g>
<!-- v8&#45;&gt;v9 -->
<g id="edge13" class="edge">
<title>v8&#45;&gt;v9</title>
<path fill="none" stroke="black" d="M1183.61,-871.21C1156.48,-857.56 1117.06,-837.74 1087.36,-822.8"/>
<polygon fill="black" stroke="black" points="1088.59,-819.5 1078.09,-818.14 1085.45,-825.76 1088.59,-819.5"/>
<text text-anchor="middle" x="1171.5" y="-840.8" font-family="Times,serif" font-size="14.00">syr. 611</text>
</g>
<!-- v10 -->
<g id="node11" class="node">
<title>v10</title>
<ellipse fill="none" stroke="black" cx="1256" cy="-801" rx="93.68" ry="18"/>
<text text-anchor="middle" x="1256" y="-797.3" font-family="Times,serif" font-size="14.00">ܘܐܬܦܪܬܕܦܢܬܗ̈ܘܡܝܬ܂</text>
</g>
<!-- v8&#45;&gt;v10 -->
<g id="edge14" class="edge">
<title>v8&#45;&gt;v10</title>
<path fill="none" stroke="black" d="M1223.3,-869.8C1229.02,-857.93 1236.74,-841.93 1243.24,-828.45"/>
<polygon fill="black" stroke="black" points="1246.52,-829.7 1247.72,-819.18 1240.22,-826.66 1246.52,-829.7"/>
<text text-anchor="middle" x="1268.5" y="-840.8" font-family="Times,serif" font-size="14.00">syr. 612</text>
</g>
<!-- v11 -->
<g id="node12" class="node">
<title>v11</title>
<ellipse fill="none" stroke="black" cx="1047" cy="-714" rx="54.69" ry="18"/>
<text text-anchor="middle" x="1047" y="-710.3" font-family="Times,serif" font-size="14.00">ܐܟܡܐܕܐܡܝܪ</text>
</g>
<!-- v9&#45;&gt;v11 -->
<g id="edge15" class="edge">
<title>v9&#45;&gt;v11</title>
<path fill="none" stroke="black" d="M1046.2,-782.8C1046.34,-771.16 1046.52,-755.55 1046.68,-742.24"/>
<polygon fill="black" stroke="black" points="1050.18,-742.22 1046.8,-732.18 1043.18,-742.13 1050.18,-742.22"/>
<text text-anchor="middle" x="1077.5" y="-753.8" font-family="Times,serif" font-size="14.00">syr. 611</text>
</g>
<!-- v10&#45;&gt;v11 -->
<g id="edge16" class="edge">
<title>v10&#45;&gt;v11</title>
<path fill="none" stroke="black" d="M1217.67,-784.41C1181.43,-769.67 1127.15,-747.6 1089.58,-732.32"/>
<polygon fill="black" stroke="black" points="1090.51,-728.92 1079.93,-728.39 1087.88,-735.4 1090.51,-728.92"/>
<text text-anchor="middle" x="1195.5" y="-753.8" font-family="Times,serif" font-size="14.00">syr. 612</text>
</g>
<!-- v12 -->
<g id="node13" class="node">
<title>v12</title>
<ellipse fill="none" stroke="black" cx="992" cy="-627" rx="40.09" ry="18"/>
<text text-anchor="middle" x="992" y="-623.3" font-family="Times,serif" font-size="14.00">ܒܡܬܠܐ܇</text>
</g>
<!-- v11&#45;&gt;v12 -->
<g id="edge17" class="edge">
<title>v11&#45;&gt;v12</title>
<path fill="none" stroke="black" d="M1025.5,-697.32C1019.14,-691.8 1012.65,-685.18 1008,-678 1003.52,-671.08 1000.21,-662.82 997.8,-655.02"/>
<polygon fill="black" stroke="black" points="1001.13,-653.92 995.13,-645.19 994.38,-655.75 1001.13,-653.92"/>
<text text-anchor="middle" x="1038.5" y="-666.8" font-family="Times,serif" font-size="14.00">syr. 612</text>
</g>
<!-- v13 -->
<g id="node14" class="node">
<title>v13</title>
<ellipse fill="none" stroke="black" cx="1095" cy="-627" rx="44.69" ry="18"/>
<text text-anchor="middle" x="1095" y="-623.3" font-family="Times,serif" font-size="14.00">ܒܡܬ̈ܠܐ܂</text>
</g>
<!-- v11&#45;&gt;v13 -->
<g id="edge18" class="edge">
<title>v11&#45;&gt;v13</title>
<path fill="none" stroke="black" d="M1060.49,-696.44C1064.78,-690.77 1069.35,-684.28 1073,-678 1077.29,-670.62 1081.28,-662.25 1084.66,-654.5"/>
<polygon fill="black" stroke="black" points="1087.95,-655.71 1088.58,-645.13 1081.49,-653 1087.95,-655.71"/>
<text text-anchor="middle" x="1111.5" y="-666.8" font-family="Times,serif" font-size="14.00">syr. 611</text>
</g>
<!-- v14 -->
<g id="node15" class="node">
<title>v14</title>
<ellipse fill="none" stroke="black" cx="997" cy="-540" rx="50.09" ry="18"/>
<text text-anchor="middle" x="997" y="-536.3" font-family="Times,serif" font-size="14.00">ܕܢܥܒܕܓܝܪ</text>
</g>
<!-- v12&#45;&gt;v14 -->
<g id="edge19" class="edge">
<title>v12&#45;&gt;v14</title>
<path fill="none" stroke="black" d="M993.01,-608.8C993.7,-597.16 994.61,-581.55 995.4,-568.24"/>
<polygon fill="black" stroke="black" points="998.9,-568.36 995.99,-558.18 991.91,-567.95 998.9,-568.36"/>
<text text-anchor="middle" x="1025.5" y="-579.8" font-family="Times,serif" font-size="14.00">syr. 612</text>
</g>
<!-- v13&#45;&gt;v14 -->
<g id="edge20" class="edge">
<title>v13&#45;&gt;v14</title>
<path fill="none" stroke="black" d="M1085.92,-609.23C1079.64,-598.76 1070.55,-585.51 1060,-576 1052.97,-569.66 1044.59,-564.02 1036.28,-559.2"/>
<polygon fill="black" stroke="black" points="1037.81,-556.05 1027.35,-554.32 1034.44,-562.19 1037.81,-556.05"/>
<text text-anchor="middle" x="1104.5" y="-579.8" font-family="Times,serif" font-size="14.00">syr. 611</text>
</g>
<!-- v15 -->
<g id="node16" class="node">
<title>v15</title>
<ellipse fill="none" stroke="black" cx="921" cy="-453" rx="35.19" ry="18"/>
<text text-anchor="middle" x="921" y="-449.3" font-family="Times,serif" font-size="14.00">ܛܒܬܐ܂</text>
</g>
<!-- v14&#45;&gt;v15 -->
<g id="edge22" class="edge">
<title>v14&#45;&gt;v15</title>
<path fill="none" stroke="black" d="M956.12,-529.26C943,-524.02 929.84,-516.04 922,-504 917.65,-497.32 916.29,-489.01 916.34,-481.08"/>
<polygon fill="black" stroke="black" points="919.83,-481.3 917.08,-471.07 912.85,-480.78 919.83,-481.3"/>
<text text-anchor="middle" x="952.5" y="-492.8" font-family="Times,serif" font-size="14.00">syr. 611</text>
</g>
<!-- v16 -->
<g id="node17" class="node">
<title>v16</title>
<ellipse fill="none" stroke="black" cx="921" cy="-366" rx="69.59" ry="18"/>
<text text-anchor="middle" x="921" y="-362.3" font-family="Times,serif" font-size="14.00">ܛܒܬܐܢܦܪܥܝܘܗܝ</text>
</g>
<!-- v14&#45;&gt;v16 -->
<g id="edge21" class="edge">
<title>v14&#45;&gt;v16</title>
<path fill="none" stroke="black" d="M999.95,-521.77C1003.74,-494.08 1007.22,-439.01 983,-402 979.14,-396.09 973.91,-391.08 968.12,-386.86"/>
<polygon fill="black" stroke="black" points="969.64,-383.67 959.33,-381.22 965.86,-389.56 969.64,-383.67"/>
<text text-anchor="middle" x="1033.5" y="-449.3" font-family="Times,serif" font-size="14.00">syr. 612</text>
</g>
<!-- v15&#45;&gt;v16 -->
<g id="edge23" class="edge">
<title>v15&#45;&gt;v16</title>
<path fill="none" stroke="black" d="M921,-434.8C921,-423.16 921,-407.55 921,-394.24"/>
<polygon fill="black" stroke="black" points="924.5,-394.18 921,-384.18 917.5,-394.18 924.5,-394.18"/>
<text text-anchor="middle" x="951.5" y="-405.8" font-family="Times,serif" font-size="14.00">syr. 611</text>
</g>
<!-- v17 -->
<g id="node18" class="node">
<title>v17</title>
<ellipse fill="none" stroke="black" cx="833" cy="-279" rx="35.19" ry="18"/>
<text text-anchor="middle" x="833" y="-275.3" font-family="Times,serif" font-size="14.00">ܡܪܝܐ܂</text>
</g>
<!-- v16&#45;&gt;v17 -->
<g id="edge24" class="edge">
<title>v16&#45;&gt;v17</title>
<path fill="none" stroke="black" d="M884.41,-350.54C874.27,-345.23 863.9,-338.41 856,-330 849.7,-323.29 844.89,-314.55 841.33,-306.26"/>
<polygon fill="black" stroke="black" points="844.58,-304.96 837.72,-296.88 838.05,-307.47 844.58,-304.96"/>
<text text-anchor="middle" x="886.5" y="-318.8" font-family="Times,serif" font-size="14.00">syr. 611</text>
</g>
<!-- v18 -->
<g id="node19" class="node">
<title>v18</title>
<ellipse fill="none" stroke="black" cx="921" cy="-279" rx="35.19" ry="18"/>
<text text-anchor="middle" x="921" y="-275.3" font-family="Times,serif" font-size="14.00">ܡܪܝܐ܇</text>
</g>
<!-- v16&#45;&gt;v18 -->
<g id="edge25" class="edge">
<title>v16&#45;&gt;v18</title>
<path fill="none" stroke="black" d="M921,-347.8C921,-336.16 921,-320.55 921,-307.24"/>
<polygon fill="black" stroke="black" points="924.5,-307.18 921,-297.18 917.5,-307.18 924.5,-307.18"/>
<text text-anchor="middle" x="951.5" y="-318.8" font-family="Times,serif" font-size="14.00">syr. 612</text>
</g>
<!-- v19 -->
<g id="node20" class="node">
<title>v19</title>
<ellipse fill="none" stroke="black" cx="895" cy="-192" rx="108.58" ry="18"/>
<text text-anchor="middle" x="895" y="-188.3" font-family="Times,serif" font-size="14.00">ܘܒܝܫܬܐܬܘܒܒܒܝܫܬܐܢܬܦܪܥ</text>
</g>
<!-- v17&#45;&gt;v19 -->
<g id="edge26" class="edge">
<title>v17&#45;&gt;v19</title>
<path fill="none" stroke="black" d="M832.81,-260.54C833.47,-250.32 835.69,-237.57 842,-228 845.07,-223.34 849,-219.15 853.33,-215.44"/>
<polygon fill="black" stroke="black" points="855.61,-218.09 861.45,-209.25 851.37,-212.52 855.61,-218.09"/>
<text text-anchor="middle" x="872.5" y="-231.8" font-family="Times,serif" font-size="14.00">syr. 611</text>
</g>
<!-- v18&#45;&gt;v19 -->
<g id="edge27" class="edge">
<title>v18&#45;&gt;v19</title>
<path fill="none" stroke="black" d="M915.74,-260.8C912.14,-249.05 907.31,-233.24 903.21,-219.84"/>
<polygon fill="black" stroke="black" points="906.53,-218.71 900.25,-210.18 899.83,-220.76 906.53,-218.71"/>
<text text-anchor="middle" x="940.5" y="-231.8" font-family="Times,serif" font-size="14.00">syr. 612</text>
</g>
<!-- v20 -->
<g id="node21" class="node">
<title>v20</title>
<ellipse fill="none" stroke="black" cx="219" cy="-105" rx="191.17" ry="18"/>
<text text-anchor="middle" x="219" y="-101.3" font-family="Times,serif" font-size="14.00">܀܀܀܀܀܀܀܀ܫܠܡ܀ܣܪܝܛܐܕܬܫܥܝܬܐܕܐܚܝܩܪܦܝܠܣܘܦܐ</text>
</g>
<!-- v19&#45;&gt;v20 -->
<g id="edge28" class="edge">
<title>v19&#45;&gt;v20</title>
<path fill="none" stroke="black" d="M811.43,-180.49C692.71,-165.56 474.58,-138.14 338.7,-121.05"/>
<polygon fill="black" stroke="black" points="339.02,-117.56 328.66,-119.79 338.14,-124.51 339.02,-117.56"/>
<text text-anchor="middle" x="628.5" y="-144.8" font-family="Times,serif" font-size="14.00">syr. 612</text>
</g>
<!-- v21 -->
<g id="node22" class="node">
<title>v21</title>
<ellipse fill="none" stroke="black" cx="902" cy="-105" rx="473.62" ry="18"/>
<text text-anchor="middle" x="902" y="-101.3" font-family="Times,serif" font-size="14.00">܀܀ܫܠܡܬܒܐܝܕ̈ܝܐܣܛܝܦܢܪܝܣܕܟܢܫܐܡ̣ܢܬܪ̈ܬܝܢܐܢܨܚ̈ܬܐܥܬܝܩ̈ܐ܆܏ܗ܆ܗܢܘ܆ܫܢܬܐܦܦܓܒܕܝܪܐ܆ܠܡܪܢܒܝܪܚܢܝܣܢܫܠܡܬܩܫܝܫܐܐܪܡܝܐ</text>
</g>
<!-- v19&#45;&gt;v21 -->
<g id="edge29" class="edge">
<title>v19&#45;&gt;v21</title>
<path fill="none" stroke="black" d="M896.42,-173.8C897.37,-162.16 898.66,-146.55 899.76,-133.24"/>
<polygon fill="black" stroke="black" points="903.25,-133.43 900.59,-123.18 896.28,-132.85 903.25,-133.43"/>
<text text-anchor="middle" x="929.5" y="-144.8" font-family="Times,serif" font-size="14.00">syr. 611</text>
</g>
<!-- v20&#45;&gt;v22 -->
<g id="edge30" class="edge">
<title>v20&#45;&gt;v22</title>
<path fill="none" stroke="black" d="M296.64,-88.51C389.54,-69.97 541.11,-39.73 609.52,-26.08"/>
<polygon fill="black" stroke="black" points="610.26,-29.5 619.38,-24.11 608.89,-22.64 610.26,-29.5"/>
<text text-anchor="middle" x="488.5" y="-57.8" font-family="Times,serif" font-size="14.00">syr. 612</text>
</g>
<!-- v21&#45;&gt;v22 -->
<g id="edge31" class="edge">
<title>v21&#45;&gt;v22</title>
<path fill="none" stroke="black" d="M850.61,-87C799.38,-70.06 722.19,-44.53 678.42,-30.05"/>
<polygon fill="black" stroke="black" points="679.42,-26.7 668.83,-26.88 677.22,-33.34 679.42,-26.7"/>
<text text-anchor="middle" x="819.5" y="-57.8" font-family="Times,serif" font-size="14.00">syr. 611</text>
</g>
</g>
</svg>
