<?xml version="1.0" encoding="UTF-8" standalone="no"?>
<!DOCTYPE svg PUBLIC "-//W3C//DTD SVG 1.1//EN"
 "http://www.w3.org/Graphics/SVG/1.1/DTD/svg11.dtd">
<!-- Generated by graphviz version 2.44.0 ()
 -->
<!-- Title: G Pages: 1 -->
<svg width="857pt" height="1238pt"
 viewBox="0.00 0.00 857.43 1238.00" xmlns="http://www.w3.org/2000/svg" xmlns:xlink="http://www.w3.org/1999/xlink">
<g id="graph0" class="graph" transform="scale(1 1) rotate(0) translate(4 1234)">
<title>G</title>
<polygon fill="white" stroke="transparent" points="-4,4 -4,-1234 853.43,-1234 853.43,4 -4,4"/>
<!-- v0 -->
<g id="node1" class="node">
<title>v0</title>
<ellipse fill="none" stroke="black" cx="311.84" cy="-1212" rx="27" ry="18"/>
</g>
<!-- v1 -->
<g id="node2" class="node">
<title>v1</title>
<ellipse fill="none" stroke="black" cx="122.84" cy="-1125" rx="122.68" ry="18"/>
<text text-anchor="middle" x="122.84" y="-1121.3" font-family="Times,serif" font-size="14.00">ܘܒܗܒܫܥܬܐܐܬܢܦܚܐܝܟܙܩܐܘܦܩܥ</text>
</g>
<!-- v0&#45;&gt;v1 -->
<g id="edge1" class="edge">
<title>v0&#45;&gt;v1</title>
<path fill="none" stroke="black" d="M284.86,-1210.02C237.92,-1207.68 144.24,-1200.05 123.84,-1176 118.55,-1169.76 117.02,-1161.34 117.19,-1153.19"/>
<polygon fill="black" stroke="black" points="120.68,-1153.49 118.18,-1143.2 113.71,-1152.81 120.68,-1153.49"/>
<text text-anchor="middle" x="206.84" y="-1164.8" font-family="Times,serif" font-size="14.00">Manuscrit 4122, Syr 80</text>
</g>
<!-- v2 -->
<g id="node3" class="node">
<title>v2</title>
<ellipse fill="none" stroke="black" cx="308.84" cy="-1071" rx="40.09" ry="18"/>
<text text-anchor="middle" x="308.84" y="-1067.3" font-family="Times,serif" font-size="14.00">omisit</text>
</g>
<!-- v0&#45;&gt;v2 -->
<g id="edge2" class="edge">
<title>v0&#45;&gt;v2</title>
<path fill="none" stroke="black" d="M311.47,-1193.96C310.96,-1170.4 310.04,-1127.64 309.43,-1099.53"/>
<polygon fill="black" stroke="black" points="312.93,-1099.11 309.21,-1089.18 305.93,-1099.26 312.93,-1099.11"/>
<text text-anchor="middle" x="569.84" y="-1164.8" font-family="Times,serif" font-size="14.00">162, Add. 2020, Add. 7200, Ar 7/229, Or. 2313, Sachau 162, Sado no. 9</text>
</g>
<!-- v19 -->
<g id="node20" class="node">
<title>v19</title>
<ellipse fill="none" stroke="black" cx="265.84" cy="-18" rx="27" ry="18"/>
</g>
<!-- v0&#45;&gt;v19 -->
<g id="edge27" class="edge">
<title>v0&#45;&gt;v19</title>
<path fill="none" stroke="white" d="M338.89,-1210.94C440.26,-1210.46 793.75,-1206.59 832.84,-1176 851.21,-1161.62 848.84,-1149.33 848.84,-1126 848.84,-1126 848.84,-1126 848.84,-104 848.84,-48.6 431.26,-26.09 302.91,-20.48"/>
<polygon fill="white" stroke="white" points="302.93,-16.98 292.79,-20.05 302.63,-23.97 302.93,-16.98"/>
</g>
<!-- v3 -->
<g id="node4" class="node">
<title>v3</title>
<ellipse fill="none" stroke="black" cx="55.84" cy="-1017" rx="35.19" ry="18"/>
<text text-anchor="middle" x="55.84" y="-1013.3" font-family="Times,serif" font-size="14.00">ܘܡܝܬ܂</text>
</g>
<!-- v1&#45;&gt;v3 -->
<g id="edge3" class="edge">
<title>v1&#45;&gt;v3</title>
<path fill="none" stroke="black" d="M98.04,-1107.06C91.77,-1101.85 85.5,-1095.7 80.84,-1089 71.69,-1075.83 65.56,-1058.97 61.67,-1044.99"/>
<polygon fill="black" stroke="black" points="64.98,-1043.79 59.11,-1034.96 58.19,-1045.52 64.98,-1043.79"/>
<text text-anchor="middle" x="103.84" y="-1067.3" font-family="Times,serif" font-size="14.00">Syr 80</text>
</g>
<!-- v4 -->
<g id="node5" class="node">
<title>v4</title>
<ellipse fill="none" stroke="black" cx="143.84" cy="-1017" rx="35.19" ry="18"/>
<text text-anchor="middle" x="143.84" y="-1013.3" font-family="Times,serif" font-size="14.00">ܘܡܝܬ܆</text>
</g>
<!-- v1&#45;&gt;v4 -->
<g id="edge4" class="edge">
<title>v1&#45;&gt;v4</title>
<path fill="none" stroke="black" d="M126.21,-1106.97C129.53,-1090.2 134.66,-1064.34 138.53,-1044.81"/>
<polygon fill="black" stroke="black" points="141.96,-1045.48 140.47,-1034.99 135.1,-1044.12 141.96,-1045.48"/>
<text text-anchor="middle" x="189.84" y="-1067.3" font-family="Times,serif" font-size="14.00">Manuscrit 4122</text>
</g>
<!-- v2&#45;&gt;v19 -->
<g id="edge5" class="edge">
<title>v2&#45;&gt;v19</title>
<path fill="none" stroke="black" d="M307.1,-1052.77C305.33,-1033.66 302.84,-1001.91 302.84,-974.5 302.84,-974.5 302.84,-974.5 302.84,-104 302.84,-82.2 292.49,-59.68 282.73,-43.3"/>
<polygon fill="black" stroke="black" points="285.43,-41.02 277.14,-34.42 279.51,-44.75 285.43,-41.02"/>
<text text-anchor="middle" x="561.84" y="-578.3" font-family="Times,serif" font-size="14.00">162, Add. 2020, Add. 7200, Ar 7/229, Or. 2313, Sachau 162, Sado no. 9</text>
</g>
<!-- v5 -->
<g id="node6" class="node">
<title>v5</title>
<ellipse fill="none" stroke="black" cx="64.84" cy="-930" rx="30.59" ry="18"/>
<text text-anchor="middle" x="64.84" y="-926.3" font-family="Times,serif" font-size="14.00">ܕܥܒܕ</text>
</g>
<!-- v3&#45;&gt;v5 -->
<g id="edge6" class="edge">
<title>v3&#45;&gt;v5</title>
<path fill="none" stroke="black" d="M57.66,-998.8C58.89,-987.16 60.55,-971.55 61.96,-958.24"/>
<polygon fill="black" stroke="black" points="65.45,-958.49 63.02,-948.18 58.49,-957.75 65.45,-958.49"/>
<text text-anchor="middle" x="84.84" y="-969.8" font-family="Times,serif" font-size="14.00">Syr 80</text>
</g>
<!-- v4&#45;&gt;v5 -->
<g id="edge7" class="edge">
<title>v4&#45;&gt;v5</title>
<path fill="none" stroke="black" d="M135.12,-999.18C129.33,-988.94 121.11,-975.95 111.84,-966 106.5,-960.27 100.12,-954.82 93.81,-950"/>
<polygon fill="black" stroke="black" points="95.5,-946.9 85.35,-943.85 91.38,-952.56 95.5,-946.9"/>
<text text-anchor="middle" x="176.84" y="-969.8" font-family="Times,serif" font-size="14.00">Manuscrit 4122</text>
</g>
<!-- v6 -->
<g id="node7" class="node">
<title>v6</title>
<ellipse fill="none" stroke="black" cx="41.84" cy="-843" rx="30.59" ry="18"/>
<text text-anchor="middle" x="41.84" y="-839.3" font-family="Times,serif" font-size="14.00">ܛܒܬܐ</text>
</g>
<!-- v5&#45;&gt;v6 -->
<g id="edge8" class="edge">
<title>v5&#45;&gt;v6</title>
<path fill="none" stroke="black" d="M57.44,-912.51C55.07,-906.74 52.61,-900.17 50.84,-894 48.76,-886.74 47.06,-878.74 45.72,-871.31"/>
<polygon fill="black" stroke="black" points="49.16,-870.62 44.07,-861.32 42.25,-871.76 49.16,-870.62"/>
<text text-anchor="middle" x="73.84" y="-882.8" font-family="Times,serif" font-size="14.00">Syr 80</text>
</g>
<!-- v7 -->
<g id="node8" class="node">
<title>v7</title>
<ellipse fill="none" stroke="black" cx="125.84" cy="-843" rx="35.19" ry="18"/>
<text text-anchor="middle" x="125.84" y="-839.3" font-family="Times,serif" font-size="14.00">ܛܒܬܐ܆</text>
</g>
<!-- v5&#45;&gt;v7 -->
<g id="edge9" class="edge">
<title>v5&#45;&gt;v7</title>
<path fill="none" stroke="black" d="M79.93,-913.94C85.54,-907.97 91.77,-900.9 96.84,-894 102.39,-886.44 107.75,-877.74 112.32,-869.74"/>
<polygon fill="black" stroke="black" points="115.5,-871.21 117.29,-860.77 109.38,-867.82 115.5,-871.21"/>
<text text-anchor="middle" x="159.84" y="-882.8" font-family="Times,serif" font-size="14.00">Manuscrit 4122</text>
</g>
<!-- v8 -->
<g id="node9" class="node">
<title>v8</title>
<ellipse fill="none" stroke="black" cx="99.84" cy="-756" rx="30.59" ry="18"/>
<text text-anchor="middle" x="99.84" y="-752.3" font-family="Times,serif" font-size="14.00">ܛܒܬܐ</text>
</g>
<!-- v6&#45;&gt;v8 -->
<g id="edge10" class="edge">
<title>v6&#45;&gt;v8</title>
<path fill="none" stroke="black" d="M46.59,-824.86C49.89,-814.74 54.94,-802.01 61.84,-792 65.3,-786.99 69.59,-782.17 74.04,-777.8"/>
<polygon fill="black" stroke="black" points="76.55,-780.25 81.55,-770.9 71.81,-775.09 76.55,-780.25"/>
<text text-anchor="middle" x="84.84" y="-795.8" font-family="Times,serif" font-size="14.00">Syr 80</text>
</g>
<!-- v7&#45;&gt;v8 -->
<g id="edge11" class="edge">
<title>v7&#45;&gt;v8</title>
<path fill="none" stroke="black" d="M120.58,-824.8C116.96,-812.97 112.08,-797.03 107.97,-783.58"/>
<polygon fill="black" stroke="black" points="111.28,-782.42 105,-773.89 104.58,-784.47 111.28,-782.42"/>
<text text-anchor="middle" x="167.84" y="-795.8" font-family="Times,serif" font-size="14.00">Manuscrit 4122</text>
</g>
<!-- v9 -->
<g id="node10" class="node">
<title>v9</title>
<ellipse fill="none" stroke="black" cx="80.84" cy="-669" rx="30.59" ry="18"/>
<text text-anchor="middle" x="80.84" y="-665.3" font-family="Times,serif" font-size="14.00">ܡܫܟܚ</text>
</g>
<!-- v8&#45;&gt;v9 -->
<g id="edge12" class="edge">
<title>v8&#45;&gt;v9</title>
<path fill="none" stroke="black" d="M89.61,-738.88C86.5,-733.14 83.48,-726.49 81.84,-720 80.04,-712.87 79.32,-704.99 79.16,-697.64"/>
<polygon fill="black" stroke="black" points="82.67,-697.42 79.28,-687.38 75.67,-697.34 82.67,-697.42"/>
<text text-anchor="middle" x="134.84" y="-708.8" font-family="Times,serif" font-size="14.00">Manuscrit 4122</text>
</g>
<!-- v10 -->
<g id="node11" class="node">
<title>v10</title>
<ellipse fill="none" stroke="black" cx="209.84" cy="-669" rx="35.19" ry="18"/>
<text text-anchor="middle" x="209.84" y="-665.3" font-family="Times,serif" font-size="14.00">ܡܫܟܚ܂</text>
</g>
<!-- v8&#45;&gt;v10 -->
<g id="edge13" class="edge">
<title>v8&#45;&gt;v10</title>
<path fill="none" stroke="black" d="M128.7,-749.48C147.56,-744.56 171.63,-735.64 187.84,-720 194.41,-713.66 199.15,-705.01 202.51,-696.69"/>
<polygon fill="black" stroke="black" points="205.82,-697.83 205.84,-687.23 199.22,-695.5 205.82,-697.83"/>
<text text-anchor="middle" x="220.84" y="-708.8" font-family="Times,serif" font-size="14.00">Syr 80</text>
</g>
<!-- v11 -->
<g id="node12" class="node">
<title>v11</title>
<ellipse fill="none" stroke="black" cx="131.84" cy="-582" rx="59.59" ry="18"/>
<text text-anchor="middle" x="131.84" y="-578.3" font-family="Times,serif" font-size="14.00">ܘܕܚܦܪܓܘܡܨܐ</text>
</g>
<!-- v9&#45;&gt;v11 -->
<g id="edge14" class="edge">
<title>v9&#45;&gt;v11</title>
<path fill="none" stroke="black" d="M77.47,-650.82C76.35,-640.7 76.53,-627.96 81.84,-618 84.68,-612.67 88.74,-607.98 93.33,-603.9"/>
<polygon fill="black" stroke="black" points="95.67,-606.52 101.43,-597.63 91.38,-600.98 95.67,-606.52"/>
<text text-anchor="middle" x="134.84" y="-621.8" font-family="Times,serif" font-size="14.00">Manuscrit 4122</text>
</g>
<!-- v10&#45;&gt;v11 -->
<g id="edge15" class="edge">
<title>v10&#45;&gt;v11</title>
<path fill="none" stroke="black" d="M205.12,-650.83C201.62,-640.46 196.03,-627.47 187.84,-618 182.99,-612.4 177.02,-607.39 170.81,-603.04"/>
<polygon fill="black" stroke="black" points="172.56,-600.01 162.26,-597.52 168.76,-605.89 172.56,-600.01"/>
<text text-anchor="middle" x="219.84" y="-621.8" font-family="Times,serif" font-size="14.00">Syr 80</text>
</g>
<!-- v12 -->
<g id="node13" class="node">
<title>v12</title>
<ellipse fill="none" stroke="black" cx="86.84" cy="-495" rx="40.09" ry="18"/>
<text text-anchor="middle" x="86.84" y="-491.3" font-family="Times,serif" font-size="14.00">ܠܚܒܪܗ܂</text>
</g>
<!-- v11&#45;&gt;v12 -->
<g id="edge16" class="edge">
<title>v11&#45;&gt;v12</title>
<path fill="none" stroke="black" d="M108.67,-565.1C102.56,-559.75 96.62,-553.26 92.84,-546 89.23,-539.07 87.42,-530.88 86.58,-523.16"/>
<polygon fill="black" stroke="black" points="90.06,-522.85 85.96,-513.09 83.08,-523.28 90.06,-522.85"/>
<text text-anchor="middle" x="115.84" y="-534.8" font-family="Times,serif" font-size="14.00">Syr 80</text>
</g>
<!-- v13 -->
<g id="node14" class="node">
<title>v13</title>
<ellipse fill="none" stroke="black" cx="164.84" cy="-441" rx="35.19" ry="18"/>
<text text-anchor="middle" x="164.84" y="-437.3" font-family="Times,serif" font-size="14.00">ܠܚܒܪܗ</text>
</g>
<!-- v11&#45;&gt;v13 -->
<g id="edge17" class="edge">
<title>v11&#45;&gt;v13</title>
<path fill="none" stroke="black" d="M135.89,-563.96C141.5,-540.3 151.72,-497.26 158.39,-469.15"/>
<polygon fill="black" stroke="black" points="161.85,-469.72 160.76,-459.18 155.04,-468.1 161.85,-469.72"/>
<text text-anchor="middle" x="195.84" y="-534.8" font-family="Times,serif" font-size="14.00">Manuscrit 4122</text>
</g>
<!-- v14 -->
<g id="node15" class="node">
<title>v14</title>
<ellipse fill="none" stroke="black" cx="78.84" cy="-387" rx="30.59" ry="18"/>
<text text-anchor="middle" x="78.84" y="-383.3" font-family="Times,serif" font-size="14.00">ܡܕܠܐ</text>
</g>
<!-- v12&#45;&gt;v14 -->
<g id="edge18" class="edge">
<title>v12&#45;&gt;v14</title>
<path fill="none" stroke="black" d="M79.82,-477.2C77.79,-471.53 75.85,-465.08 74.84,-459 72.44,-444.59 73.11,-428.32 74.53,-415"/>
<polygon fill="black" stroke="black" points="78.01,-415.4 75.78,-405.04 71.06,-414.53 78.01,-415.4"/>
<text text-anchor="middle" x="97.84" y="-437.3" font-family="Times,serif" font-size="14.00">Syr 80</text>
</g>
<!-- v15 -->
<g id="node16" class="node">
<title>v15</title>
<ellipse fill="none" stroke="black" cx="147.84" cy="-300" rx="30.59" ry="18"/>
<text text-anchor="middle" x="147.84" y="-296.3" font-family="Times,serif" font-size="14.00">ܩܘܡܗ</text>
</g>
<!-- v13&#45;&gt;v15 -->
<g id="edge19" class="edge">
<title>v13&#45;&gt;v15</title>
<path fill="none" stroke="black" d="M162.75,-422.96C159.86,-399.3 154.6,-356.26 151.16,-328.15"/>
<polygon fill="black" stroke="black" points="154.63,-327.68 149.94,-318.18 147.68,-328.53 154.63,-327.68"/>
<text text-anchor="middle" x="212.84" y="-383.3" font-family="Times,serif" font-size="14.00">Manuscrit 4122</text>
</g>
<!-- v14&#45;&gt;v15 -->
<g id="edge20" class="edge">
<title>v14&#45;&gt;v15</title>
<path fill="none" stroke="black" d="M85.49,-369.22C90.02,-358.99 96.68,-346.01 104.84,-336 109.33,-330.48 114.81,-325.24 120.34,-320.56"/>
<polygon fill="black" stroke="black" points="122.73,-323.13 128.36,-314.16 118.36,-317.66 122.73,-323.13"/>
<text text-anchor="middle" x="127.84" y="-339.8" font-family="Times,serif" font-size="14.00">Syr 80</text>
</g>
<!-- v16 -->
<g id="node17" class="node">
<title>v16</title>
<ellipse fill="none" stroke="black" cx="94.84" cy="-213" rx="30.59" ry="18"/>
<text text-anchor="middle" x="94.84" y="-209.3" font-family="Times,serif" font-size="14.00">ܡܕܠܐ</text>
</g>
<!-- v15&#45;&gt;v16 -->
<g id="edge21" class="edge">
<title>v15&#45;&gt;v16</title>
<path fill="none" stroke="black" d="M127.17,-286.68C119.01,-280.81 110.31,-273.07 104.84,-264 100.75,-257.22 98.3,-249.09 96.84,-241.36"/>
<polygon fill="black" stroke="black" points="100.28,-240.66 95.4,-231.25 93.35,-241.64 100.28,-240.66"/>
<text text-anchor="middle" x="157.84" y="-252.8" font-family="Times,serif" font-size="14.00">Manuscrit 4122</text>
</g>
<!-- v17 -->
<g id="node18" class="node">
<title>v17</title>
<ellipse fill="none" stroke="black" cx="232.84" cy="-159" rx="27" ry="18"/>
<text text-anchor="middle" x="232.84" y="-155.3" font-family="Times,serif" font-size="14.00">ܒܗ܀</text>
</g>
<!-- v15&#45;&gt;v17 -->
<g id="edge22" class="edge">
<title>v15&#45;&gt;v17</title>
<path fill="none" stroke="black" d="M174.1,-290.36C187.04,-284.8 201.77,-276.28 210.84,-264 227.23,-241.8 231.98,-210.05 233.1,-187.48"/>
<polygon fill="black" stroke="black" points="236.6,-187.32 233.39,-177.22 229.6,-187.12 236.6,-187.32"/>
<text text-anchor="middle" x="241.84" y="-252.8" font-family="Times,serif" font-size="14.00">Syr 80</text>
</g>
<!-- v16&#45;&gt;v14 -->
<g id="edge26" class="edge">
<title>v16&#45;&gt;v14</title>
<path fill="none" stroke="lightgray" stroke-dasharray="5,2" d="M93.25,-231.05C90.19,-263.97 83.5,-335.91 80.43,-368.88"/>
</g>
<!-- v18 -->
<g id="node19" class="node">
<title>v18</title>
<ellipse fill="none" stroke="black" cx="101.84" cy="-105" rx="50.09" ry="18"/>
<text text-anchor="middle" x="101.84" y="-101.3" font-family="Times,serif" font-size="14.00">ܒܗ܀܀܀܀܀܀</text>
</g>
<!-- v16&#45;&gt;v18 -->
<g id="edge23" class="edge">
<title>v16&#45;&gt;v18</title>
<path fill="none" stroke="black" d="M91.91,-194.98C89.89,-180.53 88.03,-159.3 90.84,-141 91.25,-138.32 91.83,-135.56 92.51,-132.83"/>
<polygon fill="black" stroke="black" points="95.88,-133.78 95.29,-123.2 89.15,-131.83 95.88,-133.78"/>
<text text-anchor="middle" x="143.84" y="-155.3" font-family="Times,serif" font-size="14.00">Manuscrit 4122</text>
</g>
<!-- v17&#45;&gt;v19 -->
<g id="edge24" class="edge">
<title>v17&#45;&gt;v19</title>
<path fill="none" stroke="black" d="M234.34,-140.91C235.83,-126.42 238.53,-105.17 242.84,-87 246.2,-72.84 251.28,-57.45 255.81,-44.89"/>
<polygon fill="black" stroke="black" points="259.1,-46.11 259.29,-35.51 252.53,-43.68 259.1,-46.11"/>
<text text-anchor="middle" x="265.84" y="-101.3" font-family="Times,serif" font-size="14.00">Syr 80</text>
</g>
<!-- v18&#45;&gt;v19 -->
<g id="edge25" class="edge">
<title>v18&#45;&gt;v19</title>
<path fill="none" stroke="black" d="M99.67,-86.64C99.33,-75.93 100.87,-62.63 108.84,-54 124.81,-36.69 187.92,-26.99 229.09,-22.39"/>
<polygon fill="black" stroke="black" points="229.48,-25.87 239.05,-21.33 228.73,-18.91 229.48,-25.87"/>
<text text-anchor="middle" x="161.84" y="-57.8" font-family="Times,serif" font-size="14.00">Manuscrit 4122</text>
</g>
</g>
</svg>
